<?xml version="1.0" standalone="no"?>
<!DOCTYPE svg PUBLIC "-//W3C//DTD SVG 1.1//EN" "http://www.w3.org/Graphics/SVG/1.1/DTD/svg11.dtd" >
<svg>
<metadata>
Created by FontForge 20120731 at Wed Aug 28 10:19:33 2019
 By www
Digitized data copyright (c) Steve Matteson 2014
</metadata>
<defs>
<font id="GoudyTitling-SemiBold" horiz-adv-x="0" >
  <font-face 
    font-family="GoudyTitling-SemiBold"
    font-weight="600"
    font-stretch="normal"
    units-per-em="1000"
    panose-1="1 0 0 0 0 0 0 0 0 0"
    ascent="800"
    descent="-200"
    x-height="562"
    cap-height="704"
    bbox="-242 -293 1342 890"
    underline-thickness="50"
    underline-position="-75"
    unicode-range="U+0020-FB02"
  />
<missing-glyph horiz-adv-x="393" 
 />
    <glyph glyph-name="fi" unicode="fi" horiz-adv-x="714" 
d="M391 567q4 0 4 -4q0 -1 -1 -14t-1 -22l2 -43q0 -9 -5 -9t-6 8q-3 20 -16 30.5t-31.5 13.5t-56.5 4q-51 2 -75 -4q-2 -17 -2 -115v-112h66q47 0 60 3.5t18 18.5q3 7 4 12q3 8 6 8q5 0 5 -6l-2 -19q-1 -19 -1 -33q0 -10 1 -33.5t1 -26.5q0 -5 -5 -5t-5 5q-1 29 -16.5 37
t-60.5 8h-71l1 -99q0 -94 11.5 -123t49.5 -36q17 -3 17 -8q0 -6 -7 -6q-12 0 -57 1.5t-68 1.5q-10 0 -46 -1t-39 -1q-8 0 -8 6q0 7 10 7q36 8 42.5 34t6.5 167v203q0 67 -3.5 90.5t-12 31t-35.5 10.5q-9 1 -9 6q0 7 11 7l104 -1q167 0 212 7q2 0 4.5 0.5t3.5 0.5zM464 563
q4 0 38 -2t47 -2q15 0 59.5 1t51.5 1q11 0 11 -5q0 -7 -9 -7q-29 -4 -39.5 -13t-14.5 -33.5t-3 -90.5l1 -241q1 -101 10 -127t54 -33q13 -1 13 -8q0 -6 -9 -6q-30 0 -72 1.5t-61 1.5q-5 0 -41 -1.5t-43 -1.5q-9 0 -9 5q0 4 9 7q30 7 40.5 18.5t16 51t5.5 133.5v195
q0 93 -8.5 115.5t-47.5 27.5q-10 0 -10 7q0 6 11 6z" />
    <glyph glyph-name="fl" unicode="fl" horiz-adv-x="889" 
d="M391 567q4 0 4 -4q0 -1 -1 -14t-1 -22l2 -43q0 -9 -5 -9t-6 8q-3 20 -16 30.5t-31.5 13.5t-56.5 4q-51 2 -75 -4q-2 -17 -2 -115v-112h66q47 0 60 3.5t18 18.5q3 7 4 12q3 8 6 8q5 0 5 -6l-2 -19q-1 -19 -1 -33q0 -10 1 -33.5t1 -26.5q0 -5 -5 -5t-5 5q-1 29 -16.5 37
t-60.5 8h-71l1 -99q0 -94 11.5 -123t49.5 -36q17 -3 17 -8q0 -6 -7 -6q-12 0 -57 1.5t-68 1.5q-10 0 -46 -1t-39 -1q-8 0 -8 6q0 7 10 7q36 8 42.5 34t6.5 167v203q0 67 -3.5 90.5t-12 31t-35.5 10.5q-9 1 -9 6q0 7 11 7l104 -1q167 0 212 7q2 0 4.5 0.5t3.5 0.5zM679 561
q11 0 11 -6q0 -5 -9 -7q-21 -3 -29.5 -6t-18 -10.5t-12.5 -25t-4.5 -44t-1.5 -72.5v-187q0 -119 11 -155q3 -10 20.5 -12.5t71.5 -2.5q62 0 89.5 10t39.5 36q4 9 7 9q7 0 7 -5q0 -1 -0.5 -2.5t-1.5 -4t-1 -4.5q0 -1 -2.5 -6t-5.5 -12t-5 -13q-3 -8 -6 -16.5t-5 -14.5l-1 -7
q-3 -8 -7 -8l-17 1q-152 4 -204 4q-14 0 -47.5 -1t-61 -2t-28.5 -1q-9 0 -9 6q0 5 10 6q12 2 17.5 3.5t13.5 3t10.5 6.5t7 9.5t5.5 15.5t3 21t2 30t0.5 38t0.5 50v230q0 62 -5 88.5t-14.5 33.5t-35.5 10q-9 1 -9 7t11 6h6h14t20 -0.5t25.5 -0.5h28.5q35 0 71 1t38 1z" />
    <glyph glyph-name=".notdef" horiz-adv-x="393" 
 />
    <glyph glyph-name=".null" 
 />
    <glyph glyph-name="nonmarkingreturn" horiz-adv-x="333" 
 />
    <glyph glyph-name="space" unicode=" " horiz-adv-x="250" 
 />
    <glyph glyph-name="exclam" unicode="!" horiz-adv-x="365" 
d="M232 681q7 0 7 -7q0 -3 -0.5 -11.5t-4 -49.5t-8.5 -99l-21 -294q-1 -13 -3 -15.5t-9 -2.5q-9 0 -11 15l-25 260q-9 84 -15.5 119.5t-12.5 44.5t-20 13q-6 2 -6 7q0 7 8 7q14 0 62 6q16 2 30 3.5t20.5 2.5t8.5 1zM205 113q4 0 5 -4q4 -10 27 -39q11 -16 21 -20q4 -1 4 -5
q0 -5 -5 -6q-13 -3 -50 -25q-18 -11 -22 -16q-5 -7 -7 -7q-4 0 -6 5q-6 13 -14 24q-27 33 -33 35q-4 1 -4 5q0 5 5 6q14 3 35 15q28 15 37 27q4 5 7 5z" />
    <glyph glyph-name="quotedbl" unicode="&#x22;" horiz-adv-x="422" 
d="M166 704q7 0 7 -6q0 -1 -1.5 -7.5t-5 -25.5t-7.5 -43l-22 -149q-1 -11 -13 -11q-10 0 -11 9l-19 137q-7 50 -10 59.5t-14 11.5q-5 2 -5 5q0 6 7 7q2 0 16 3t23 4q49 6 55 6zM336 704q7 0 7 -6q0 -1 -1.5 -7t-5 -24t-7.5 -42l-22 -152q-3 -11 -13 -11t-11 9l-19 137
q-7 50 -10 59.5t-14 11.5q-5 2 -5 5q0 6 7 7l39 7q29 6 55 6z" />
    <glyph glyph-name="numbersign" unicode="#" horiz-adv-x="504" 
d="M444 464q10 0 10 -7q0 -8 -3 -23t-9 -15h-86l-26 -152h84q10 0 10 -7q0 -8 -3 -23t-9 -15h-90l-36 -210q-3 -12 -9 -12q-21 0 -21 7q0 2 4 26l32 189h-121l-36 -210q-3 -12 -9 -12q-21 0 -21 7q0 2 4 26l32 189h-80q-11 0 -11 7q0 9 3 23t9 14h87l26 153h-84q-11 0 -11 7
q0 9 3 23t9 14h91l36 212q3 12 9 12q21 0 21 -7q0 -2 -4 -26l-33 -191l122 1l36 211q3 12 9 12q21 0 21 -7q0 -2 -4 -26l-33 -190h81zM300 267l26 152h-121l-26 -153z" />
    <glyph glyph-name="dollar" unicode="$" horiz-adv-x="482" 
d="M426 227q0 -72 -53 -119.5t-121 -56.5v-118q0 -10 -12 -10q-13 0 -13 10v116h-1q-101 0 -165 29q-3 2 -3 4q0 4 0.5 13t0.5 14q0 10 -1.5 31.5t-1.5 31.5q0 28 4 35q3 4 6 4q5 0 5 -4q0 -1 -0.5 -6t-0.5 -7q0 -39 39 -78t117 -40h1v255q-2 1 -4.5 2t-3.5 2
q-77 40 -115 77.5t-38 94.5q0 54 44 98.5t117 50.5v83q0 9 12 9q13 0 13 -8v-83q23 0 67.5 -4t53.5 -4q5 0 9 3.5t5 3.5q6 0 6 -5q0 -1 -1.5 -12.5t-1.5 -17.5q0 -7 3 -41t3 -51q0 -9 -5 -9t-6 5q-13 100 -133 107v-218q7 -4 23 -12q83 -41 117 -83t34 -92zM134 536
q0 -33 21 -57t72 -52v204q-38 -4 -65.5 -29t-27.5 -66zM252 78q53 7 78.5 44t25.5 74t-24.5 63.5t-79.5 57.5v-239z" />
    <glyph glyph-name="percent" unicode="%" horiz-adv-x="675" 
d="M536 681q6 0 13 -3.5t7 -7.5q0 -5 -13 -27l-386 -635q-5 -8 -10 -8t-12.5 4t-7.5 7q0 4 13 26l386 635q6 9 10 9zM193 673q56 0 86 -47t30 -119q0 -73 -36 -123.5t-96 -50.5q-57 0 -87 48t-30 118q0 72 36 123t97 51zM176 650q-51 0 -52 -135q0 -83 16.5 -121.5
t53.5 -38.5q52 0 52 136q0 79 -19 119t-51 40zM498 336q57 0 87 -48t30 -118q0 -73 -36 -123.5t-97 -50.5q-57 0 -87 48t-30 118q0 72 36 123t97 51zM481 313q-52 0 -52 -135q0 -82 16.5 -120t53.5 -38q52 0 52 134q0 79 -19 119t-51 40z" />
    <glyph glyph-name="ampersand" unicode="&#x26;" horiz-adv-x="872" 
d="M298 684q28 0 61 -4l33 -4q6 0 11 2.5t7 2.5q4 0 4 -9q0 -28 2 -40q2 -18 5 -37t5 -29.5t2 -12.5q0 -7 -6 -7q-5 0 -11 18q-11 32 -30 55q-31 39 -84 39q-38 0 -61.5 -23.5t-23.5 -60.5q0 -36 21.5 -72t63.5 -84q57 -63 140 -140t142 -121q50 66 50 150q0 48 -25 86
t-65 38q-56 0 -73 -52q-3 -10 -7 -10q-5 0 -5 12q0 48 26 82.5t72 34.5q38 0 107.5 -5t84.5 -5q46 0 64.5 11.5t34.5 45.5q4 10 8 10q6 0 6 -5q0 -7 -4 -21t-11.5 -37t-12.5 -40q-13 -36 -32 -36q-11 0 -73 5.5t-75 5.5q29 -48 29 -110q0 -85 -76 -179q122 -87 192 -89
q8 0 18 1.5t14 1.5q6 0 6 -7q0 -5 -7.5 -8t-45.5 -13q-27 -7 -54.5 -17.5t-43 -16.5t-18.5 -6q-4 0 -9.5 4t-19.5 16t-22 19q-23 22 -68 55q-103 -88 -235 -88q-110 0 -187 65.5t-77 166.5q0 123 153 185q-58 69 -58 137q0 57 46.5 98.5t111.5 41.5zM213 386
q-78 -44 -78 -144q0 -80 61 -135.5t154 -55.5q103 0 167 48q-199 164 -304 287z" />
    <glyph glyph-name="quotesingle" unicode="'" horiz-adv-x="252" 
d="M166 704q7 0 7 -6q0 -1 -1.5 -7.5t-5 -25.5t-7.5 -43l-22 -149q-1 -11 -13 -11q-10 0 -11 9l-19 137q-7 50 -10 59.5t-14 11.5q-5 2 -5 5q0 6 7 7q2 0 9.5 1.5t17 3t19.5 2.5q39 6 48 6z" />
    <glyph glyph-name="parenleft" unicode="(" horiz-adv-x="326" 
d="M260 773q11 0 11 -10q0 -2 -4.5 -7t-13.5 -15.5t-16 -20.5q-94 -128 -94 -378t94 -378q7 -10 16 -20.5t13.5 -15.5t4.5 -7q0 -4 -3 -7t-6 -3q-10 0 -40 32q-166 171 -166 399q0 215 166 399q27 32 38 32z" />
    <glyph glyph-name="parenright" unicode=")" horiz-adv-x="326" 
d="M71 773q11 0 38 -32q166 -184 166 -399q0 -228 -166 -399q-30 -32 -40 -32q-9 0 -9 10q0 2 4.5 7t13.5 15.5t16 20.5q94 128 94 378t-94 378q-7 10 -16 20.5t-13.5 15.5t-4.5 7q0 10 11 10z" />
    <glyph glyph-name="asterisk" unicode="*" horiz-adv-x="333" 
d="M289 520q6 -4 6 -6t-3.5 -6t-5.5 -4q-16 0 -84 39l-21 11l-5 -117q0 -6 -8 -6q-7 0 -7 5l-8 118l-24 -12q-70 -36 -83 -36q-2 0 -5.5 4t-3.5 6q0 3 7 5q2 1 21.5 10.5t37.5 19.5l39 21l-56 31q-31 16 -46 19q-3 0 -3 4t2 10q6 16 10 16l8 -4l16.5 -11t20.5 -13l56 -33
l-4 55q-2 27 -5 33.5t-10 7.5q-3 0 -3 5q0 3 4 4q11 3 33 5q5 1 12 2t9 1q4 0 4 -3l-1 -3q-1 -4 -2.5 -13.5t-1.5 -24.5l-3 -69l56 33q5 3 37 24q8 4 9 4q4 0 9 -16q2 -6 2 -10t-3 -4q-15 -3 -45 -19l-58 -30l36 -19q60 -32 64 -34z" />
    <glyph glyph-name="plus" unicode="+" horiz-adv-x="450" 
d="M384 273q6 0 8 -2.5t2 -10.5q0 -15 -12 -15h-146v-143q0 -7 -2.5 -9t-11.5 -2q-13 0 -13 12v142h-140q-7 0 -9 2.5t-2 10.5q0 14 12 14h138v145q0 6 2.5 8t11.5 2q14 0 14 -12v-142h148z" />
    <glyph glyph-name="comma" unicode="," horiz-adv-x="268" 
d="M136 109q4 0 29 -22q25 -20 25 -50q0 -32 -25.5 -68.5t-51 -57.5t-32.5 -21q-4 0 -7 3.5t-3 6.5t3 6q45 40 45 79q0 27 -27 42q-19 11 -19 15q0 6 16 22q9 9 17 16.5t12 12t7 8t4.5 5t3 2.5t3.5 1z" />
    <glyph glyph-name="hyphen" unicode="-" horiz-adv-x="285" 
d="M224 412q7 0 7 -12q0 -4 -11 -11l-137 -79q-10 -6 -16 -6q-5 0 -10 13.5t-5 18.5q0 7 10 11l137 56q2 1 8 3t10.5 4t6.5 2zM222 309q3 0 6 -4.5t3 -7.5q0 -4 -11 -11l-137 -89q-10 -6 -15 -6t-10.5 13.5t-5.5 18.5t10 11l137 65q20 10 23 10z" />
    <glyph glyph-name="period" unicode="." horiz-adv-x="284" 
d="M159 113q4 0 5 -4q4 -9 26 -39q11 -16 21 -20q4 -1 4 -5q0 -5 -5 -6q-12 -3 -50 -25q-18 -11 -22 -16q-5 -7 -7 -7q-4 0 -6 5q-6 13 -14 24q-27 33 -33 35q-4 1 -4 5q0 5 5 6q14 3 35 15q30 16 38 27q4 5 7 5z" />
    <glyph glyph-name="slash" unicode="/" horiz-adv-x="450" 
d="M408 782q6 0 14 -4t8 -8q0 -1 -13 -32l-365 -830q-3 -8 -9 -8q-5 0 -14 4t-9 7q0 5 13 32l365 830q4 9 10 9z" />
    <glyph glyph-name="zero" unicode="0" horiz-adv-x="583" 
d="M287 687q109 0 172.5 -92.5t63.5 -250.5q0 -163 -57 -257.5t-171 -94.5q-102 0 -168.5 85.5t-66.5 266.5q0 161 58 252t169 91zM284 660q-64 0 -95 -76.5t-31 -210.5q0 -176 39 -263.5t108 -87.5q52 0 84.5 79t32.5 215q0 165 -35.5 254.5t-102.5 89.5z" />
    <glyph glyph-name="one" unicode="1" horiz-adv-x="372" 
d="M236 694q7 0 7 -7q0 -5 -2 -30t-4 -63.5t-2 -78.5l1 -306q1 -125 14 -158.5t72 -40.5q15 -2 15 -7q0 -7 -11 -7q-12 0 -58 2t-92 2q-18 0 -68 -2t-55 -2q-12 0 -12 7q0 6 13 7q23 4 34 6.5t23.5 12.5t17 24.5t9.5 43.5t6 67.5t1 100.5v247q0 68 -4 91.5t-16 23.5
q-17 0 -52 -4t-37 -4q-9 0 -9 8q0 6 13 9q67 14 127 34q68 24 69 24z" />
    <glyph glyph-name="two" unicode="2" horiz-adv-x="549" 
d="M250 687q98 -1 150 -48.5t52 -116.5q0 -67 -30 -121.5t-91 -115.5q-159 -161 -189 -194q-10 -10 -10 -13q0 -5 13 -6q55 -5 115 -5q92 0 136 7.5t64 23t37 52.5q4 11 10 11q7 0 7 -4q0 -6 -4 -16q-34 -79 -42 -125q-4 -20 -10 -20q-1 0 -10 0.5t-20 0.5q-48 3 -217 3
q-73 0 -128 -1.5t-58 -1.5q-7 0 -7 8q0 5 7 12q47 48 133.5 145.5t115.5 136.5q79 106 79 210q0 66 -33 109.5t-93 43.5q-57 0 -100 -26t-54 -86q-3 -11 -7 -11q-5 0 -5 8q0 10 3 43.5t3 48.5v39q0 6 5 6q2 0 9 -6.5t12 -6.5q16 0 71 8q48 8 86 8z" />
    <glyph glyph-name="three" unicode="3" horiz-adv-x="523" 
d="M243 687q80 0 131 -39.5t51 -101.5q0 -28 -9 -51.5t-29.5 -44t-34 -31t-43.5 -30.5q78 -20 119.5 -64.5t41.5 -106.5q0 -102 -79 -163t-181 -61q-96 0 -160 26q-4 3 -4 7q0 3 1 12t1 15q0 8 -1.5 31t-1.5 36q0 23 3 30q1 4 6 4q6 0 6 -4q0 -1 -1 -6.5t-1 -9.5
q0 -32 46 -71.5t118 -40.5q63 -1 104 48t41 125t-34.5 118t-89.5 42q-13 0 -34 -4t-23 -4q-10 0 -10 13q0 5 15 9q60 18 84 35q53 41 53 130q0 55 -33.5 92t-84.5 37q-49 0 -89 -24.5t-48 -71.5q-1 -12 -7 -12t-6 6t3 37.5t3 43.5v34q0 5 5 5q3 0 8 -6.5t10 -6.5q12 0 69 11
q43 7 85 7z" />
    <glyph glyph-name="four" unicode="4" horiz-adv-x="600" 
d="M578 407q6 0 6 -7q0 -3 -2 -13q-3 -14 -15 -46t-17 -54q-6 -24 -8 -29t-7 -5l-15 1h-26q-16 1 -83 3v-62q0 -116 13.5 -147t73.5 -38q14 -1 14 -8q0 -6 -11 -6q-27 0 -77 2t-88 2q-7 0 -52 -2t-53 -2q-12 0 -12 7q0 6 13 7q29 4 41.5 8.5t25 15t16.5 36t6 61t2 101.5v25
h-75q-62 0 -112 -0.5t-76.5 -1.5t-31.5 -1q-7 0 -7 6q0 11 146 180.5t205 232.5q29 30 35 30q7 0 7 -8q0 -4 -1 -19.5t-2 -56t-1 -104.5l1 -202q76 1 108 20.5t49 58.5q6 15 10 15zM135 316q20 -1 188 -3v167q0 69 -1 87q-35 -36 -98.5 -111t-96.5 -119q-9 -11 -9 -15
q0 -6 17 -6z" />
    <glyph glyph-name="five" unicode="5" horiz-adv-x="524" 
d="M444 685q5 0 5 -5l-1 -18q-1 -17 -1 -31l-2 -80q0 -8 -6 -8t-7 8q-5 38 -28 48t-87 12q-104 0 -180 -2q-4 -16 -8.5 -80t-4.5 -82q172 -11 258.5 -71t86.5 -165q0 -98 -74 -157.5t-167 -59.5q-92 0 -160 27q-7 2 -7 6t0.5 13t0.5 14q0 9 -1.5 32t-1.5 34q0 23 3 32
q2 5 5 5q6 0 6 -4l-1 -5v-10q0 -37 46 -76.5t119 -40.5q58 -1 97 44t39 123q0 89 -72 134.5t-204 48.5q-12 0 -12 6q0 3 3 44q10 113 17 228q1 32 7 32q1 0 14.5 -3t30.5 -3q202 0 263 7z" />
    <glyph glyph-name="six" unicode="6" horiz-adv-x="575" 
d="M516 226q1 -112 -58.5 -174t-145.5 -62q-116 0 -183.5 93.5t-67.5 256.5q0 166 80 256t219 90q18 0 58.5 -4t44.5 -4q5 0 8 3.5t5 3.5q7 0 7 -5q0 -1 -1 -12t-1 -17q0 -8 3 -43.5t3 -54.5q0 -9 -6 -9q-5 0 -7 6q-15 57 -50 82.5t-78 25.5q-92 0 -140 -84t-48 -228v-9
q74 80 174 80q81 0 132 -51.5t52 -139.5zM318 19q47 0 73 51.5t26 139.5q0 87 -36 126t-84 39q-74 0 -138 -64q6 -130 51.5 -211t107.5 -81z" />
    <glyph glyph-name="seven" unicode="7" horiz-adv-x="531" 
d="M160 -3q-10 0 -19.5 4t-9.5 8q0 9 162 317l148 282q-70 3 -172 3q-82 0 -168 -10q-21 -3 -30 -14.5t-15 -35.5q-2 -10 -8 -10t-6 7q0 10 11 69l10 60q1 4 5 4q2 0 6 -0.5t7 -0.5q36 -2 210 -2l220 2q5 0 5 -4t-6 -17l-188 -365q-28 -55 -76.5 -153.5t-67.5 -136.5
q-4 -7 -18 -7z" />
    <glyph glyph-name="eight" unicode="8" horiz-adv-x="548" 
d="M269 687q85 0 141.5 -36.5t56.5 -97.5q0 -51 -34.5 -87.5t-105.5 -76.5q93 -47 133.5 -97t40.5 -112q0 -86 -66 -136t-163 -50q-101 0 -163 48.5t-62 123.5q0 61 38 107t116 88q-65 38 -96.5 78.5t-31.5 93.5q0 63 51.5 108.5t144.5 45.5zM265 662q-49 0 -79.5 -30
t-30.5 -80q0 -45 31 -77.5t105 -68.5q51 31 74 64.5t23 78.5q0 49 -34.5 81t-88.5 32zM240 338q-62 -36 -88.5 -77.5t-26.5 -93.5q0 -61 38.5 -102.5t109.5 -41.5q65 0 104.5 38t39.5 96q0 57 -43 98t-134 83z" />
    <glyph glyph-name="nine" unicode="9" horiz-adv-x="578" 
d="M278 687q99 0 169.5 -88.5t70.5 -238.5q0 -92 -24 -164t-64.5 -115.5t-91 -66t-107.5 -22.5q-63 0 -123 8q-23 2 -23 12q0 4 0.5 13.5t0.5 14.5q0 11 -1.5 38t-1.5 37q0 24 4 33q2 3 6 3q6 0 6 -3l-1 -6v-10q0 -40 42 -76t94 -36q78 0 129.5 83t55.5 225
q-75 -66 -168 -66q-80 0 -136 54t-56 155q0 97 62 156.5t157 59.5zM158 475q0 -84 36.5 -127t86.5 -43q71 0 138 52q-1 134 -41.5 218t-100.5 84q-52 0 -85.5 -51t-33.5 -133z" />
    <glyph glyph-name="colon" unicode=":" horiz-adv-x="295" 
d="M159 416q4 0 5 -4q4 -9 26 -39q11 -16 21 -20q4 -1 4 -5q0 -5 -5 -6q-12 -3 -50 -25q-18 -11 -22 -16q-5 -7 -7 -7q-4 0 -6 5q-6 13 -14 24q-27 33 -33 35q-4 1 -4 5q0 5 5 6q14 3 35 15q30 16 38 27q4 5 7 5zM164 113q4 0 5 -4q4 -9 26 -39q15 -18 21 -20q4 -1 4 -5
q0 -5 -5 -6q-11 -3 -49 -25q-18 -11 -22 -16q-5 -7 -7 -7q-4 0 -6 5q-6 13 -14 24q-27 32 -34 35q-4 1 -4 5q0 5 5 6q14 3 35 15q30 16 38 27q4 5 7 5z" />
    <glyph glyph-name="semicolon" unicode=";" horiz-adv-x="268" 
d="M143 416q4 0 5 -4q4 -9 26 -39q15 -18 21 -20q4 -1 4 -5q0 -5 -5 -6q-11 -3 -49 -25q-18 -11 -22 -16q-5 -7 -7 -7q-4 0 -6 5q-6 13 -14 24q-27 33 -33 35q-4 1 -4 5q0 5 5 6q14 3 35 15q28 15 37 27q4 5 7 5zM136 109q4 0 29 -22q25 -20 25 -50q0 -32 -25.5 -68.5
t-51 -57.5t-32.5 -21q-4 0 -7 3.5t-3 6.5t3 6q45 40 45 79q0 27 -27 42q-19 11 -19 15q0 6 16 22q9 9 17 16.5t12 12t7 8t4.5 5t3 2.5t3.5 1z" />
    <glyph glyph-name="less" unicode="&#x3c;" horiz-adv-x="450" 
d="M387 454q5 0 8.5 -6.5t3.5 -11.5q0 -6 -10 -12l-305 -162l304 -158q10 -6 10 -11q0 -4 -5 -12.5t-10 -8.5q-6 0 -16 5l-306 163q-10 6 -10 13v18q0 6 10 12l307 164q13 7 19 7z" />
    <glyph glyph-name="equal" unicode="=" horiz-adv-x="450" 
d="M380 352q6 0 8 -2.5t2 -10.5q0 -15 -12 -15h-313q-7 0 -9 2.5t-2 10.5q0 14 12 14zM384 196q6 0 8 -2.5t2 -11.5q0 -14 -12 -14h-313q-7 0 -9 2.5t-2 11.5q0 13 12 13z" />
    <glyph glyph-name="greater" unicode="&#x3e;" horiz-adv-x="450" 
d="M63 454q6 0 19 -7l307 -164q10 -6 10 -12v-18q0 -7 -10 -13l-306 -163q-10 -5 -16 -5q-5 0 -10 8.5t-5 12.5q0 5 10 11l304 158l-305 162q-10 6 -10 12q0 5 3.5 11.5t8.5 6.5z" />
    <glyph glyph-name="question" unicode="?" horiz-adv-x="393" 
d="M71 706q7 0 8 -9q2 -17 11 -26t33 -16q111 -31 159.5 -75.5t48.5 -111.5q0 -34 -12 -63t-36.5 -51.5t-42.5 -35.5t-49 -31q-24 -16 -30 -22.5t-6 -16.5q0 -12 3 -39t3 -30q0 -7 -9 -7q-6 0 -7 8q0 2 -3.5 22.5t-5.5 31.5q-3 16 -6.5 29t-5 18.5t-1.5 7.5q0 7 5 8
q126 51 126 149q0 56 -43.5 86t-137.5 49q-18 3 -18 9q0 10 1 15q1 9 9 92q1 9 6 9zM169 113q4 0 5 -4q4 -9 26 -39q15 -18 21 -20q4 -1 4 -5q0 -5 -5 -6q-11 -3 -49 -25q-18 -11 -22 -16q-5 -7 -7 -7q-4 0 -6 5q-6 13 -14 24q-27 33 -33 35q-4 1 -4 5q0 5 5 6q14 3 35 15
q28 15 37 27q4 5 7 5z" />
    <glyph glyph-name="at" unicode="@" horiz-adv-x="783" 
d="M458 667q110 0 186.5 -66.5t76.5 -164.5q0 -82 -46.5 -151t-109 -104.5t-119.5 -36.5q-8 0 -15 4.5t-7 11.5q0 21 9 68l12 64l-34 -49q-22 -33 -55.5 -66t-59.5 -33q-22 0 -47.5 31.5t-25.5 82.5q0 93 73 168t187 75l3 12q3 14 9 18.5t20 4.5q25 0 25 -7q0 -5 -4 -31
l-44 -265q-3 -21 -3 -30q0 -12 10 -12q59 0 109.5 62.5t50.5 161.5q0 92 -64 158t-160 66q-118 0 -213 -96.5t-95 -233.5q0 -127 69 -207.5t194 -80.5q128 0 256 92q8 7 12 7q6 0 6 -7q0 -4 -9 -13q-48 -44 -127.5 -82t-161.5 -38q-136 0 -219.5 84.5t-83.5 222.5
q0 108 57.5 196.5t147.5 136t190 47.5zM426 470q-56 0 -100 -50.5t-44 -127.5q0 -35 12 -60.5t30 -25.5q30 0 78.5 56.5t60.5 130.5l11 68q-20 9 -48 9z" />
    <glyph glyph-name="A" unicode="A" horiz-adv-x="727" 
d="M371 707q6 0 11 -10l46 -120l155 -390q39 -100 64.5 -134.5t63.5 -42.5q16 -3 16 -9t-10 -6q-7 0 -54 2.5t-75 2.5q-16 0 -57 -2t-56 -2q-9 0 -9 7t8 7q54 5 54 38q0 26 -19 75l-51 134l-232 -2l-51 -124q-19 -46 -19 -73q0 -43 48 -47q13 -1 13 -6q0 -7 -10 -7
q-7 0 -45 2t-51 2q-17 0 -55 -2t-44 -2q-9 0 -9 7q0 4 11 6q37 4 61 38.5t68 135.5l158 372q13 29 34 77t26 61q4 12 10 12zM347 548l-102 -252l197 3z" />
    <glyph glyph-name="B" unicode="B" horiz-adv-x="622" 
d="M278 701q206 0 206 -160q0 -54 -28 -100t-75 -69v-2q72 -7 130 -56t58 -121q0 -88 -63 -143.5t-160 -55.5q-12 0 -79 3.5t-93 3.5q-23 0 -62 -1.5t-40 -1.5q-11 0 -11 7q0 5 12 7q52 7 62 53.5t10 278.5v175v64t-3 43t-6.5 30t-13 15.5t-20 10.5t-30.5 4q-11 2 -11 7
q0 7 11 7q3 0 17.5 -0.5t38 -1t46.5 -0.5q13 0 51 1.5t53 1.5zM273 668q-22 0 -32 -2q-6 -41 -6 -149v-120q0 -11 19 -15q28 -4 75 -4q33 0 54 30.5t21 94.5q0 40 -10.5 71.5t-25.5 48.5t-34.5 27.5t-34 14t-26.5 3.5zM282 343h-41q-5 0 -5 -6v-126q0 -133 11 -157
q15 -34 95 -34q23 0 44 6t42.5 21.5t34 48t12.5 78.5q0 77 -53 123t-140 46z" />
    <glyph glyph-name="C" unicode="C" horiz-adv-x="729" 
d="M430 710q46 0 119 -14q80 -15 95 -15q10 0 17 4l7 4q7 0 7 -5q0 -1 -2 -15.5t-2 -20.5q-2 -46 -2 -91q0 -9 -6 -9q-5 0 -7 10q-8 36 -53.5 65.5t-95 43t-86.5 13.5q-132 0 -198 -78.5t-66 -214.5q0 -164 89 -263.5t212 -99.5q85 0 136.5 32t68.5 83q4 9 8 9q6 0 6 -5
q0 -8 -5 -41t-10 -48q-8 -25 -10.5 -30t-10.5 -7q-39 -11 -73 -17q-59 -10 -129 -10q-76 0 -141.5 19t-120.5 60t-86.5 114.5t-31.5 173.5q0 163 99.5 258t271.5 95z" />
    <glyph glyph-name="D" unicode="D" horiz-adv-x="834" 
d="M422 708q176 0 264.5 -92.5t88.5 -239.5q0 -168 -103.5 -275t-297.5 -107q-42 0 -115 3.5t-85 3.5q-23 0 -62 -1.5t-40 -1.5q-11 0 -11 7q0 5 12 7q52 7 62 53.5t10 278.5v175q0 38 -0.5 56t-1.5 40t-4.5 30t-7.5 17.5t-13 12.5t-19 6t-27 5q-11 2 -11 7q0 7 13 7
q3 0 40.5 -1t59.5 -1q12 0 120 5t128 5zM376 672q-94 0 -134 -11q-7 -43 -7 -166l1 -282q0 -127 11 -154q7 -18 53 -25.5t81 -7.5q145 0 217 83t72 236q0 146 -75 236.5t-219 90.5z" />
    <glyph glyph-name="E" unicode="E" horiz-adv-x="547" 
d="M459 709q5 0 5 -5l-1 -15q-1 -15 -1 -22l-1 -49q0 -9 -5 -9q-6 0 -7 8q-2 17 -12.5 27.5t-30 15.5t-36 6.5t-43.5 1.5q-45 1 -90 -4q-2 -21 -2 -149v-135h101q54 0 74 7t26 27q1 3 4 15q2 8 6 8q6 0 6 -5l-4 -30q-3 -31 -3 -50q0 -14 1 -41.5t1 -31.5q0 -7 -6 -7t-6 7
q-1 44 -18.5 53.5t-74.5 10.5l-107 1l1 -131q0 -103 10 -145q4 -18 28 -23.5t72 -5.5q59 0 85 9t39 34q4 7 7 7q7 0 7 -5q0 -3 -3 -10l-12 -32q-5 -16 -12 -38q-3 -8 -7 -8h-10q-9 1 -17 1q-102 4 -212 4q-23 0 -81 -1.5t-59 -1.5q-10 0 -10 7q0 4 12 7q53 11 62.5 43
t9.5 210v254q0 120 -7.5 141.5t-50.5 26.5q-11 2 -11 6q0 7 13 7h26t54.5 -0.5t48.5 -0.5q100 0 223 7q5 1 9.5 1.5t6 1t2.5 0.5z" />
    <glyph glyph-name="F" unicode="F" horiz-adv-x="511" 
d="M457 709q5 0 5 -5l-1 -15q-1 -15 -1 -26q0 -8 1 -27.5t1 -25.5q0 -11 -5 -11q-6 0 -7 9q-5 37 -31.5 47t-93.5 13q-60 2 -94 -5q-2 -21 -2 -148v-140h83q57 0 72.5 4.5t21.5 22.5q2 7 4 15q2 10 6 10q6 0 6 -7q0 -1 -1.5 -24.5t-1.5 -40.5q0 -15 1 -43t1 -30q0 -7 -5 -7
q-6 0 -6 6q-2 36 -20.5 46.5t-71.5 10.5h-89l1 -125q0 -121 12.5 -157.5t57.5 -43.5q21 -4 21 -9q0 -7 -8 -7q-17 0 -65.5 2.5t-77.5 2.5q-7 0 -47.5 -1.5t-45.5 -1.5q-8 0 -8 6q0 5 10 8q44 10 52 43t8 210v254v67.5t-3 44.5t-5.5 29t-11.5 14.5t-16.5 8.5t-25.5 3
q-11 2 -11 7q0 7 13 7l124 -1q129 0 244 8q2 0 5 1q4 1 5 1z" />
    <glyph glyph-name="G" unicode="G" horiz-adv-x="783" 
d="M423 710q70 0 145 -15t86 -15q8 0 14 5t9 5q6 0 6 -5q0 -1 -2 -14t-2 -19q-1 -21 -1 -89q0 -8 -7 -8q-5 0 -7 11q-17 55 -92 84t-157 29q-128 0 -192.5 -77.5t-64.5 -214.5q0 -165 86 -263t206 -98q66 0 119 22q9 26 9 117q0 98 -11.5 126t-62.5 28h-4q-7 0 -7 7t22 7
q16 0 47.5 -1t48.5 -1q20 0 61 2t48 2q10 0 10 -7q0 -5 -10 -6q-33 -6 -41 -17t-9 -60l-1 -179v-25q0 -18 -22 -23q-40 -8 -100 -18q-57 -10 -116 -10q-168 0 -270 94t-102 273q0 163 97.5 258t266.5 95z" />
    <glyph glyph-name="H" unicode="H" horiz-adv-x="877" 
d="M797 704q13 0 13 -6t-12 -8q-49 -8 -60 -36t-11 -137v-252v-64t1 -51t1.5 -41t3 -31.5t4.5 -24t7 -16t9 -11.5t12 -7t15 -5t18 -3q11 -3 11 -9t-11 -6q-7 0 -45.5 2t-46.5 2q-43 0 -89 -2t-67 -2q-10 0 -10 6q0 5 15 8q56 7 68.5 44t12.5 159v120q-84 6 -210 6
q-137 0 -189 -6l1 -124q1 -127 10 -154q10 -32 49 -41q7 -2 17 -3q16 -3 16 -8q0 -7 -10 -7q-30 0 -74 2t-73 2q-7 0 -49.5 -2t-47.5 -2q-11 0 -11 6q0 5 12 8q50 8 60 44.5t10 215.5v249q0 51 -1.5 76.5t-4 46.5t-11.5 28.5t-18.5 11.5t-31.5 7q-11 2 -11 7q0 8 13 8l42 -2
q41 -3 61 -3q23 0 72 2.5t50 2.5q13 0 13 -7q0 -6 -11 -7q-33 -4 -46.5 -16t-19.5 -46t-6 -113v-127q72 -8 189 -8q155 0 210 6l1 129q0 106 -11.5 136t-55.5 37q-10 2 -10 7q0 7 13 7q7 0 48 -1.5t67 -1.5t65 2.5t44 2.5z" />
    <glyph glyph-name="I" unicode="I" horiz-adv-x="391" 
d="M81 704q4 0 42.5 -2.5t56.5 -2.5q22 0 70 1.5t52 1.5q13 0 13 -6q0 -5 -11 -7q-22 -3 -32 -7t-19.5 -12t-12 -29t-4 -47.5t-1.5 -78.5l1 -302q1 -127 13 -160t67 -42q15 -1 15 -8q0 -6 -10 -6q-32 0 -77.5 1.5t-72.5 1.5q-6 0 -49 -2t-51 -2q-11 0 -11 6q0 4 11 7
q36 7 49 21.5t19.5 64.5t6.5 170v245q0 53 -1 79t-4 49t-11.5 31.5t-19 13t-31.5 7.5q-11 2 -11 8t13 6z" />
    <glyph glyph-name="J" unicode="J" horiz-adv-x="412" 
d="M134 704q5 0 49 -2.5t66 -2.5q16 0 56.5 1t43.5 1q12 0 12 -7q0 -6 -8 -7q-21 -2 -30 -5.5t-17.5 -11t-11 -28t-3.5 -47.5t-1 -80l1 -181q0 -8 1.5 -83t1.5 -98q0 -53 -39 -92q-29 -29 -80 -57q-31 -18 -67 -18q-32 0 -69 20q-6 3 -6 8q0 4 3 14.5t4 17.5q2 8 6.5 37.5
t5.5 35.5q3 11 9 11q7 0 7 -5q0 -1 -1.5 -8t-1.5 -12q0 -19 14 -39q28 -35 72 -35q31 0 40 50t9 184v291q0 86 -11 108t-58 26q-9 1 -9 7q0 7 12 7z" />
    <glyph glyph-name="K" unicode="K" horiz-adv-x="748" 
d="M297 704q12 0 12 -7q0 -5 -9 -7q-31 -4 -42.5 -14.5t-17.5 -45t-6 -115.5v-155l242 231q54 54 54 78q0 17 -30 19q-13 1 -13 7t10 6q7 0 48.5 -1.5t52.5 -1.5q18 0 58 2.5t45 2.5q11 0 11 -7q0 -5 -11 -7q-49 -6 -75 -22.5t-96 -82.5l-216 -203l268 -278q49 -50 76 -67
t63 -25l19 -2q8 0 8 -6q0 -4 -5 -6q-8 -2 -26 -2q-7 0 -51 1.5t-55 1.5q-6 0 -24.5 -1.5t-23.5 -1.5q-3 0 -10 7l-319 342l1 -135q1 -132 12 -161.5t70 -36.5q17 -1 17 -9q0 -6 -10 -6q-18 0 -61 2t-88 2q-6 0 -52 -2t-53 -2q-8 0 -8 6q0 7 11 8q52 6 61.5 40.5t9.5 214.5
v254q0 80 -6.5 114.5t-19 43.5t-46.5 13q-11 2 -11 8t13 6q2 0 42.5 -2.5t70.5 -2.5q25 0 50 1.5t41.5 2.5t18.5 1z" />
    <glyph glyph-name="L" unicode="L" horiz-adv-x="571" 
d="M309 701q13 0 13 -6t-11 -8q-39 -5 -52 -16t-19 -47t-5 -129l1 -251q0 -146 12 -188q4 -13 26 -16t82 -3q79 0 115.5 12.5t49.5 45.5q4 9 7 9q6 0 6 -5q0 -7 -3 -14q-2 -4 -16 -38l-6 -16t-4 -13t-2.5 -9t-1.5 -5q-3 -10 -8 -10l-17 1q-235 5 -255 5q-16 0 -52 -1
t-66 -2.5t-31 -1.5q-11 0 -11 6q0 7 12 8q53 8 62.5 37.5t9.5 185.5v287q0 60 -2 91.5t-11.5 48t-19 20.5t-33.5 7q-11 2 -11 8t13 6h7h16.5t24 -0.5t30 -0.5h32.5q33 0 74 1t44 1z" />
    <glyph glyph-name="M" unicode="M" horiz-adv-x="935" 
d="M196 712q6 0 8 -5q172 -367 273 -567l253 561q4 9 9 9q7 0 9 -6q0 -16 18 -137l54 -384q14 -103 31 -133.5t57 -39.5q16 -3 16 -9t-12 -6q-15 0 -49.5 2.5t-54.5 2.5q-19 0 -66 -2t-64 -2q-9 0 -9 8q0 7 8 7q65 9 65 46q0 33 -8 91l-48 357l-225 -507q-5 -12 -9 -12
q-3 0 -9 14q-132 297 -232 500l-37 -304q-9 -68 -9 -109q0 -38 23 -56t54 -21q13 -1 13 -8t-10 -7q-6 0 -52 2.5t-60 2.5q-18 0 -55.5 -2t-42.5 -2q-11 0 -11 7q0 6 11 8q49 7 61.5 32.5t27.5 135.5l48 373q13 102 17 153q0 7 7 7z" />
    <glyph glyph-name="N" unicode="N" horiz-adv-x="888" 
d="M153 725q5 0 10 -5q205 -226 538 -562l1 351q0 97 -15.5 135t-63.5 44q-14 1 -14 8q0 5 11 5q7 0 51.5 -1.5t55.5 -1.5q18 0 55 2t42 2q11 0 11 -6t-11 -8q-48 -6 -57.5 -31.5t-12.5 -141.5q-4 -315 -4 -377l1 -157q0 -10 -7 -10q-1 0 -18 17q-86 97 -266.5 288
t-270.5 279v-364q0 -116 9.5 -145.5t58.5 -35.5q14 -3 14 -7q0 -7 -11 -7q-7 0 -47.5 1.5t-51.5 1.5q-18 0 -55 -2t-42 -2q-11 0 -11 6q0 5 11 8q44 7 55.5 36.5t14.5 139.5q10 327 10 371v161q0 8 9 8z" />
    <glyph glyph-name="O" unicode="O" horiz-adv-x="837" 
d="M411 712q165 0 266 -96.5t101 -258.5q0 -167 -91.5 -266t-263.5 -99q-71 0 -133.5 20t-115.5 61t-84 114t-31 170q0 164 93 259.5t259 95.5zM406 683q-120 0 -183.5 -80.5t-63.5 -217.5q0 -180 77.5 -272t206.5 -92q100 0 165.5 83.5t65.5 221.5q0 168 -71 262.5
t-197 94.5z" />
    <glyph glyph-name="P" unicode="P" horiz-adv-x="607" 
d="M347 709q96 0 151.5 -44t55.5 -134q0 -103 -59 -162.5t-151 -59.5q-27 0 -45 6q-5 2 -5 6q0 6 6 6l12 -1q11 -2 25 -2q63 0 96.5 48t33.5 127q0 87 -47.5 132.5t-127.5 45.5q-23 0 -53 -5q-2 -18 -2 -157l1 -302q0 -133 11 -164.5t68 -38.5q21 -2 21 -8q0 -7 -15 -7
q-25 0 -69 2.5t-76 2.5q-7 0 -54 -2.5t-53 -2.5q-12 0 -12 6q0 5 12 8q26 5 36.5 11t21 16t13 42.5t4 69.5t1.5 117v254q0 74 -6 108t-19.5 46.5t-43.5 17.5q-8 1 -8 7q0 7 16 7q4 0 39 -2t57 -2q13 0 77.5 4t87.5 4z" />
    <glyph glyph-name="Q" unicode="Q" horiz-adv-x="839" 
d="M414 712q165 0 264.5 -100t99.5 -263q0 -112 -49 -198t-135 -125q37 -17 100 -53q120 -67 164 -67q18 0 35 5q7 3 12 3q4 0 4 -4q0 -6 -18 -16q-55 -30 -106 -30q-69 0 -173 63q-8 5 -30.5 19t-31 19.5t-24.5 14t-26 12t-20 4.5q-36 -4 -59 -4q-53 0 -103 12t-97.5 39.5
t-83 68.5t-57 104t-21.5 141q0 164 94 259.5t261 95.5zM410 683q-121 0 -186 -76t-65 -222q0 -171 77.5 -268t192.5 -97q107 0 176 77t69 216q0 173 -69.5 271.5t-194.5 98.5z" />
    <glyph glyph-name="R" unicode="R" horiz-adv-x="750" 
d="M329 708q93 0 150 -46t57 -120q0 -132 -103 -198q16 -11 118 -144q3 -4 23 -30.5t30 -39t30.5 -38t35.5 -39.5t33.5 -30.5t35 -24t30.5 -7.5q5 0 10 0.5t6 0.5q6 0 6 -6q0 -12 -55 -12q-72 0 -116.5 22t-84.5 78q-21 29 -62.5 88.5t-72.5 102t-46 56.5q-22 -4 -37 -4
h-17.5h-32h-28.5l1 -101q0 -129 14 -163t73 -41q10 -1 10 -8q0 -6 -15 -6q-20 0 -62 1.5t-75 1.5q-10 0 -54.5 -1.5t-49.5 -1.5q-11 0 -11 6q0 5 11 7q51 8 59.5 34.5t8.5 170.5v351q0 73 -16.5 96t-66.5 28q-9 1 -9 8q0 6 17 6q2 0 47 -2t63 -2q12 0 62.5 3.5t82.5 3.5z
M282 676q-24 0 -41 -6q-2 -21 -2 -155v-159q41 -9 94 -9q58 0 79 21q43 41 43 123q0 86 -48.5 135.5t-124.5 49.5z" />
    <glyph glyph-name="S" unicode="S" horiz-adv-x="486" 
d="M263 710q23 0 71.5 -4.5t49.5 -4.5q4 0 9 3.5t7 3.5q4 0 4 -4q0 -1 -1 -12t-1 -17q0 -8 3.5 -43t3.5 -51q0 -9 -5 -9t-6 5q-4 31 -21 53.5t-41 33t-46 15t-44 4.5q-45 0 -80.5 -29t-35.5 -83q0 -49 33.5 -84t121.5 -86q86 -50 119.5 -97t33.5 -99q0 -91 -67.5 -151
t-158.5 -60q-87 0 -153 29q-3 1 -3 4q0 4 0.5 13t0.5 14q0 10 -1.5 32t-1.5 31q0 30 3 39q2 5 6 5t4 -4q0 -1 -0.5 -6t-0.5 -8q0 -38 40.5 -78.5t116.5 -40.5q39 0 68 14t44.5 36.5t22.5 45.5t7 45q0 46 -31.5 80t-104.5 80q-92 56 -131.5 99.5t-39.5 111.5q0 69 54.5 121.5
t150.5 52.5z" />
    <glyph glyph-name="T" unicode="T" horiz-adv-x="646" 
d="M47 715q3 0 13 -2q3 0 11.5 -2t11.5 -2.5t12.5 -1.5t16.5 -2t20.5 -2t27 -1.5t34.5 -1t44 -1t54 -0.5h67q160 0 246 8q10 2 13 2q4 0 4 -5q0 -1 -1 -16t-1 -27q0 -9 -1 -35t-1 -28q0 -9 -5 -9q-6 0 -7 8q-5 38 -30.5 48.5t-84.5 12.5h-10q-74 0 -110 -1q-3 -13 -3 -37
l2 -439q0 -45 0.5 -68t4.5 -45t6.5 -29.5t14.5 -15t20.5 -8.5t31.5 -4q14 -2 14 -8q0 -7 -9 -7q-6 0 -52 2t-101 2q-6 0 -49 -2t-51 -2q-11 0 -11 7t11 8q38 7 51.5 17t20.5 43.5t7 112.5v441q0 22 -2 32q-30 1 -98 1q-35 -1 -52.5 -3t-38.5 -7.5t-31.5 -17t-15.5 -30.5
q-3 -10 -8 -10t-5 6q0 12 9 60q6 44 6 54q0 5 4 5z" />
    <glyph glyph-name="U" unicode="U" horiz-adv-x="816" 
d="M761 704q13 0 13 -6t-12 -8q-49 -7 -60 -34.5t-11 -136.5v-254q0 -74 -11.5 -117.5t-42.5 -78.5q-67 -78 -222 -78q-78 0 -138 19t-90 48q-34 34 -47.5 78.5t-13.5 137.5v245q0 82 -5 113.5t-16.5 41.5t-44.5 16q-8 1 -8 8q0 6 13 6l41 -2q40 -3 62 -3q34 0 76.5 2.5
t44.5 2.5q13 0 13 -6q0 -7 -11 -9q-35 -5 -49 -15t-21 -45t-6 -114l1 -271q0 -101 44 -155t163 -54q223 0 223 197l1 283q0 70 -7.5 105.5t-23.5 49t-48 18.5q-10 2 -10 8t13 6l43 -2q42 -1 64 -1q20 0 50 2.5t33 2.5z" />
    <glyph glyph-name="V" unicode="V" horiz-adv-x="767" 
d="M11 706q15 0 50 -2.5t55 -2.5q26 0 62 1.5t47 1.5q17 0 17 -6t-9 -8q-26 -4 -35.5 -9.5t-9.5 -18.5q0 -16 31 -88l192 -426l175 416q26 62 26 91q0 18 -9 25.5t-31 9.5q-11 1 -11 8q0 6 10 6q6 0 46 -2.5t51 -2.5q15 0 48 3t40 3q11 0 12 -7q-2 -7 -12 -8q-39 -3 -62 -29
t-61 -115l-178 -415q-11 -27 -30 -72.5t-25 -58.5q-5 -12 -9 -12t-8 10q-28 67 -63 144l-177 386q-47 103 -68 129.5t-60 32.5q-16 3 -16 10q0 6 12 6z" />
    <glyph glyph-name="W" unicode="W" horiz-adv-x="996" 
d="M968 705q10 0 10 -7q0 -5 -8 -7q-25 -3 -42 -30t-51 -112l-163 -414q-8 -22 -20 -53t-20 -51t-12 -31q-5 -12 -9 -12q-3 0 -7 10q-9 28 -28 79t-23 61l-99 268l-108 -267q-9 -23 -20 -53t-21 -56.5t-11 -29.5q-4 -12 -9 -12q-3 0 -7 10q-3 9 -55 146l-162 427
q-24 63 -41 89t-40 30q-10 2 -10 8t13 6q10 0 31.5 -1.5t33.5 -1.5q16 0 61.5 1.5t63.5 1.5q9 0 9 -5q0 -6 -10 -8q-39 -7 -39 -33q0 -20 22 -84l154 -411l124 302l-39 106q-26 70 -42 92.5t-47 26.5q-14 2 -14 9q0 5 7 5q15 0 37 -1.5t45 -1.5q18 0 69.5 1.5t74.5 1.5
q6 0 6 -6t-12 -7q-52 -7 -52 -33q0 -20 22 -84l149 -408l136 348q39 97 39 135q0 37 -47 42q-12 1 -12 8q0 5 9 5q5 0 36 -2.5t42 -2.5q15 0 48.5 3t37.5 3z" />
    <glyph glyph-name="X" unicode="X" horiz-adv-x="652" 
d="M597 705q11 0 11 -7q0 -5 -11 -7q-39 -4 -59 -25t-70 -106l-108 -185l112 -193q67 -111 94 -139.5t66 -34.5q11 -3 11 -8q0 -6 -8 -6q-19 0 -58.5 2.5t-60.5 2.5q-16 0 -62 -2t-64 -2q-10 0 -10 6q0 5 8 7q50 7 50 28q0 22 -50 113l-83 149l-70 -119q-70 -116 -70 -142
q0 -15 11 -21t35 -8q11 -1 11 -7t-10 -6q-6 0 -41.5 2.5t-49.5 2.5q-17 0 -54.5 -3t-40.5 -3q-11 0 -11 7q0 5 11 7q38 4 61.5 30t79.5 116l113 188l-123 209q-28 49 -37 64t-26 36t-30 27t-35 10q-9 2 -9 8t11 6q15 0 52 -1t57 -1q14 0 52.5 1t57.5 1q8 0 8 -6q0 -4 -9 -6
q-24 -4 -32.5 -10.5t-8.5 -21.5q0 -26 47 -105l80 -134l76 130q43 73 43 110q0 25 -40 31q-11 1 -11 7t10 6q6 0 43.5 -2t48.5 -2q17 0 52 3t40 3z" />
    <glyph glyph-name="Y" unicode="Y" horiz-adv-x="682" 
d="M95 706q64 0 88 -31q11 -12 41 -61.5t76.5 -130t66.5 -113.5q101 190 130 239q34 55 57.5 75.5t62.5 20.5q33 0 58 -10q8 -3 8 -7q0 -6 -4 -6q-1 0 -8 1.5t-12 1.5q-9 0 -18 -1.5t-18 -7t-15 -9t-15 -13t-13.5 -13.5t-14 -17t-12 -17t-13 -19.5t-12.5 -18.5
q-34 -50 -74.5 -122.5t-53.5 -100.5q-8 -13 -8 -47l1 -182q0 -60 12 -78.5t62 -26.5q14 -2 14 -7q0 -7 -9 -7q-29 0 -69.5 1t-64.5 1q-8 0 -58 -2t-52 -2q-11 0 -11 6q0 7 11 8q31 4 44 10.5t21.5 30.5t8.5 74v171q0 16 -10 37q-24 52 -86.5 149.5t-111.5 162.5
q-29 38 -65 38q-8 0 -16 -2l-8 -2q-5 0 -5 8q0 4 11.5 8.5t34 7.5t49.5 3z" />
    <glyph glyph-name="Z" unicode="Z" horiz-adv-x="760" 
d="M672 705q7 0 7 -4t-12 -17q-7 -7 -71 -84t-136.5 -163.5t-85.5 -102.5q-139 -167 -188 -233q-8 -10 -8 -14q0 -5 12 -6q68 -7 237 -7q112 0 173.5 11t79.5 25.5t29 42.5q6 15 10 15q7 0 7 -6q0 -3 -2 -10t-2 -8q-4 -12 -22.5 -55.5t-26.5 -72.5q-6 -20 -9 -20l-19 1
q-59 3 -384 3q-73 0 -138.5 -1.5t-68.5 -1.5q-7 0 -7 6t111 139.5t166 197.5l234 284q-85 3 -215 3q-119 0 -214 -9q-29 -3 -40 -15t-16 -35q-2 -11 -7 -11q-6 0 -6 9q0 4 12 68l15 65q1 4 6 4q3 0 8 -0.5t7 -0.5q21 -1 302 -1z" />
    <glyph glyph-name="bracketleft" unicode="[" horiz-adv-x="360" 
d="M312 750q13 0 13 -10t-19 -10q-9 0 -21 0.5t-17 0.5q-41 -1 -55 -17q-20 -23 -20 -117v-529q0 -74 18 -93q17 -18 101 -18q23 0 23 -10q0 -8 -17 -8q-12 0 -79.5 1.5t-117.5 1.5q-17 0 -17 17q0 4 2.5 33t2.5 41v605q0 27 -1 55.5t-1 33.5q0 11 4.5 14.5t17.5 3.5
q43 0 110.5 2.5t72.5 2.5z" />
    <glyph glyph-name="backslash" unicode="\" horiz-adv-x="450" 
d="M42 782q6 0 10 -9l365 -830q13 -27 13 -32q0 -3 -9 -7t-14 -4q-6 0 -9 8l-365 830q-13 31 -13 32q0 4 8 8t14 4z" />
    <glyph glyph-name="bracketright" unicode="]" horiz-adv-x="355" 
d="M44 750q5 0 72 -2.5t110 -2.5q12 0 17 -3.5t5 -14.5q0 -5 -1 -33.5t-1 -55.5v-605q0 -12 2.5 -41t2.5 -33q0 -17 -17 -17q-50 0 -117.5 -1.5t-79.5 -1.5q-17 0 -17 8q0 10 24 10q83 0 100 18q18 21 18 93v529q0 93 -18 116q-14 16 -57 18q-5 0 -17 -0.5t-20 -0.5
q-20 0 -20 10t14 10z" />
    <glyph glyph-name="asciicircum" unicode="^" horiz-adv-x="450" 
d="M233 720q6 0 12 -10l164 -307q7 -13 7 -19q0 -5 -6.5 -8.5t-11.5 -3.5q-6 0 -12 10l-162 305l-158 -304q-6 -10 -11 -10q-4 0 -12.5 5t-8.5 10q0 6 5 16l163 306q6 10 13 10h18z" />
    <glyph glyph-name="underscore" unicode="_" horiz-adv-x="499" 
d="M494 -108q6 0 8 -2.5t2 -11.5q0 -14 -12 -14h-486q-7 0 -9 2.5t-2 11.5q0 13 12 13z" />
    <glyph glyph-name="grave" unicode="`" 
d="M-50 729q4 0 22 -13.5t51 -38t59 -42.5q7 -5 7 -6q0 -3 -5 -7t-12 -4q-12 0 -87 34.5t-75 42.5q0 9 16 22q15 12 24 12z" />
    <glyph glyph-name="a" unicode="a" horiz-adv-x="623" 
d="M319 565q6 0 10 -9l39 -94l130 -312q33 -80 53.5 -107t52.5 -33q14 -3 14 -9q0 -5 -6 -5q-4 0 -49 2t-73 2q-12 0 -47 -1.5t-48 -1.5q-7 0 -7 6q0 5 11 7q42 7 42 31q0 21 -15 57l-42 105l-192 -1l-44 -97q-16 -34 -16 -58q0 -32 41 -36q11 -1 11 -7t-9 -6q-6 0 -39 2
t-44 2q-15 0 -46 -2t-36 -2q-9 0 -9 5t10 7q30 4 50 31t58 107l142 300q35 74 48 106q6 11 10 11zM294 429l-86 -192l163 2z" />
    <glyph glyph-name="b" unicode="b" horiz-adv-x="527" 
d="M238 561q168 0 175 -128q0 -45 -25 -81t-66 -55v-1q67 -8 114.5 -46t47.5 -96q0 -71 -53 -114.5t-141 -44.5q-18 -1 -74 2.5t-76 3.5q-19 0 -52 -1l-34 -2q-9 0 -9 6t10 7q43 8 51 44t8 220v140q0 90 -8 108.5t-52 22.5q-9 2 -9 8t9 6q2 0 14 -0.5t31.5 -1t40.5 -0.5
q11 0 47.5 1.5t50.5 1.5zM233 531q-17 0 -29 -2q-5 -26 -5 -116v-94q0 -7 4.5 -9t16.5 -4q22 -2 60 -2q22 0 39 24t17 74q0 40 -12 68t-30 40t-33 16.5t-28 4.5zM241 273h-37q-5 0 -5 -5v-99q0 -103 10 -124q12 -27 77 -27q109 0 109 121q0 61 -43.5 97.5t-110.5 36.5z" />
    <glyph glyph-name="c" unicode="c" horiz-adv-x="619" 
d="M366 567q36 0 100 -11q15 -3 35 -6.5t30 -5.5t14 -2q7 0 13 4.5t7 4.5q7 0 7 -5q0 -1 -1.5 -13.5t-1.5 -17.5q-2 -19 -2 -75q0 -8 -6 -8q-4 0 -7 10q-12 42 -76 69.5t-120 27.5q-106 0 -158 -61t-52 -169q0 -130 73 -209t173 -79q72 0 113.5 25.5t53.5 66.5q3 8 7 8
q5 0 5 -4q0 -30 -12 -73q-5 -18 -7.5 -22.5t-9.5 -7.5q-22 -7 -55 -13q-50 -10 -116 -10q-64 0 -119 15.5t-101.5 48t-73 91.5t-26.5 139q0 130 84 206t229 76z" />
    <glyph glyph-name="d" unicode="d" horiz-adv-x="702" 
d="M349 566q149 0 224.5 -74t75.5 -191q0 -135 -88 -220.5t-253 -85.5q-35 0 -95.5 3t-71.5 3q-19 0 -53 -1l-33 -2q-9 0 -9 7q0 6 10 7q43 6 51 42t8 221v140q0 42 -1 59t-3 34.5t-10 22.5t-17 8.5t-30 6.5q-8 2 -8 7q0 7 11 7q2 0 33.5 -1t50.5 -1q10 0 100.5 4t107.5 4z
M310 534q-45 0 -101 -8q-5 -34 -5 -137v-219q0 -97 10 -121q8 -14 41.5 -20t58.5 -6q118 0 176 65.5t58 187.5q0 116 -60.5 187t-177.5 71z" />
    <glyph glyph-name="e" unicode="e" horiz-adv-x="460" 
d="M390 567q4 0 4 -4l-1 -13q-1 -14 -1 -20l-1 -39q0 -8 -4 -8q-6 0 -7 7q-4 18 -22 27.5t-34 11t-45 2.5q-40 1 -75 -3q-2 -26 -2 -116v-108h84q46 0 62 5.5t21 22.5l3 12q3 7 6 7q5 0 5 -6q0 -1 -1.5 -12t-2.5 -26t-1 -27q0 -11 0.5 -33t0.5 -25q0 -5 -5 -5t-5 5
q-3 35 -17 43t-61 8l-89 1l1 -104q0 -77 8 -109q6 -28 84 -28q47 0 68.5 8t33.5 27q5 8 8 8q6 0 6 -5q0 -4 -3 -10t-10 -27l-10 -31q-2 -6 -6 -6l-8 1h-17q-108 3 -183 3q-20 0 -69.5 -1.5t-50.5 -1.5q-8 0 -8 6t10 7q36 6 44 17q14 18 15 115v69v203q0 40 -1 60t-3 36.5
t-8.5 22t-14.5 8.5t-24 5q-9 1 -9 7t10 6h22.5t48 -0.5t44.5 -0.5q82 0 192 5q5 1 9.5 1.5t6 1t2.5 0.5z" />
    <glyph glyph-name="f" unicode="f" horiz-adv-x="432" 
d="M390 567q4 0 4 -4q0 -1 -1 -14t-1 -22l2 -43q0 -9 -6 -9q-5 0 -6 8q-4 30 -26.5 38.5t-76.5 9.5q-51 2 -75 -4q-3 -25 -3 -115v-112h67q47 0 60 3.5t17 17.5q4 7 5 14q3 8 6 8q6 0 6 -6l-2 -19q-2 -20 -2 -34q0 -10 1 -33.5t1 -25.5q0 -6 -5 -6t-6 6q-4 29 -18 36.5
t-58 7.5h-72l1 -99q0 -97 10 -125t51 -35q17 -3 17 -7q0 -6 -8 -6q-12 0 -56.5 1.5t-66.5 1.5q-10 0 -46.5 -1t-39.5 -1q-8 0 -8 6q0 5 10 7q37 7 43.5 33.5t6.5 167.5v203q0 41 -1 61.5t-3 36.5t-9.5 21.5t-14 7.5t-24.5 5q-9 1 -9 6q0 7 11 7l105 -1q166 0 212 7
q2 0 4.5 0.5t3.5 0.5z" />
    <glyph glyph-name="g" unicode="g" horiz-adv-x="670" 
d="M360 567q52 0 124 -13q60 -11 76 -11q6 0 11.5 4.5t6.5 4.5q6 0 6 -5q0 -1 -1.5 -12t-1.5 -17q-2 -30 -2 -76q0 -7 -5 -7t-8 10q-15 46 -79 71t-134 25q-101 0 -152.5 -61.5t-51.5 -170.5q0 -132 69 -210t164 -78q54 0 96 16q7 19 7 94q0 78 -9.5 99.5t-52.5 21.5h-3
q-6 0 -6 6q0 8 18 8q10 0 39.5 -1t44.5 -1q24 0 60 1.5t41 1.5q8 0 8 -6q0 -7 -8 -8q-28 -4 -35 -12.5t-7 -45.5l-1 -143v-20q0 -15 -17 -18q-4 -1 -33.5 -5.5t-61.5 -9.5q-53 -8 -95 -8q-143 0 -228.5 75t-85.5 219q0 130 82 206t225 76z" />
    <glyph glyph-name="h" unicode="h" horiz-adv-x="730" 
d="M670 563q11 0 11 -6q0 -5 -10 -7q-40 -7 -49 -29t-9 -108v-201q0 -99 4 -135t14.5 -49t41.5 -18q9 -1 9 -8q0 -5 -10 -5q-6 0 -37.5 1.5t-38.5 1.5q-40 0 -83.5 -1.5t-57.5 -1.5q-11 0 -11 6q0 5 11 6q49 8 60.5 37.5t10.5 123.5v95q-61 5 -174 5q-105 0 -149 -6l1 -97
q1 -98 10 -123.5t54 -33.5q14 -1 14 -8q0 -5 -8 -5q-25 0 -65 1.5t-70 1.5q-6 0 -42 -1.5t-40 -1.5q-9 0 -9 5t10 8q42 10 50 37.5t8 168.5v199q0 90 -8 109t-47 24q-11 2 -11 7q0 8 12 8l36 -2q35 -2 51 -2q18 0 44.5 1t47 2t22.5 1q11 0 11 -6q0 -7 -9 -8q-40 -4 -51 -27
t-11 -110v-101q73 -7 148 -7q117 0 175 6l1 102q0 83 -10.5 107t-47.5 29q-9 2 -9 7q0 7 11 7q7 0 45 -1.5t62 -1.5q23 0 55.5 2t36.5 2z" />
    <glyph glyph-name="i" unicode="i" horiz-adv-x="323" 
d="M61 563q3 0 37 -2t47 -2q15 0 60 1t52 1q11 0 11 -5q0 -6 -9 -7q-19 -3 -27.5 -6.5t-16 -9.5t-9.5 -22.5t-3 -37t-1 -61.5l1 -241q1 -102 10 -128t54 -32q13 -1 13 -8q0 -6 -9 -6q-25 0 -63 1.5t-58 1.5q-5 0 -47 -1.5t-49 -1.5q-9 0 -9 5q0 4 9 7q29 6 39.5 17.5t16 51
t5.5 134.5v195q0 42 -1 62.5t-3.5 38.5t-9.5 24.5t-16 10.5t-26 7q-9 2 -9 7q0 6 11 6z" />
    <glyph glyph-name="j" unicode="j" horiz-adv-x="351" 
d="M110 563q4 0 46 -2t62 -2q13 0 47.5 1t37.5 1q10 0 10 -7q0 -5 -7 -6q-27 -4 -36 -12t-13 -32.5t-3 -91.5l1 -145q0 -7 1 -64t1 -77q0 -40 -33 -73q-27 -27 -71 -49q-31 -17 -64 -17q-32 0 -57 15q-6 4 -6 7t1 6.5t2.5 9.5t2.5 11q10 63 10 64q2 9 7 9q7 0 7 -4l-2 -8
q-1 -8 -1 -13q0 -16 11 -31q22 -28 59 -28q27 0 35.5 40t8.5 147v233q0 65 -10 82.5t-49 22.5q-8 1 -8 7t10 6z" />
    <glyph glyph-name="k" unicode="k" horiz-adv-x="630" 
d="M255 563q10 0 10 -7q0 -6 -7 -7q-26 -5 -36 -12t-15.5 -34.5t-5.5 -89.5v-125l201 186q44 43 44 60q0 12 -24 14q-11 1 -11 7t8 6q6 0 41 -1.5t45 -1.5q15 0 51 2t40 2q10 0 10 -6q0 -8 -10 -8q-43 -4 -66 -17t-77 -63l-175 -159l223 -227q38 -39 57.5 -51t51.5 -20
l16 -2q6 0 6 -5t-4 -6q-8 -2 -22 -2q-7 0 -47.5 1t-49.5 1q-5 0 -20 -1t-18 -1q-5 0 -10 6l-260 272v-107q0 -103 10.5 -127t60.5 -30q14 -1 14 -8q0 -5 -8 -5q-14 0 -54 1.5t-71 1.5q-12 0 -51 -1.5t-49 -1.5q-7 0 -7 5q0 7 9 8q43 5 51 32t8 170v204q0 62 -6 88.5
t-15.5 33t-38.5 11.5q-9 1 -9 7q0 7 11 7q1 0 34.5 -2t60.5 -2q26 0 50.5 1t38.5 2t15 1z" />
    <glyph glyph-name="l" unicode="l" horiz-adv-x="475" 
d="M265 561q11 0 11 -6q0 -5 -9 -7q-32 -3 -44 -12t-17.5 -39.5t-4.5 -106.5v-187q0 -119 11 -155q3 -10 20.5 -12.5t71.5 -2.5q61 0 89 11t40 40q4 9 7 9q7 0 7 -4l-3 -12q-3 -6 -13 -36q-3 -8 -5.5 -16.5t-4.5 -14.5t-2 -7q-3 -8 -7 -8l-17 1q-152 4 -204 4
q-14 0 -47.5 -1t-61 -2t-28.5 -1q-9 0 -9 5q0 7 9 8q21 3 29 6.5t16.5 10t10.5 29t3 48t1 82.5v230q0 63 -5 89t-14 33t-35 10q-9 1 -9 7t11 6h6h14t20 -0.5t25.5 -0.5h28.5q35 0 71 1t38 1z" />
    <glyph glyph-name="m" unicode="m" horiz-adv-x="796" 
d="M157 569q8 0 12 -8q88 -179 237 -436l213 435q3 7 8 7q8 0 9 -5q0 -15 15 -110l48 -307q12 -82 26 -105.5t47 -29.5q14 -3 14 -9q0 -5 -11 -5t-43.5 1.5t-52.5 1.5q-17 0 -56.5 -1.5t-53.5 -1.5q-9 0 -9 6t10 7q52 8 52 37t-6 71l-38 268l-189 -388q-6 -9 -9 -9t-8 11
q-73 148 -200 376l-24 -218q-6 -47 -6 -81q0 -60 63 -67q10 -1 10 -6q0 -6 -8 -6q-5 0 -45.5 2t-53.5 2q-15 0 -47 -2t-36 -2q-9 0 -9 6q0 5 9 7q42 4 53 23.5t22 110.5l36 291q11 80 14 127q0 7 7 7z" />
    <glyph glyph-name="n" unicode="n" horiz-adv-x="732" 
d="M123 580q4 0 11 -6q127 -129 449 -432l1 267q0 75 -13 104t-53 35q-12 3 -12 8t9 5q6 0 43 -1.5t46 -1.5q15 0 46.5 2t35.5 2q9 0 9 -6q0 -4 -9 -6q-41 -5 -49 -25.5t-10 -112.5q-3 -252 -3 -302v-125q0 -8 -5 -8q-2 0 -26 24q-62 64 -212.5 210t-227.5 216v-276
q0 -91 7.5 -114.5t47.5 -27.5q11 -1 11 -6q0 -6 -8 -6q-6 0 -40 1t-43 1q-15 0 -46.5 -1.5t-35.5 -1.5q-9 0 -9 5q0 4 9 7q38 8 47.5 30.5t11.5 109.5q8 262 8 297v128q0 7 10 7z" />
    <glyph glyph-name="o" unicode="o" horiz-adv-x="711" 
d="M350 569q139 0 223.5 -77t84.5 -207q0 -133 -77 -212.5t-221 -79.5q-60 0 -113 16t-97.5 49t-70.5 91.5t-26 135.5q0 132 78.5 208t218.5 76zM345 540q-94 0 -144.5 -63t-50.5 -170q0 -141 62 -213.5t165 -72.5q78 0 130 65.5t52 173.5q0 132 -57 206t-157 74z" />
    <glyph glyph-name="p" unicode="p" horiz-adv-x="506" 
d="M292 566q83 0 131 -35t48 -106q0 -82 -51.5 -131.5t-127.5 -49.5q-24 0 -38 4q-8 4 -8 9t5 5l11 -1q10 -1 21 -1q49 0 75.5 38t26.5 101q0 68 -38 102.5t-101 34.5q-9 0 -42 -3q-2 -15 -2 -121l1 -242q1 -106 10.5 -130.5t58.5 -30.5q13 -1 13 -7t-12 -6q-17 0 -56.5 2
t-72.5 2q-6 0 -46 -2t-44 -2q-10 0 -10 6q0 5 9 6q46 8 54.5 35.5t8.5 168.5v203q0 84 -10 107t-46 28q-9 2 -9 7q0 7 13 7q2 0 32.5 -1.5t51.5 -1.5q12 0 69 2.5t75 2.5z" />
    <glyph glyph-name="q" unicode="q" horiz-adv-x="713" 
d="M352 569q139 0 222.5 -80t83.5 -210q0 -90 -40.5 -158t-111.5 -100q17 -7 87 -43q97 -54 139 -54q12 0 27 5q10 4 11 4q5 0 5 -6t-16 -16q-47 -26 -104 -26q-58 0 -148 56q-86 53 -110 55q-18 -3 -39 -3q-57 0 -108.5 16t-97 49t-72.5 91.5t-27 135.5q0 131 79.5 207.5
t219.5 76.5zM349 540q-97 0 -148 -59t-51 -173q0 -136 61 -211.5t154 -75.5q84 0 138.5 60.5t54.5 168.5q0 136 -55 213t-154 77z" />
    <glyph glyph-name="r" unicode="r" horiz-adv-x="632" 
d="M273 565q79 0 128 -37t49 -100q0 -99 -88 -155q20 -15 100 -115q29 -36 42.5 -52.5t43 -49t52 -47.5t40.5 -15q4 0 8 0.5t5 0.5q6 0 6 -6q0 -11 -64 -11q-50 0 -88 18t-72 62q-18 22 -52.5 69t-60 80t-38.5 44q-22 -3 -83 -3l1 -76q0 -102 11.5 -128t61.5 -34
q10 -2 10 -6q0 -7 -13 -7q-11 0 -50.5 1.5t-73.5 1.5q-10 0 -47.5 -1.5t-40.5 -1.5q-9 0 -9 7q0 4 9 5q41 7 48 28t7 135v280q0 58 -13.5 75.5t-54.5 22.5q-7 1 -7 7t13 6q1 0 39 -1.5t55 -1.5q11 0 56 2.5t70 2.5zM237 535q-21 0 -34 -4q-2 -26 -2 -120v-126q36 -6 72 -6
q46 0 64 17q34 32 34 96q0 68 -37 105.5t-97 37.5z" />
    <glyph glyph-name="s" unicode="s" horiz-adv-x="420" 
d="M182 -5q-83 0 -131 22q-3 1 -3 5q0 3 0.5 10.5t0.5 11.5q0 7 -1 26.5t-1 27.5q0 19 3 31q1 5 6 5t5 -4l-1 -5v-8q0 -29 33.5 -62.5t97.5 -33.5q59 -1 87.5 34t28.5 75q0 35 -25.5 60t-88.5 65q-77 48 -110 84t-33 90q0 56 45 97.5t132 41.5q15 0 39 -2t42 -4t20 -2
q4 0 8.5 3.5t6.5 3.5q5 0 5 -4q0 -1 -1 -9.5t-1 -13.5q0 -11 2.5 -42.5t2.5 -40.5q0 -8 -5 -8q-6 0 -7 8q-7 47 -44.5 67.5t-80.5 20.5q-37 0 -66 -22.5t-29 -65.5q0 -38 26.5 -63t102.5 -71q73 -43 100.5 -80.5t27.5 -82.5q0 -71 -55 -118t-139 -47z" />
    <glyph glyph-name="t" unicode="t" horiz-adv-x="556" 
d="M41 572q1 0 11 -2q68 -11 261 -11q101 0 203 6q3 0 6 0.5t4.5 1t2.5 0.5q4 0 4 -4l-1 -13q-1 -13 -1 -23l-1 -59q0 -8 -6 -8q-5 0 -6 8q-5 33 -28 43t-75 12q-64 0 -92 -1q-2 -8 -2 -34l1 -343q0 -42 2 -62.5t4 -36.5t11.5 -21.5t18 -8t30.5 -5.5q11 -2 11 -8t-7 -6
t-55 1.5t-84 1.5q-5 0 -41 -1.5t-43 -1.5q-9 0 -9 6t8 7q32 5 43.5 13t17.5 34.5t6 89.5v339q0 28 -2 36q-25 1 -81 1q-53 -2 -80 -13t-36 -41q-2 -8 -7 -8q-4 0 -4 6q0 11 7 56q6 36 6 44q0 5 3 5z" />
    <glyph glyph-name="u" unicode="u" horiz-adv-x="672" 
d="M632 562q11 0 11 -6t-10 -8q-29 -5 -40 -15t-14.5 -33.5t-3.5 -85.5v-199q0 -108 -47 -159q-62 -64 -189 -64q-129 0 -187 54q-29 26 -41.5 64t-12.5 108v196q0 91 -7.5 110.5t-44.5 24.5q-8 2 -8 7q0 6 11 6q1 0 16 -1t35.5 -2t35.5 -1q34 0 72 2l38 2q11 0 11 -6
q0 -8 -9 -8q-41 -2 -53 -25t-11 -112l1 -200q1 -86 36 -132t129 -46q180 0 180 164l1 214q1 80 -12.5 105.5t-51.5 30.5q-10 1 -10 7q0 7 11 7q2 0 18 -0.5t38.5 -1.5t39.5 -1q18 0 42 2t26 2z" />
    <glyph glyph-name="v" unicode="v" horiz-adv-x="644" 
d="M9 564q12 0 41.5 -2t46.5 -2q27 0 62 1t40 1q15 0 15 -7q0 -5 -9 -7q-22 -4 -29.5 -8t-7.5 -13q0 -17 26 -69l152 -325l141 313q24 58 24 77q0 13 -7 18t-26 7q-10 1 -10 7q0 7 9 7q2 0 38 -2t46 -2q13 0 40 2.5t33 2.5q10 0 10 -7q0 -6 -10 -7q-32 -4 -51.5 -24.5
t-50.5 -88.5l-153 -333q-10 -22 -25.5 -58.5t-19.5 -45.5q-5 -10 -9 -10t-8 8q-10 24 -53 116l-145 308q-39 81 -57 101.5t-50 25.5q-13 3 -13 9q0 7 10 7z" />
    <glyph glyph-name="w" unicode="w" horiz-adv-x="841" 
d="M822 563q9 0 9 -7q0 -6 -9 -7q-20 -2 -34 -22.5t-42 -86.5l-137 -335q-41 -100 -44 -106q-4 -10 -8 -10t-7 8q-4 10 -42 112l-84 213l-89 -212q-18 -44 -44 -111q-3 -10 -8 -10q-4 0 -7 8l-50 124l-137 335q-20 49 -34.5 68t-36.5 24q-9 2 -9 8t11 6q9 0 37 -1t38 -1
q14 0 48 1.5t46 1.5q13 0 13 -7q0 -5 -9 -7q-33 -5 -33 -24q0 -18 19 -67l127 -316l98 230l-34 84q-22 55 -35 71.5t-39 20.5q-13 2 -13 9q0 5 8 5q12 0 37 -1t45 -1q16 0 56 1t56 1q12 0 12 -6t-10 -7q-26 -4 -35.5 -8.5t-9.5 -15.5q0 -21 18 -67l123 -315l108 267
q32 81 32 108q0 25 -40 30q-11 1 -11 8q0 6 8 6q5 0 32 -2t37 -2q12 0 41 2.5t32 2.5z" />
    <glyph glyph-name="x" unicode="x" horiz-adv-x="559" 
d="M509 564q10 0 10 -6t-10 -8q-33 -4 -49.5 -20t-58.5 -83l-90 -145l96 -157q56 -89 77.5 -111t55.5 -27q9 -2 9 -7q0 -6 -9 -6q-14 0 -49 2.5t-53 2.5q-14 0 -54 -1.5t-53 -1.5q-12 0 -12 5t8 7q23 3 32 7t9 14q0 19 -42 89l-67 115l-57 -91q-58 -92 -58 -111
q0 -20 38 -23q11 -2 11 -8q0 -4 -10 -4q-5 0 -36.5 2t-43.5 2q-15 0 -46.5 -2.5t-33.5 -2.5q-10 0 -10 6q0 5 10 7q31 3 52 24t66 91l94 149l-106 174q-36 58 -53.5 75.5t-47.5 24.5q-11 2 -11 9q0 6 10 6q12 0 43 -0.5t48 -0.5l100 1q7 0 7 -6q0 -5 -8 -7q-21 -4 -27.5 -8
t-6.5 -14q0 -18 40 -81l66 -107l61 100q36 57 36 85q0 21 -33 25q-10 1 -10 8q0 6 9 6q5 0 38 -1.5t42 -1.5q14 0 43.5 2.5t33.5 2.5z" />
    <glyph glyph-name="y" unicode="y" horiz-adv-x="580" 
d="M88 565q52 0 75 -26q10 -11 32.5 -47t65.5 -109t52 -89q10 24 49 94.5t58 100.5q26 43 48 59t56 16q24 0 50 -8q7 -1 7 -6q0 -6 -5 -6h-6q-6 1 -11 1q-31 0 -54.5 -22.5t-54.5 -67.5q-27 -39 -60.5 -100t-41.5 -80q-10 -20 -10 -39l1 -142q0 -44 10 -60t51 -22
q12 -2 12 -7q0 -7 -8 -7q-23 0 -58.5 1t-53.5 1q-10 0 -52.5 -1.5t-49.5 -1.5q-8 0 -8 6t9 7q37 5 49 19.5t12 70.5v124q0 14 -10 34q-22 45 -74 126.5t-93 130.5q-24 28 -50 28q-5 0 -11.5 -1.5t-7.5 -1.5q-6 0 -6 7q0 4 11 8t31.5 7t45.5 3z" />
    <glyph glyph-name="z" unicode="z" horiz-adv-x="632" 
d="M558 564q6 0 6 -5q0 -6 -11 -17q-156 -172 -239 -268q-116 -136 -152 -185q-6 -6 -6 -11q0 -3 9 -4q52 -5 191 -5q93 0 142.5 7.5t64.5 18.5t24 33q7 13 10 13q6 0 6 -7t-4 -15q-2 -5 -17 -42t-23 -64q-5 -16 -8 -16q-1 0 -10.5 1t-15.5 1q-2 0 -101 0.5t-210 0.5
q-62 0 -116 -1l-54 -1q-9 0 -9 6t229 268l188 216q-71 3 -178 3q-90 0 -167 -7q-25 -3 -35 -12.5t-13 -27.5q-1 -9 -7 -9t-6 8q0 6 11 54l12 61q1 4 6 4l14 -1h250z" />
    <glyph glyph-name="braceleft" unicode="{" horiz-adv-x="355" 
d="M290 750q15 0 15 -9q0 -12 -11 -12q-9 0 -20 0.5t-18 0.5q-75 0 -75 -134q0 -44 13 -118.5t13 -99.5q0 -43 -57 -61q57 -18 57 -61q0 -21 -14 -96.5t-12 -121.5q0 -134 75 -134q7 0 18 0.5t20 0.5q11 0 11 -12q0 -9 -15 -9q-92 0 -141 39q-52 46 -52 134q0 37 17.5 119
t17.5 96q0 20 -8 28t-28 8q-5 0 -20 -2.5t-18 -2.5q-10 0 -10 14t10 14q3 0 19 -2.5t21 -2.5q18 0 26 8t8 29q0 14 -17.5 97t-17.5 117q0 88 52 134q49 39 141 39z" />
    <glyph glyph-name="bar" unicode="|" horiz-adv-x="444" 
d="M222 750q15 0 15 -12v-974q0 -7 -2.5 -9t-11.5 -2t-12 2.5t-3 9.5l-1 975q0 6 2.5 8t12.5 2z" />
    <glyph glyph-name="braceright" unicode="}" horiz-adv-x="355" 
d="M65 750q92 0 141 -39q52 -46 52 -134q0 -34 -17.5 -117t-17.5 -97q0 -21 8 -29t26 -8q5 0 21 2.5t19 2.5q10 0 10 -14t-10 -14q-3 0 -18 2.5t-20 2.5q-20 0 -28 -8t-8 -28q0 -14 17.5 -96t17.5 -119q0 -88 -52 -134q-49 -39 -141 -39q-15 0 -15 9q0 12 11 12q9 0 20 -0.5
t18 -0.5q75 0 75 134q2 46 -12 121.5t-14 96.5q0 43 57 61q-57 18 -57 61q0 25 13 99.5t13 118.5q0 134 -75 134q-7 0 -18 -0.5t-20 -0.5q-11 0 -11 12q0 9 15 9z" />
    <glyph glyph-name="asciitilde" unicode="~" horiz-adv-x="517" 
d="M451 339q4 0 9 -6.5t5 -9.5t-5 -8q-45 -45 -107 -45q-42 0 -102 17q-45 14 -82 14q-45 0 -80 -31q-11 -11 -16 -11q-4 0 -9 6.5t-5 9.5t5 8q45 45 107 45q42 0 102 -17q45 -14 82 -14q45 0 80 31q11 11 16 11z" />
    <glyph glyph-name="uni00A0" unicode="&#xa0;" 
 />
    <glyph glyph-name="exclamdown" unicode="&#xa1;" horiz-adv-x="365" 
d="M183 681q4 0 6 -5q6 -13 14 -24q27 -32 34 -35q4 -1 4 -5q0 -5 -5 -6q-14 -3 -35 -15q-30 -16 -38 -27q-4 -5 -7 -5q-4 0 -5 4q-4 9 -26 39q-15 18 -21 20q-4 1 -4 5q0 5 5 6q11 3 49 25q18 11 22 16q5 7 7 7zM168 470q6 0 8 -2.5t3 -12.5l25 -260q9 -84 16 -119.5
t13 -44.5t20 -13q6 -2 6 -7q0 -7 -8 -7q-14 0 -62 -6q-16 -2 -30.5 -3.5t-21 -2.5t-8.5 -1q-7 0 -7 7q0 2 1 12t4.5 49t7.5 99l22 294q2 13 3 15.5t8 2.5z" />
    <glyph glyph-name="cent" unicode="&#xa2;" horiz-adv-x="493" 
d="M419 600q6 0 6 -4q0 -1 -1 -10.5t-1 -13.5q-2 -36 -2 -61q0 -7 -5 -7t-6 7q-6 38 -46.5 60t-74.5 22v-367q6 -1 19 -1q82 0 102 76q2 6 7 6q4 0 4 -3q0 -13 -10 -57q-5 -21 -14 -28q-46 -18 -102 -18h-6v-87q0 -7 -2.5 -9t-11.5 -2t-11 2.5t-2 9.5v88q-85 9 -137.5 61
t-52.5 143q0 87 50 141.5t139 63.5v72q0 6 2.5 8t11.5 2q14 0 14 -12v-68h6q21 0 66 -10q42 -10 45 -10q4 0 8 3t5 3zM262 232l-1 359q-63 -8 -95 -51.5t-32 -112.5q0 -75 36 -127t92 -68z" />
    <glyph glyph-name="sterling" unicode="&#xa3;" horiz-adv-x="564" 
d="M518 161q7 0 7 -7t-3 -16t-22 -55.5t-24 -66.5q-6 -20 -9 -20l-19 1q-59 3 -259 3q-8 0 -71 -1.5t-76 -1.5q-6 0 -6 6q0 4 10 10q69 43 89.5 90t21.5 147h-81q-7 0 -9 2t-2 9q0 13 12 13h80q-2 44 -4 66h-58q-7 0 -9 2.5t-2 10.5q0 12 12 12h55q-11 106 -11 146
q0 76 56 124.5t140 48.5q32 0 60 -5q8 -1 22 -3.5t19 -2.5q7 0 11 4t8 4q5 0 5 -7q0 -36 1 -43q2 -24 5 -42.5t5 -26.5t2 -10q0 -5 -6 -5q-5 0 -11 16q-12 37 -32 59q-32 35 -93 35q-47 0 -77.5 -31t-30.5 -91q0 -19 12 -170l158 1q10 0 10 -12q0 -14 -12 -14h-154
q3 -32 3 -65h134q6 0 8 -2.5t2 -10.5q0 -12 -12 -12h-132q-3 -69 -28 -111.5t-76 -80.5q71 3 157 3q78 0 125 12.5t64 29t26 43.5q5 15 9 15z" />
    <glyph glyph-name="currency" unicode="&#xa4;" horiz-adv-x="450" 
d="M335 170l44 -45q4 -4 4 -8t-5 -9q-6 -6 -10 -6t-8 4l-44 44q-39 -34 -91 -34q-53 0 -93 35l-45 -45q-4 -4 -8 -4t-10 6q-5 5 -5 9t4 8l46 47q-28 36 -28 83q0 52 34 91l-52 52q-4 4 -4 9q0 3 6 9t11 6q3 0 6 -3l53 -53q40 28 85 28q47 0 83 -28l52 53q3 3 6 3q5 0 11 -6
t6 -9q0 -5 -4 -9l-50 -50q35 -40 35 -93q0 -48 -29 -85zM225 144q47 0 79 32t32 79t-32 79t-79 32t-79 -32t-32 -79t32 -79t79 -32z" />
    <glyph glyph-name="yen" unicode="&#xa5;" horiz-adv-x="597" 
d="M591 677q6 -2 6 -6q0 -5 -4 -5q-2 0 -9 1t-13 1q-36 0 -61 -26.5t-60 -94.5q-73 -143 -90 -193q-6 -15 -8 -41h130q10 0 10 -11q0 -8 -2.5 -10.5t-9.5 -2.5h-128v-63h134q10 0 10 -11q0 -13 -12 -13h-131v-85q0 -57 13 -77.5t66 -27.5q14 -2 14 -7q0 -7 -9 -7
q-23 0 -64.5 1t-68.5 1q-19 0 -67.5 -2t-53.5 -2q-11 0 -11 7q0 6 11 7q33 3 46.5 8.5t23 30t9.5 76.5v77h-120q-7 0 -9 2t-2 9q0 12 12 12h119v64h-124q-7 0 -9 2t-2 9q0 12 12 12h122q0 1 -1 3v2q-23 62 -76.5 161.5t-87.5 148.5q-29 40 -68 40q-8 0 -15.5 -2t-8.5 -2
q-4 0 -4 8q0 4 11 7.5t34 6.5t52 3q57 0 87 -35q16 -19 62.5 -110.5t80.5 -171.5q10 30 44.5 110t55.5 121q24 47 46.5 66t56.5 19q36 0 61 -10z" />
    <glyph glyph-name="brokenbar" unicode="&#xa6;" horiz-adv-x="444" 
d="M222 750q9 0 12 -2.5t3 -9.5v-404q0 -7 -2.5 -9t-12.5 -2q-14 0 -14 12l-1 405q0 6 2.5 8t12.5 2zM221 179q16 0 16 -12v-404q0 -7 -2.5 -9t-12.5 -2q-14 0 -14 12l-1 405q0 6 2.5 8t11.5 2z" />
    <glyph glyph-name="section" unicode="&#xa7;" horiz-adv-x="391" 
d="M258 247q76 -50 76 -111q0 -63 -49.5 -101.5t-105.5 -38.5q-77 0 -129 23q-3 0 -3 2q0 3 0.5 10.5t0.5 11.5q0 7 -1 24.5t-1 25.5q0 31 9 31q5 0 5 -4q0 -1 -0.5 -6t-0.5 -7q0 -31 30 -60.5t90 -30.5q52 -1 77 31t25 64t-24.5 55.5t-82.5 55.5q-33 18 -50.5 28.5t-37 27
t-28 35.5t-8.5 43q0 40 32 74t85 42q-52 29 -77 55t-25 65q0 46 38.5 82t103.5 36q14 0 35.5 -1.5t38 -3t17.5 -1.5q3 0 7 2t5 2q4 0 4 -3q0 -4 -1 -11.5t-1 -11.5q0 -6 2.5 -32.5t2.5 -39.5q0 -9 -5 -9t-6 4q-11 85 -106 85q-31 0 -57.5 -19.5t-26.5 -55.5q0 -31 25 -52
t88 -54q112 -60 112 -135q0 -43 -23.5 -76t-59.5 -51zM190 454q-33 0 -60 -20t-27 -55q0 -32 25 -54.5t89 -53.5q2 -1 9.5 -5t10.5 -6q26 13 38.5 39.5t12.5 49.5q0 33 -19.5 56t-67.5 49h-11z" />
    <glyph glyph-name="dieresis" unicode="&#xa8;" 
d="M-33 709q4 0 4 -7q0 -2 -5 -6.5t-15 -14t-19 -19.5q-14 -16 -20 -27q-3 -8 -7 -8q-5 0 -7 6q-11 25 -14 29q-13 13 -25 17q-4 1 -4 6t6 6q7 2 26 3t24 2q11 2 23.5 5t21 5.5t11.5 2.5zM144 709q4 0 4 -7q0 -2 -5 -6.5t-15 -14t-19 -19.5q-14 -16 -20 -27q-3 -8 -7 -8
q-6 0 -7 6q-11 25 -14 29q-13 13 -25 17q-4 1 -4 6t5 6q7 2 26.5 3t24.5 2q11 2 23.5 5t21 5.5t11.5 2.5z" />
    <glyph glyph-name="copyright" unicode="&#xa9;" horiz-adv-x="720" 
d="M360 660q132 0 226 -93.5t94 -226.5q0 -132 -94 -226t-226 -94q-133 0 -226.5 94t-93.5 226q0 133 93.5 226.5t226.5 93.5zM360 631q-121 0 -206 -85t-85 -206q0 -120 85 -205.5t206 -85.5q120 0 205.5 85.5t85.5 205.5q0 121 -85.5 206t-205.5 85zM377 550q33 0 78 -10
q8 -2 17 -4.5t13.5 -4t7.5 -1.5q5 0 8 3.5t5 3.5q6 0 6 -5q0 -2 -1 -12t-1 -13q-2 -30 -2 -58q0 -8 -5 -8t-7 8q-6 37 -44.5 58t-81.5 21q-68 0 -108.5 -44.5t-40.5 -120.5q0 -95 51 -149.5t123 -53.5q42 0 67 21t34 55q3 7 7 7q5 0 5 -4q0 -13 -10 -57q-5 -23 -14 -27
q-46 -18 -102 -18q-95 0 -156.5 53t-61.5 153q0 94 59.5 150.5t153.5 56.5z" />
    <glyph glyph-name="ordfeminine" unicode="&#xaa;" horiz-adv-x="268" 
d="M144 709q28 0 50.5 -16t22.5 -48q0 -18 -1.5 -53t-1.5 -61q0 -12 14.5 -23.5t14.5 -13.5q0 -5 -13.5 -15t-20.5 -10q-13 0 -45 35q-41 -30 -69 -30q-26 0 -42 13.5t-16 36.5q0 32 28.5 50.5t97.5 32.5l1 12v20q0 23 -11.5 33.5t-27.5 10.5q-14 0 -37 -7q-6 -2 -14.5 -5.5
t-13 -5.5t-6.5 -2q-3 0 -6 6t-3 9t7 6q65 25 92 25zM163 593q-69 -14 -69 -62q0 -31 26 -31q20 0 36 16q6 6 6 11z" />
    <glyph glyph-name="guillemotleft" unicode="&#xab;" horiz-adv-x="387" 
d="M184 456q11 0 11 -10q0 -5 -6 -12q-45 -64 -73 -146q28 -82 73 -146q6 -7 6 -12q0 -10 -11 -10q-14 0 -73 72t-59 96t59 96t73 72zM323 456q11 0 11 -10q0 -4 -5 -12q-47 -65 -73 -146q26 -81 73 -146q5 -7 5 -12q0 -10 -11 -10q-12 0 -71.5 72t-59.5 96t59.5 96t71.5 72
z" />
    <glyph glyph-name="logicalnot" unicode="&#xac;" horiz-adv-x="450" 
d="M384 273q10 0 10 -7v-164q0 -11 -15 -11q-12 0 -12 12l-1 142h-297q-11 0 -11 12q0 15 12 15z" />
    <glyph glyph-name="uni00AD" unicode="&#xad;" horiz-adv-x="285" 
d="M224 412q7 0 7 -12q0 -4 -11 -11l-137 -79q-10 -6 -16 -6q-5 0 -10 13.5t-5 18.5q0 7 10 11l137 56q2 1 8 3t10.5 4t6.5 2zM222 309q3 0 6 -4.5t3 -7.5q0 -4 -11 -11l-137 -89q-10 -6 -15 -6t-10.5 13.5t-5.5 18.5t10 11l137 65q20 10 23 10z" />
    <glyph glyph-name="registered" unicode="&#xae;" horiz-adv-x="555" 
d="M278 689q98 0 167.5 -69.5t69.5 -167.5q0 -99 -69.5 -168.5t-167.5 -69.5q-99 0 -168.5 69.5t-69.5 168.5q0 98 69.5 167.5t168.5 69.5zM278 667q-90 0 -153 -63t-63 -152q0 -90 63 -153t153 -63q89 0 152 63t63 153q0 89 -63 152t-152 63zM279 607q-14 0 -36.5 -1.5
t-27.5 -1.5q-7 0 -29 1t-24 1q-7 0 -7 -4q0 -5 6 -6q22 -2 29 -12t7 -40v-156q0 -34 -0.5 -47.5t-4.5 -24t-9 -12t-18 -4.5q-5 -2 -5 -5t5 -3l50 1q11 0 26.5 -0.5t28.5 -0.5q7 0 7 3q0 4 -5 5q-26 6 -32 19.5t-8 68.5v46q20 0 50 2q6 -7 29.5 -47.5t34.5 -56.5
q25 -37 74 -37q19 0 19 6q0 3 -2 3h-7q-22 0 -72 77q-5 7 -20 32.5t-20 31.5q53 26 53 86q0 35 -25.5 55.5t-66.5 20.5zM250 591q38 0 62.5 -21t24.5 -59q0 -33 -19 -52q-12 -11 -39 -11q-15 0 -47 5v68q0 55 1 67q6 3 17 3z" />
    <glyph glyph-name="macron" unicode="&#xaf;" 
d="M120 665q6 0 8 -2.5t2 -12.5q0 -17 -12 -17h-234q-11 0 -11 15q0 16 12 16z" />
    <glyph glyph-name="degree" unicode="&#xb0;" horiz-adv-x="287" 
d="M144 687q48 0 81.5 -34t33.5 -82q0 -49 -33 -83t-82 -34t-82 34t-33 83q0 48 33.5 82t81.5 34zM144 651q-34 0 -57 -23.5t-23 -56.5q0 -34 23 -57.5t57 -23.5t57 23.5t23 57.5q0 33 -23 56.5t-57 23.5z" />
    <glyph glyph-name="plusminus" unicode="&#xb1;" horiz-adv-x="450" 
d="M69 245q-7 0 -9 2.5t-2 11.5q0 8 2.5 10.5t9.5 2.5h138v145q0 6 2.5 8t11.5 2q14 0 14 -12v-142h148q6 0 8 -2.5t2 -10.5q0 -15 -12 -15h-146v-143q0 -7 -2.5 -9t-9.5 -2q-15 0 -15 12v142h-140zM384 28q6 0 8 -2.5t2 -10.5q0 -15 -12 -15h-313q-7 0 -9 2.5t-2 10.5
q0 14 12 14z" />
    <glyph glyph-name="uni00B2" unicode="&#xb2;" horiz-adv-x="323" 
d="M155 703q56 -1 86 -27t30 -64q0 -67 -69 -131q-49 -44 -110 -105q-6 -6 -6 -7q0 -4 11 -4l26 -1q26 -1 58 -1q59 0 79.5 7t31.5 30q5 12 9 12q7 0 7 -5q0 -4 -4 -12q-24 -61 -24 -62q-4 -11 -6 -11q-1 0 -7 0.5t-9 0.5q-64 2 -126 2q-43 0 -76.5 -1t-35.5 -1q-4 0 -4 4
q0 2 4 6q118 118 147 156q43 54 43 116q0 34 -17.5 57t-48.5 23q-80 0 -89 -59q-2 -8 -7 -8t-5 7q0 4 1.5 23t1.5 28v22q0 3 4 3q2 0 5.5 -4t7.5 -4q10 0 41 5q26 5 51 5z" />
    <glyph glyph-name="uni00B3" unicode="&#xb3;" horiz-adv-x="315" 
d="M155 701q46 0 77 -22t31 -55q0 -21 -11.5 -39t-21.5 -26t-34 -24q94 -20 94 -92q0 -56 -46.5 -89.5t-105.5 -33.5q-56 0 -99 15q-2 2 -2 3q0 2 0.5 7.5t0.5 8.5q0 6 -1.5 17t-1.5 16q0 14 2 20q1 5 6 5q6 0 6 -5q0 -1 -0.5 -4t-0.5 -5q0 -20 25 -39t70 -20q35 0 59 26.5
t24 67.5q0 80 -76 80q-8 0 -19 -1.5t-12 -1.5q-7 0 -7 12q0 4 10 5q32 6 49 16q31 23 31 72q0 29 -17.5 48t-47.5 19q-34 0 -55 -11t-24 -42q-1 -7 -7 -7q-5 0 -5 5q0 10 3 43v25q0 4 3 4t6.5 -4.5t6.5 -4.5q6 0 39 6q25 5 51 5z" />
    <glyph glyph-name="acute" unicode="&#xb4;" 
d="M49 729q9 0 24 -12q16 -13 16 -22q0 -8 -75 -42.5t-87 -34.5q-7 0 -12 4t-5 7q0 1 7 6q26 18 59 42.5t51 38t22 13.5z" />
    <glyph glyph-name="uni00B5" unicode="&#xb5;" horiz-adv-x="796" 
d="M157 569q8 0 12 -8q88 -179 237 -436l213 435q3 7 8 7q8 0 9 -5q0 -15 15 -110l48 -307q12 -82 26 -105.5t47 -29.5q14 -3 14 -9q0 -5 -11 -5t-43.5 1.5t-52.5 1.5q-17 0 -56.5 -1.5t-53.5 -1.5q-9 0 -9 6t10 7q52 8 52 37t-6 71l-38 268l-189 -388q-6 -9 -9 -9t-8 11
q-73 148 -200 376l-24 -218q-6 -47 -6 -81q0 -60 63 -67q10 -1 10 -6q0 -6 -8 -6q-5 0 -45.5 2t-53.5 2q-15 0 -47 -2t-36 -2q-9 0 -9 6q0 5 9 7q42 4 53 23.5t22 110.5l36 291q11 80 14 127q0 7 7 7z" />
    <glyph glyph-name="paragraph" unicode="&#xb6;" horiz-adv-x="570" 
d="M511 703q15 0 15 -6q0 -5 -7 -6q-41 -6 -57 -26.5t-16 -59.5v-731q0 -8 -12 -8q-15 0 -15 10l1 611q0 165 -2 183q-13 2 -86 6v-798q0 -11 -13 -11q-14 0 -14 12v394q-29 -8 -67 -8q-83 0 -136.5 60t-53.5 162q0 110 50 163t137 53q53 0 115 -2t70 -2q12 0 49 2t42 2z
M304 288v388h-6q-141 0 -141 -208q0 -77 27 -131.5t76 -54.5q29 0 44 6z" />
    <glyph glyph-name="periodcentered" unicode="&#xb7;" horiz-adv-x="310" 
d="M224 375q1 0 3.5 -3t2.5 -5q0 -3 -6.5 -9l-19.5 -18t-24 -24q-18 -21 -25 -36q-7 -9 -10 -9q-6 0 -8 7q-14 32 -19 38q-14 16 -31 21q-5 3 -5 7q0 5 7 9q8 2 32 3.5t33 2.5q13 2 29.5 6.5t26.5 7t14 2.5z" />
    <glyph glyph-name="cedilla" unicode="&#xb8;" 
d="M47 9q-7 -10 -16 -21t-12 -16q35 -18 35 -52q0 -24 -20.5 -54t-41 -48t-25.5 -18q-4 0 -7 3.5t-3 6.5t3 6q37 35 37 62q0 20 -24 34q-19 12 -19 17q0 8 18 26q21 20 50 54h25z" />
    <glyph glyph-name="uni00B9" unicode="&#xb9;" horiz-adv-x="245" 
d="M151 706q4 0 4 -5q0 -2 -1.5 -16.5t-2.5 -35.5t-1 -41v-168q1 -67 9 -85t44 -22q9 0 9 -5t-7 -5q-11 0 -40.5 1t-57.5 1l-63 -2q-7 0 -7 5q0 4 7 5q26 3 36 11t14.5 35t4.5 92v136q0 38 -2.5 50t-9.5 12q-10 0 -31 -3t-22 -3q-6 0 -6 7q0 3 8 5q17 2 70 19q44 12 45 12z
" />
    <glyph glyph-name="ordmasculine" unicode="&#xba;" horiz-adv-x="304" 
d="M164 712q42 0 74 -33t32 -78q0 -56 -37.5 -93t-94.5 -37q-46 0 -75 32t-29 81q0 57 38.5 92.5t91.5 35.5zM141 686q-23 0 -38.5 -20.5t-15.5 -59.5q0 -46 20 -78t52 -32q25 0 42 21.5t17 58.5q0 45 -22.5 77.5t-54.5 32.5z" />
    <glyph glyph-name="guillemotright" unicode="&#xbb;" horiz-adv-x="387" 
d="M63 456q13 0 72.5 -72t59.5 -96t-59.5 -96t-72.5 -72q-11 0 -11 10q0 4 5 12q47 65 73 146q-26 81 -73 146q-5 8 -5 12q0 10 11 10zM203 456q13 0 72 -72t59 -96t-59 -96t-72 -72q-11 0 -11 10q0 5 6 12q45 64 73 146q-28 82 -73 146q-6 7 -6 12q0 10 11 10z" />
    <glyph glyph-name="onequarter" unicode="&#xbc;" horiz-adv-x="650" 
d="M583 729q0 -5 -18 -30l-505 -754q-5 -7 -10 -7t-13 5t-8 10q0 3 18 29l505 753q6 8 11 8t12.5 -5t7.5 -9zM34 663q-6 0 -6 7q0 3 8 5q17 2 70 19q44 12 45 12q4 0 4 -5q0 -2 -1.5 -16.5t-2.5 -35.5t-1 -41v-168q1 -67 9 -85t44 -22q9 0 9 -5t-7 -5q-11 0 -40.5 1t-57.5 1
l-63 -2q-7 0 -7 5q0 4 7 5q26 3 36 11t14.5 35t4.5 92v136q0 38 -2.5 50t-9.5 12q-10 0 -31 -3t-22 -3zM641 220q6 0 6 -4q0 -2 -2 -7t-2 -7q-10 -21 -15 -48q-3 -20 -10 -20h-10q-5 0 -63 2v-25q1 -69 6.5 -85t34.5 -20q9 -2 9 -7t-7 -5q-12 0 -40 1t-47 1q-8 0 -33.5 -1
t-29.5 -1q-7 0 -7 5q0 6 8 7q22 3 28.5 4.5t14 15t8.5 37t1 73.5h-49q-44 0 -83.5 -1t-40.5 -1q-4 0 -4 10q0 3 80.5 90t121.5 130q18 19 22 19q10 0 10 -9l-1 -8q-1 -9 -1.5 -31t-0.5 -56v-111q32 0 51.5 7t25.5 14.5t12 21.5q3 9 7 9zM376 170q13 -1 55 -1.5t60 -0.5v102
v38q-57 -57 -116 -127q-5 -5 -5 -8t6 -3z" />
    <glyph glyph-name="onehalf" unicode="&#xbd;" horiz-adv-x="650" 
d="M543 743q5 0 12.5 -5t7.5 -9q0 -5 -18 -30l-505 -754q-5 -7 -10 -7t-13 5t-8 10q0 3 18 29l505 753q6 8 11 8zM151 706q4 0 4 -5q0 -2 -1.5 -16.5t-2.5 -35.5t-1 -41v-168q1 -67 9 -85t44 -22q9 0 9 -5t-7 -5q-11 0 -40.5 1t-57.5 1l-63 -2q-7 0 -7 5q0 4 7 5q26 3 36 11
t14.5 35t4.5 92v136q0 38 -2.5 50t-9.5 12q-10 0 -31 -3t-22 -3q-6 0 -6 7q0 3 8 5q17 2 70 19q44 12 45 12zM478 378q56 -1 86 -27t30 -64q0 -67 -69 -131q-49 -44 -110 -105q-6 -6 -6 -7q0 -4 11 -4l26 -1q26 -1 58 -1q59 0 79.5 7t31.5 30q5 12 9 12q7 0 7 -5
q0 -4 -4 -12q-24 -61 -24 -62q-4 -11 -6 -11q-1 0 -7 0.5t-9 0.5q-64 2 -126 2q-43 0 -76.5 -1t-35.5 -1q-4 0 -4 4q0 2 4 6q118 118 147 156q43 54 43 116q0 34 -17.5 57t-48.5 23q-80 0 -89 -59q-2 -8 -7 -8t-5 7q0 4 1.5 23t1.5 28v22q0 3 4 3q2 0 5.5 -4t7.5 -4
q10 0 41 5q26 5 51 5z" />
    <glyph glyph-name="threequarters" unicode="&#xbe;" horiz-adv-x="650" 
d="M610 729q0 -5 -18 -30l-505 -754q-5 -7 -10 -7t-13 5t-8 10q0 3 18 29l505 753q6 8 11 8q6 0 13 -5t7 -9zM290 443q0 -56 -46.5 -89.5t-105.5 -33.5q-56 0 -99 15q-2 2 -2 3q0 2 0.5 7.5t0.5 8.5q0 6 -1.5 17t-1.5 16q0 14 2 20q1 5 6 5q6 0 6 -5q0 -1 -0.5 -4t-0.5 -5
q0 -20 25 -39t70 -20q35 0 59 26.5t24 67.5q0 80 -76 80q-8 0 -19 -1.5t-12 -1.5q-7 0 -7 12q0 4 10 5q32 6 49 16q31 23 31 72q0 29 -17.5 48t-47.5 19q-34 0 -55 -11t-24 -42q-1 -7 -7 -7q-5 0 -5 5q0 10 3 43v25q0 4 3 4t6.5 -4.5t6.5 -4.5q6 0 39 6q25 5 51 5
q46 0 77 -22t31 -55q0 -21 -11.5 -39t-21.5 -26t-34 -24q94 -20 94 -92zM641 225q6 0 6 -4q0 -2 -2 -7t-2 -7q-10 -21 -15 -48q-3 -20 -10 -20h-10q-5 0 -63 2v-25q1 -69 6.5 -85t34.5 -20q9 -1 9 -7q0 -5 -7 -5q-12 0 -40 1t-47 1q-8 0 -33.5 -1t-29.5 -1q-7 0 -7 5
q0 6 8 7q22 3 28.5 4.5t14 15t8.5 37t1 73.5h-49q-44 0 -83.5 -1t-40.5 -1q-4 0 -4 10q0 3 80.5 90t121.5 130q18 19 22 19q10 0 10 -9l-1 -9q-1 -8 -1.5 -30t-0.5 -56v-111q32 0 51.5 7t25.5 14.5t12 21.5q3 9 7 9zM376 175q13 -1 55 -1.5t60 -0.5v102v38
q-57 -57 -116 -127q-5 -5 -5 -8t6 -3z" />
    <glyph glyph-name="questiondown" unicode="&#xbf;" horiz-adv-x="393" 
d="M244 684q4 0 6 -5q7 -16 13 -24q27 -32 34 -35q4 -1 4 -5q0 -5 -5 -6q-14 -3 -35 -15q-28 -15 -38 -28q-4 -5 -7 -5q-4 0 -5 4q-4 9 -26 39q-11 16 -21 20q-4 1 -4 5q0 5 5 6q9 2 50 26q18 11 22 16q5 7 7 7zM233 502q6 0 7 -8q0 -2 3.5 -22.5t5.5 -31.5q3 -16 7 -29
t5.5 -18.5t1.5 -7.5q0 -5 -5 -8q-65 -25 -96 -64t-31 -84q0 -56 43.5 -86t137.5 -49q19 -4 19 -9t-2 -15q-1 -9 -9 -92q-1 -9 -6 -9q-7 0 -8 9q-2 17 -11 26t-33 16q-110 30 -158.5 75t-48.5 111q0 34 12 63t35.5 51.5t43 36t48.5 30.5q24 16 30 22.5t6 16.5q0 12 -3 39
t-3 30q0 7 9 7z" />
    <glyph glyph-name="Agrave" unicode="&#xc0;" horiz-adv-x="727" 
d="M302 858q4 0 22 -13t51 -37.5t59 -42.5q7 -5 7 -6q0 -3 -4.5 -7.5t-10.5 -4.5q-12 0 -88 35t-76 43t16 21q15 12 24 12zM371 707q6 0 11 -10l46 -120l155 -390q39 -100 64.5 -134.5t63.5 -42.5q16 -3 16 -9t-10 -6q-7 0 -54 2.5t-75 2.5q-16 0 -57 -2t-56 -2q-9 0 -9 7
t8 7q54 5 54 38q0 26 -19 75l-51 134l-232 -2l-51 -124q-19 -46 -19 -73q0 -43 48 -47q13 -1 13 -6q0 -7 -10 -7q-7 0 -45 2t-51 2q-17 0 -55 -2t-44 -2q-9 0 -9 7q0 4 11 6q37 4 61 38.5t68 135.5l158 372q13 29 34 77t26 61q4 12 10 12zM347 548l-102 -252l197 3z" />
    <glyph glyph-name="Aacute" unicode="&#xc1;" horiz-adv-x="727" 
d="M435 858q9 0 24 -12q16 -13 16 -21t-76.5 -43t-88.5 -35q-6 0 -10.5 4.5t-4.5 7.5q0 1 7 6q27 18 59.5 42t51 37.5t22.5 13.5zM371 707q6 0 11 -10l46 -120l155 -390q39 -100 64.5 -134.5t63.5 -42.5q16 -3 16 -9t-10 -6q-7 0 -54 2.5t-75 2.5q-16 0 -57 -2t-56 -2
q-9 0 -9 7t8 7q54 5 54 38q0 26 -19 75l-51 134l-232 -2l-51 -124q-19 -46 -19 -73q0 -43 48 -47q13 -1 13 -6q0 -7 -10 -7q-7 0 -45 2t-51 2q-17 0 -55 -2t-44 -2q-9 0 -9 7q0 4 11 6q37 4 61 38.5t68 135.5l158 372q13 29 34 77t26 61q4 12 10 12zM347 548l-102 -252
l197 3z" />
    <glyph glyph-name="Acircumflex" unicode="&#xc2;" horiz-adv-x="727" 
d="M372 850q5 0 20.5 -12t43 -34t49.5 -37q7 -5 7 -8t-5.5 -7.5t-12.5 -4.5q-4 0 -19.5 8t-41.5 21.5t-45 21.5q-18 -8 -45.5 -21.5t-43.5 -21.5t-20 -8q-7 0 -11 4.5t-4 7.5q0 1 9 8q16 13 47 38t45 35t19 10h8zM371 707q6 0 11 -10l46 -120l155 -390q39 -100 64.5 -134.5
t63.5 -42.5q16 -3 16 -9t-10 -6q-7 0 -54 2.5t-75 2.5q-16 0 -57 -2t-56 -2q-9 0 -9 7t8 7q54 5 54 38q0 26 -19 75l-51 134l-232 -2l-51 -124q-19 -46 -19 -73q0 -43 48 -47q13 -1 13 -6q0 -7 -10 -7q-7 0 -45 2t-51 2q-17 0 -55 -2t-44 -2q-9 0 -9 7q0 4 11 6
q37 4 61 38.5t68 135.5l158 372q13 29 34 77t26 61q4 12 10 12zM347 548l-102 -252l197 3z" />
    <glyph glyph-name="Atilde" unicode="&#xc3;" horiz-adv-x="727" 
d="M323 842q20 0 59 -24q32 -20 50 -20q15 0 32 9t28 18t13 9q4 0 8 -5t4 -8t-7 -10q-2 -2 -11 -9.5l-12 -10t-11.5 -9.5t-12.5 -9.5t-11.5 -8t-12.5 -7.5t-11 -5t-12 -4t-11 -1q-20 0 -58 24q-30 20 -51 20q-20 0 -46 -18l-26 -18q-4 0 -8.5 5t-4.5 8q0 2 8 10
q73 64 104 64zM371 707q6 0 11 -10l46 -120l155 -390q39 -100 64.5 -134.5t63.5 -42.5q16 -3 16 -9t-10 -6q-7 0 -54 2.5t-75 2.5q-16 0 -57 -2t-56 -2q-9 0 -9 7t8 7q54 5 54 38q0 26 -19 75l-51 134l-232 -2l-51 -124q-19 -46 -19 -73q0 -43 48 -47q13 -1 13 -6
q0 -7 -10 -7q-7 0 -45 2t-51 2q-17 0 -55 -2t-44 -2q-9 0 -9 7q0 4 11 6q37 4 61 38.5t68 135.5l158 372q13 29 34 77t26 61q4 12 10 12zM347 548l-102 -252l197 3z" />
    <glyph glyph-name="Adieresis" unicode="&#xc4;" horiz-adv-x="727" 
d="M331 825q4 0 4 -6q0 -2 -4.5 -6.5l-14 -14t-17.5 -18.5q-13 -15 -19 -26q-4 -7 -7 -7q-4 0 -6 5q-10 22 -14 28q-10 12 -23 17q-4 1 -4 5q0 5 5 6q7 2 25 3t23 2q10 2 22 5l20 5t10 2zM505 825q4 0 4 -6q0 -2 -4.5 -6.5t-14.5 -14t-18 -18.5q-13 -15 -19 -26q-3 -7 -7 -7
t-6 5q-10 24 -13 28q-10 12 -23 17q-4 1 -4 5q0 5 5 6q7 2 24.5 3t22.5 2q10 2 22.5 5t20.5 5t10 2zM371 707q6 0 11 -10l46 -120l155 -390q39 -100 64.5 -134.5t63.5 -42.5q16 -3 16 -9t-10 -6q-7 0 -54 2.5t-75 2.5q-16 0 -57 -2t-56 -2q-9 0 -9 7t8 7q54 5 54 38
q0 26 -19 75l-51 134l-232 -2l-51 -124q-19 -46 -19 -73q0 -43 48 -47q13 -1 13 -6q0 -7 -10 -7q-7 0 -45 2t-51 2q-17 0 -55 -2t-44 -2q-9 0 -9 7q0 4 11 6q37 4 61 38.5t68 135.5l158 372q13 29 34 77t26 61q4 12 10 12zM347 548l-102 -252l197 3z" />
    <glyph glyph-name="Aring" unicode="&#xc5;" horiz-adv-x="727" 
d="M711 10q16 -3 16 -9t-10 -6q-7 0 -54 2.5t-75 2.5q-16 0 -57 -2t-56 -2q-9 0 -9 7t8 7q54 5 54 38q0 26 -19 75l-51 134l-232 -2l-51 -124q-19 -46 -19 -73q0 -43 48 -47q13 -1 13 -6q0 -7 -10 -7q-7 0 -45 2t-51 2q-17 0 -55 -2t-44 -2q-9 0 -9 7q0 4 11 6q37 4 61 38.5
t68 135.5l158 372l54 124q-34 3 -52 23.5t-18 52.5q0 34 21.5 55t61.5 21q41 0 63 -21t22 -55q0 -65 -65 -76l40 -104l155 -390q39 -100 64.5 -134.5t63.5 -42.5zM323 757q0 -22 12.5 -35t32.5 -13q21 0 33.5 13t12.5 35q0 21 -13 33.5t-33 12.5t-32.5 -12.5t-12.5 -33.5z
M245 296l197 3l-95 249z" />
    <glyph glyph-name="AE" unicode="&#xc6;" horiz-adv-x="848" 
d="M309 703q91 -3 154 -4h64q111 0 219 7q6 1 10.5 1.5t6.5 1t3 0.5h2q5 0 5 -5l-2 -37l-1 -49q0 -8 -5 -8q-6 0 -7 7q-3 17 -13.5 27.5t-30 15.5t-35.5 6.5t-43 1.5q-45 1 -90 -4q-2 -21 -2 -149v-135h101q54 0 73.5 7t25.5 24q2 6 5 17q1 9 6 9q6 0 6 -5l-3 -30
q-4 -31 -4 -50q0 -14 0.5 -41.5t0.5 -31.5q0 -7 -5 -7q-6 0 -6 7q-4 44 -20.5 53.5t-72.5 10.5l-107 1l1 -131q0 -109 10 -145q4 -18 28 -23.5t72 -5.5q59 0 85 9t39 34q3 7 7 7q7 0 7 -5q0 -3 -3 -10l-12 -32q-5 -16 -12 -38q-3 -8 -7 -8q-3 0 -12.5 0.5t-14.5 0.5
q-102 4 -212 4q-23 0 -81 -1.5t-59 -1.5q-10 0 -10 7q0 5 12 7q53 9 62.5 42t9.5 210l-217 -4l-65 -129q-27 -56 -27 -80q0 -35 43 -39q13 -1 13 -7q0 -7 -11 -7q-7 0 -44.5 2t-48.5 2q-18 0 -55 -2t-42 -2q-10 0 -10 7q0 5 11 7q42 4 67.5 35.5t79.5 137.5l192 372
q41 79 61 120q-32 10 -92 10q-11 0 -11 8t11 8zM255 298l199 3v218q0 70 -3.5 96.5t-17.5 39.5z" />
    <glyph glyph-name="Ccedilla" unicode="&#xc7;" horiz-adv-x="724" 
d="M671 148q6 0 6 -5q0 -8 -5 -41t-10 -48q-8 -25 -10.5 -30t-10.5 -7q-39 -11 -73 -17q-59 -10 -129 -10q-17 0 -26 1q-3 -4 -7.5 -10.5t-6.5 -8.5q35 -18 35 -52q0 -24 -20.5 -54t-41 -48t-25.5 -18q-4 0 -7 3.5t-3 6.5t3 6q37 35 37 62q0 20 -24 34q-19 12 -19 17
q0 8 18 26q11 10 36 37q-69 6 -125.5 29t-103.5 64.5t-73.5 111t-26.5 160.5q0 163 99.5 258t271.5 95q46 0 119 -14q80 -15 95 -15q10 0 17 4l7 4q7 0 7 -5q0 -1 -2 -15.5t-2 -20.5q-2 -46 -2 -91q0 -9 -6 -9q-5 0 -7 10q-8 36 -53.5 65.5t-95 43t-86.5 13.5
q-132 0 -198 -78.5t-66 -214.5q0 -164 89 -263.5t212 -99.5q85 0 136.5 32t68.5 83q4 9 8 9z" />
    <glyph glyph-name="Egrave" unicode="&#xc8;" horiz-adv-x="524" 
d="M209 858q4 0 22 -13t51 -37.5t59 -42.5q7 -5 7 -6q0 -3 -4.5 -7.5t-10.5 -4.5q-12 0 -88 35t-76 43t16 21q15 12 24 12zM459 709q5 0 5 -5l-1 -15q-1 -15 -1 -22l-1 -49q0 -9 -5 -9q-6 0 -7 8q-2 17 -12.5 27.5t-30 15.5t-36 6.5t-43.5 1.5q-45 1 -90 -4q-2 -21 -2 -149
v-135h101q54 0 74 7t26 27q1 3 4 15q2 8 6 8q6 0 6 -5l-4 -30q-3 -31 -3 -50q0 -14 1 -41.5t1 -31.5q0 -7 -6 -7t-6 7q-1 44 -18.5 53.5t-74.5 10.5l-107 1l1 -131q0 -103 10 -145q4 -18 28 -23.5t72 -5.5q59 0 85 9t39 34q4 7 7 7q7 0 7 -5q0 -3 -3 -10l-12 -32
q-5 -16 -12 -38q-3 -8 -7 -8h-10q-9 1 -17 1q-102 4 -212 4q-23 0 -81 -1.5t-59 -1.5q-10 0 -10 7q0 4 12 7q53 11 62.5 43t9.5 210v254q0 120 -7.5 141.5t-50.5 26.5q-11 2 -11 6q0 7 13 7h26t54.5 -0.5t48.5 -0.5q100 0 223 7q5 1 9.5 1.5t6 1t2.5 0.5z" />
    <glyph glyph-name="Eacute" unicode="&#xc9;" horiz-adv-x="524" 
d="M361 858q9 0 24 -12q16 -13 16 -21t-76.5 -43t-88.5 -35q-6 0 -10.5 4.5t-4.5 7.5q0 1 7 6q27 18 59.5 42t51 37.5t22.5 13.5zM459 709q5 0 5 -5l-1 -15q-1 -15 -1 -22l-1 -49q0 -9 -5 -9q-6 0 -7 8q-2 17 -12.5 27.5t-30 15.5t-36 6.5t-43.5 1.5q-45 1 -90 -4
q-2 -21 -2 -149v-135h101q54 0 74 7t26 27q1 3 4 15q2 8 6 8q6 0 6 -5l-4 -30q-3 -31 -3 -50q0 -14 1 -41.5t1 -31.5q0 -7 -6 -7t-6 7q-1 44 -18.5 53.5t-74.5 10.5l-107 1l1 -131q0 -103 10 -145q4 -18 28 -23.5t72 -5.5q59 0 85 9t39 34q4 7 7 7q7 0 7 -5q0 -3 -3 -10
l-12 -32q-5 -16 -12 -38q-3 -8 -7 -8h-10q-9 1 -17 1q-102 4 -212 4q-23 0 -81 -1.5t-59 -1.5q-10 0 -10 7q0 4 12 7q53 11 62.5 43t9.5 210v254q0 120 -7.5 141.5t-50.5 26.5q-11 2 -11 6q0 7 13 7h26t54.5 -0.5t48.5 -0.5q100 0 223 7q5 1 9.5 1.5t6 1t2.5 0.5z" />
    <glyph glyph-name="Ecircumflex" unicode="&#xca;" horiz-adv-x="524" 
d="M289 850q5 0 20.5 -12t43 -34t49.5 -37q7 -5 7 -8t-5.5 -7.5t-12.5 -4.5q-4 0 -19.5 8t-41.5 21.5t-45 21.5q-18 -8 -45.5 -21.5t-43.5 -21.5t-20 -8q-7 0 -11 4.5t-4 7.5q0 1 9 8q16 13 47 38t45 35t19 10h8zM459 709q5 0 5 -5l-1 -15q-1 -15 -1 -22l-1 -49q0 -9 -5 -9
q-6 0 -7 8q-2 17 -12.5 27.5t-30 15.5t-36 6.5t-43.5 1.5q-45 1 -90 -4q-2 -21 -2 -149v-135h101q54 0 74 7t26 27q1 3 4 15q2 8 6 8q6 0 6 -5l-4 -30q-3 -31 -3 -50q0 -14 1 -41.5t1 -31.5q0 -7 -6 -7t-6 7q-1 44 -18.5 53.5t-74.5 10.5l-107 1l1 -131q0 -103 10 -145
q4 -18 28 -23.5t72 -5.5q59 0 85 9t39 34q4 7 7 7q7 0 7 -5q0 -3 -3 -10l-12 -32q-5 -16 -12 -38q-3 -8 -7 -8h-10q-9 1 -17 1q-102 4 -212 4q-23 0 -81 -1.5t-59 -1.5q-10 0 -10 7q0 4 12 7q53 11 62.5 43t9.5 210v254q0 120 -7.5 141.5t-50.5 26.5q-11 2 -11 6q0 7 13 7
h26t54.5 -0.5t48.5 -0.5q100 0 223 7q5 1 9.5 1.5t6 1t2.5 0.5z" />
    <glyph glyph-name="Edieresis" unicode="&#xcb;" horiz-adv-x="524" 
d="M250 825q4 0 4 -6q0 -2 -4.5 -6.5l-14 -14t-17.5 -18.5q-13 -15 -19 -26q-3 -7 -7 -7t-6 5q-10 22 -14 28q-10 12 -23 17q-4 1 -4 5q0 5 5 6q7 2 25 3t23 2q10 2 22 5l20 5t10 2zM424 825q4 0 4 -6q0 -2 -4.5 -6.5t-14.5 -14t-18 -18.5q-13 -15 -19 -26q-4 -7 -7 -7
q-4 0 -6 5q-10 24 -13 28q-10 12 -23 17q-4 1 -4 5q0 5 5 6q7 2 24.5 3t22.5 2q10 2 22.5 5t20.5 5t10 2zM459 709q5 0 5 -5l-1 -15q-1 -15 -1 -22l-1 -49q0 -9 -5 -9q-6 0 -7 8q-2 17 -12.5 27.5t-30 15.5t-36 6.5t-43.5 1.5q-45 1 -90 -4q-2 -21 -2 -149v-135h101
q54 0 74 7t26 27q1 3 4 15q2 8 6 8q6 0 6 -5l-4 -30q-3 -31 -3 -50q0 -14 1 -41.5t1 -31.5q0 -7 -6 -7t-6 7q-1 44 -18.5 53.5t-74.5 10.5l-107 1l1 -131q0 -103 10 -145q4 -18 28 -23.5t72 -5.5q59 0 85 9t39 34q4 7 7 7q7 0 7 -5q0 -3 -3 -10l-12 -32q-5 -16 -12 -38
q-3 -8 -7 -8h-10q-9 1 -17 1q-102 4 -212 4q-23 0 -81 -1.5t-59 -1.5q-10 0 -10 7q0 4 12 7q53 11 62.5 43t9.5 210v254q0 120 -7.5 141.5t-50.5 26.5q-11 2 -11 6q0 7 13 7h26t54.5 -0.5t48.5 -0.5q100 0 223 7q5 1 9.5 1.5t6 1t2.5 0.5z" />
    <glyph glyph-name="Igrave" unicode="&#xcc;" horiz-adv-x="391" 
d="M121 858q4 0 22 -13t51 -37.5t59 -42.5q7 -5 7 -6q0 -3 -4.5 -7.5t-10.5 -4.5q-12 0 -88 35t-76 43t16 21q15 12 24 12zM81 704q4 0 42.5 -2.5t56.5 -2.5q22 0 70 1.5t52 1.5q13 0 13 -6q0 -5 -11 -7q-22 -3 -32 -7t-19.5 -12t-12 -29t-4 -47.5t-1.5 -78.5l1 -302
q1 -127 13 -160t67 -42q15 -1 15 -8q0 -6 -10 -6q-32 0 -77.5 1.5t-72.5 1.5q-6 0 -49 -2t-51 -2q-11 0 -11 6q0 4 11 7q36 7 49 21.5t19.5 64.5t6.5 170v245q0 53 -1 79t-4 49t-11.5 31.5t-19 13t-31.5 7.5q-11 2 -11 8t13 6z" />
    <glyph glyph-name="Iacute" unicode="&#xcd;" horiz-adv-x="391" 
d="M259 858q9 0 24 -12q16 -13 16 -21t-76.5 -43t-88.5 -35q-6 0 -10.5 4.5t-4.5 7.5q0 1 7 6q27 18 59.5 42t51 37.5t22.5 13.5zM81 704q4 0 42.5 -2.5t56.5 -2.5q22 0 70 1.5t52 1.5q13 0 13 -6q0 -5 -11 -7q-22 -3 -32 -7t-19.5 -12t-12 -29t-4 -47.5t-1.5 -78.5l1 -302
q1 -127 13 -160t67 -42q15 -1 15 -8q0 -6 -10 -6q-32 0 -77.5 1.5t-72.5 1.5q-6 0 -49 -2t-51 -2q-11 0 -11 6q0 4 11 7q36 7 49 21.5t19.5 64.5t6.5 170v245q0 53 -1 79t-4 49t-11.5 31.5t-19 13t-31.5 7.5q-11 2 -11 8t13 6z" />
    <glyph glyph-name="Icircumflex" unicode="&#xce;" horiz-adv-x="391" 
d="M194 850q5 0 20.5 -12t43 -34t49.5 -37q7 -5 7 -8t-5.5 -7.5t-12.5 -4.5q-4 0 -19.5 8t-41.5 21.5t-45 21.5q-18 -8 -45.5 -21.5t-43.5 -21.5t-20 -8q-7 0 -11 4.5t-4 7.5q0 1 9 8q16 13 47 38t45 35t19 10h8zM81 704q4 0 42.5 -2.5t56.5 -2.5q22 0 70 1.5t52 1.5
q13 0 13 -6q0 -5 -11 -7q-22 -3 -32 -7t-19.5 -12t-12 -29t-4 -47.5t-1.5 -78.5l1 -302q1 -127 13 -160t67 -42q15 -1 15 -8q0 -6 -10 -6q-32 0 -77.5 1.5t-72.5 1.5q-6 0 -49 -2t-51 -2q-11 0 -11 6q0 4 11 7q36 7 49 21.5t19.5 64.5t6.5 170v245q0 53 -1 79t-4 49
t-11.5 31.5t-19 13t-31.5 7.5q-11 2 -11 8t13 6z" />
    <glyph glyph-name="Idieresis" unicode="&#xcf;" horiz-adv-x="391" 
d="M152 825q4 0 4 -6q0 -2 -4.5 -6.5l-14 -14t-17.5 -18.5q-13 -15 -19 -26q-3 -7 -7 -7t-6 5q-10 22 -14 28q-10 12 -23 17q-4 1 -4 5q0 5 5 6q7 2 25 3t23 2q10 2 22 5l20 5t10 2zM326 825q4 0 4 -6q0 -2 -4.5 -6.5t-14.5 -14t-18 -18.5q-13 -15 -19 -26q-4 -7 -7 -7
q-4 0 -6 5q-10 24 -13 28q-10 12 -23 17q-4 1 -4 5q0 5 5 6q7 2 24.5 3t22.5 2q10 2 22.5 5t20.5 5t10 2zM81 704q4 0 42.5 -2.5t56.5 -2.5q22 0 70 1.5t52 1.5q13 0 13 -6q0 -5 -11 -7q-22 -3 -32 -7t-19.5 -12t-12 -29t-4 -47.5t-1.5 -78.5l1 -302q1 -127 13 -160t67 -42
q15 -1 15 -8q0 -6 -10 -6q-32 0 -77.5 1.5t-72.5 1.5q-6 0 -49 -2t-51 -2q-11 0 -11 6q0 4 11 7q36 7 49 21.5t19.5 64.5t6.5 170v245q0 53 -1 79t-4 49t-11.5 31.5t-19 13t-31.5 7.5q-11 2 -11 8t13 6z" />
    <glyph glyph-name="Eth" unicode="&#xd0;" horiz-adv-x="825" 
d="M412 708q177 0 265 -92.5t88 -239.5q0 -168 -103 -275t-298 -107q-42 0 -115 3.5t-85 3.5q-22 0 -61 -1.5t-41 -1.5q-11 0 -11 7q0 5 12 7q53 7 62.5 52t9.5 276h-91q-7 0 -9 2.5t-2 11.5q0 15 12 15h90v150q0 38 -0.5 56t-1.5 40t-4.5 30t-7.5 17.5t-13 12.5t-19 6
t-27 5q-11 2 -11 7q0 7 13 7q3 0 40.5 -1t59.5 -1q12 0 120 5t128 5zM371 26q145 0 217.5 83t72.5 236q0 146 -75.5 236.5t-219.5 90.5q-94 0 -134 -11q-7 -43 -7 -166v-125h134q6 0 8 -2.5t2 -11.5q0 -16 -12 -16h-131v-127q0 -125 11 -154q7 -18 53 -25.5t81 -7.5z" />
    <glyph glyph-name="Ntilde" unicode="&#xd1;" horiz-adv-x="888" 
d="M420 842q20 0 59 -24q32 -20 50 -20q15 0 32 9t28 18t13 9q4 0 8 -5t4 -8t-7 -10q-2 -2 -11 -9.5l-12 -10t-11.5 -9.5t-12.5 -9.5t-11.5 -8t-12.5 -7.5t-11 -5t-12 -4t-11 -1q-20 0 -58 24q-30 20 -51 20q-20 0 -46 -18l-26 -18q-4 0 -8.5 5t-4.5 8q0 2 8 10
q73 64 104 64zM153 725q5 0 10 -5q205 -226 538 -562l1 351q0 97 -15.5 135t-63.5 44q-14 1 -14 8q0 5 11 5q7 0 51.5 -1.5t55.5 -1.5q18 0 55 2t42 2q11 0 11 -6t-11 -8q-48 -6 -57.5 -31.5t-12.5 -141.5q-4 -315 -4 -377l1 -157q0 -10 -7 -10q-1 0 -18 17
q-86 97 -266.5 288t-270.5 279v-364q0 -116 9.5 -145.5t58.5 -35.5q14 -3 14 -7q0 -7 -11 -7q-7 0 -47.5 1.5t-51.5 1.5q-18 0 -55 -2t-42 -2q-11 0 -11 6q0 5 11 8q44 7 55.5 36.5t14.5 139.5q10 327 10 371v161q0 8 9 8z" />
    <glyph glyph-name="Ograve" unicode="&#xd2;" horiz-adv-x="837" 
d="M364 858q4 0 22 -13t51 -37.5t59 -42.5q7 -5 7 -6q0 -3 -4.5 -7.5t-10.5 -4.5q-12 0 -88 35t-76 43t16 21q15 12 24 12zM411 712q165 0 266 -96.5t101 -258.5q0 -167 -91.5 -266t-263.5 -99q-71 0 -133.5 20t-115.5 61t-84 114t-31 170q0 164 93 259.5t259 95.5zM406 683
q-120 0 -183.5 -80.5t-63.5 -217.5q0 -180 77.5 -272t206.5 -92q100 0 165.5 83.5t65.5 221.5q0 168 -71 262.5t-197 94.5z" />
    <glyph glyph-name="Oacute" unicode="&#xd3;" horiz-adv-x="837" 
d="M475 858q9 0 24 -12q16 -13 16 -21t-76.5 -43t-88.5 -35q-6 0 -10.5 4.5t-4.5 7.5q0 1 7 6q27 18 59.5 42t51 37.5t22.5 13.5zM411 712q165 0 266 -96.5t101 -258.5q0 -167 -91.5 -266t-263.5 -99q-71 0 -133.5 20t-115.5 61t-84 114t-31 170q0 164 93 259.5t259 95.5z
M406 683q-120 0 -183.5 -80.5t-63.5 -217.5q0 -180 77.5 -272t206.5 -92q100 0 165.5 83.5t65.5 221.5q0 168 -71 262.5t-197 94.5z" />
    <glyph glyph-name="Ocircumflex" unicode="&#xd4;" horiz-adv-x="837" 
d="M418 850q5 0 20.5 -12t43 -34t49.5 -37q7 -5 7 -8t-5.5 -7.5t-12.5 -4.5q-4 0 -19.5 8t-41.5 21.5t-45 21.5q-18 -8 -45.5 -21.5t-43.5 -21.5t-20 -8q-7 0 -11 4.5t-4 7.5q0 1 9 8q16 13 47 38t45 35t19 10h8zM411 712q165 0 266 -96.5t101 -258.5q0 -167 -91.5 -266
t-263.5 -99q-71 0 -133.5 20t-115.5 61t-84 114t-31 170q0 164 93 259.5t259 95.5zM406 683q-120 0 -183.5 -80.5t-63.5 -217.5q0 -180 77.5 -272t206.5 -92q100 0 165.5 83.5t65.5 221.5q0 168 -71 262.5t-197 94.5z" />
    <glyph glyph-name="Otilde" unicode="&#xd5;" horiz-adv-x="837" 
d="M384 842q20 0 59 -24q32 -20 50 -20q15 0 32 9t28 18t13 9q4 0 8 -5t4 -8t-7 -10q-2 -2 -11 -9.5l-12 -10t-11.5 -9.5t-12.5 -9.5t-11.5 -8t-12.5 -7.5t-11 -5t-12 -4t-11 -1q-20 0 -58 24q-30 20 -51 20q-20 0 -46 -18l-26 -18q-4 0 -8.5 5t-4.5 8q0 2 8 10
q73 64 104 64zM411 712q165 0 266 -96.5t101 -258.5q0 -167 -91.5 -266t-263.5 -99q-71 0 -133.5 20t-115.5 61t-84 114t-31 170q0 164 93 259.5t259 95.5zM406 683q-120 0 -183.5 -80.5t-63.5 -217.5q0 -180 77.5 -272t206.5 -92q100 0 165.5 83.5t65.5 221.5
q0 168 -71 262.5t-197 94.5z" />
    <glyph glyph-name="Odieresis" unicode="&#xd6;" horiz-adv-x="837" 
d="M377 825q4 0 4 -6q0 -2 -4.5 -6.5l-14 -14t-17.5 -18.5q-13 -15 -19 -26q-4 -7 -7 -7q-4 0 -6 5q-10 22 -14 28q-10 12 -23 17q-4 1 -4 5q0 5 5 6q7 2 25 3t23 2q10 2 22 5l20 5t10 2zM551 825q4 0 4 -6q0 -2 -4.5 -6.5t-14.5 -14t-18 -18.5q-13 -15 -19 -26q-3 -7 -7 -7
t-6 5q-10 24 -13 28q-10 12 -23 17q-4 1 -4 5q0 5 5 6q7 2 24.5 3t22.5 2q10 2 22.5 5t20.5 5t10 2zM411 712q165 0 266 -96.5t101 -258.5q0 -167 -91.5 -266t-263.5 -99q-71 0 -133.5 20t-115.5 61t-84 114t-31 170q0 164 93 259.5t259 95.5zM406 683q-120 0 -183.5 -80.5
t-63.5 -217.5q0 -180 77.5 -272t206.5 -92q100 0 165.5 83.5t65.5 221.5q0 168 -71 262.5t-197 94.5z" />
    <glyph glyph-name="multiply" unicode="&#xd7;" horiz-adv-x="450" 
d="M243 262l136 -137q4 -4 4 -8t-5 -9q-6 -6 -10 -6t-8 4l-136 137l-137 -137q-4 -4 -8 -4t-10 6q-5 5 -5 9t4 8l136 137l-136 136q-4 4 -4 9q0 3 6 9t11 6q3 0 6 -3l137 -137l136 137q3 3 6 3q5 0 11 -6t6 -9q0 -5 -4 -9z" />
    <glyph glyph-name="Oslash" unicode="&#xd8;" horiz-adv-x="837" 
d="M642 645q136 -98 136 -288q0 -167 -91.5 -266t-263.5 -99q-107 0 -190 42l-60 -89q-5 -7 -10 -7t-14 5t-9 10q0 3 18 29l46 69q-145 94 -145 306q0 164 93 259.5t259 95.5q118 0 203 -50l49 73q6 8 11 8q6 0 14 -5t8 -9q0 -5 -18 -30zM159 385q0 -182 83 -278l339 506
q-67 70 -175 70q-120 0 -183.5 -80.5t-63.5 -217.5zM443 21q100 0 165.5 83.5t65.5 221.5q0 168 -71 262l-338 -505q71 -62 178 -62z" />
    <glyph glyph-name="Ugrave" unicode="&#xd9;" horiz-adv-x="791" 
d="M328 858q4 0 22 -13t51 -37.5t59 -42.5q7 -5 7 -6q0 -3 -4.5 -7.5t-10.5 -4.5q-12 0 -88 35t-76 43t16 21q15 12 24 12zM761 704q13 0 13 -6t-12 -8q-49 -7 -60 -34.5t-11 -136.5v-254q0 -74 -11.5 -117.5t-42.5 -78.5q-67 -78 -222 -78q-78 0 -138 19t-90 48
q-34 34 -47.5 78.5t-13.5 137.5v245q0 82 -5 113.5t-16.5 41.5t-44.5 16q-8 1 -8 8q0 6 13 6l41 -2q40 -3 62 -3q34 0 76.5 2.5t44.5 2.5q13 0 13 -6q0 -7 -11 -9q-35 -5 -49 -15t-21 -45t-6 -114l1 -271q0 -101 44 -155t163 -54q223 0 223 197l1 283q0 70 -7.5 105.5
t-23.5 49t-48 18.5q-10 2 -10 8t13 6l43 -2q42 -1 64 -1q20 0 50 2.5t33 2.5z" />
    <glyph glyph-name="Uacute" unicode="&#xda;" horiz-adv-x="791" 
d="M485 858q9 0 24 -12q16 -13 16 -21t-76.5 -43t-88.5 -35q-6 0 -10.5 4.5t-4.5 7.5q0 1 7 6q27 18 59.5 42t51 37.5t22.5 13.5zM761 704q13 0 13 -6t-12 -8q-49 -7 -60 -34.5t-11 -136.5v-254q0 -74 -11.5 -117.5t-42.5 -78.5q-67 -78 -222 -78q-78 0 -138 19t-90 48
q-34 34 -47.5 78.5t-13.5 137.5v245q0 82 -5 113.5t-16.5 41.5t-44.5 16q-8 1 -8 8q0 6 13 6l41 -2q40 -3 62 -3q34 0 76.5 2.5t44.5 2.5q13 0 13 -6q0 -7 -11 -9q-35 -5 -49 -15t-21 -45t-6 -114l1 -271q0 -101 44 -155t163 -54q223 0 223 197l1 283q0 70 -7.5 105.5
t-23.5 49t-48 18.5q-10 2 -10 8t13 6l43 -2q42 -1 64 -1q20 0 50 2.5t33 2.5z" />
    <glyph glyph-name="Ucircumflex" unicode="&#xdb;" horiz-adv-x="791" 
d="M408 850q5 0 20.5 -12t43 -34t49.5 -37q7 -5 7 -8t-5.5 -7.5t-12.5 -4.5q-4 0 -19.5 8t-41.5 21.5t-45 21.5q-18 -8 -45.5 -21.5t-43.5 -21.5t-20 -8q-7 0 -11 4.5t-4 7.5q0 1 9 8q16 13 47 38t45 35t19 10h8zM761 704q13 0 13 -6t-12 -8q-49 -7 -60 -34.5t-11 -136.5
v-254q0 -74 -11.5 -117.5t-42.5 -78.5q-67 -78 -222 -78q-78 0 -138 19t-90 48q-34 34 -47.5 78.5t-13.5 137.5v245q0 82 -5 113.5t-16.5 41.5t-44.5 16q-8 1 -8 8q0 6 13 6l41 -2q40 -3 62 -3q34 0 76.5 2.5t44.5 2.5q13 0 13 -6q0 -7 -11 -9q-35 -5 -49 -15t-21 -45
t-6 -114l1 -271q0 -101 44 -155t163 -54q223 0 223 197l1 283q0 70 -7.5 105.5t-23.5 49t-48 18.5q-10 2 -10 8t13 6l43 -2q42 -1 64 -1q20 0 50 2.5t33 2.5z" />
    <glyph glyph-name="Udieresis" unicode="&#xdc;" horiz-adv-x="791" 
d="M371 825q4 0 4 -6q0 -2 -4.5 -6.5l-14 -14t-17.5 -18.5q-13 -15 -19 -26q-4 -7 -7 -7q-4 0 -6 5q-10 22 -14 28q-10 12 -23 17q-4 1 -4 5q0 5 5 6q7 2 25 3t23 2q10 2 22 5l20 5t10 2zM545 825q4 0 4 -6q0 -2 -4.5 -6.5t-14.5 -14t-18 -18.5q-13 -15 -19 -26q-3 -7 -7 -7
t-6 5q-10 24 -13 28q-10 12 -23 17q-4 1 -4 5q0 5 5 6q7 2 24.5 3t22.5 2q10 2 22.5 5t20.5 5t10 2zM761 704q13 0 13 -6t-12 -8q-49 -7 -60 -34.5t-11 -136.5v-254q0 -74 -11.5 -117.5t-42.5 -78.5q-67 -78 -222 -78q-78 0 -138 19t-90 48q-34 34 -47.5 78.5t-13.5 137.5
v245q0 82 -5 113.5t-16.5 41.5t-44.5 16q-8 1 -8 8q0 6 13 6l41 -2q40 -3 62 -3q34 0 76.5 2.5t44.5 2.5q13 0 13 -6q0 -7 -11 -9q-35 -5 -49 -15t-21 -45t-6 -114l1 -271q0 -101 44 -155t163 -54q223 0 223 197l1 283q0 70 -7.5 105.5t-23.5 49t-48 18.5q-10 2 -10 8t13 6
l43 -2q42 -1 64 -1q20 0 50 2.5t33 2.5z" />
    <glyph glyph-name="Yacute" unicode="&#xdd;" horiz-adv-x="682" 
d="M429 858q9 0 24 -12q16 -13 16 -21t-76.5 -43t-88.5 -35q-6 0 -10.5 4.5t-4.5 7.5q0 1 7 6q27 18 59.5 42t51 37.5t22.5 13.5zM95 706q64 0 88 -31q11 -12 41 -61.5t76.5 -130t66.5 -113.5q101 190 130 239q34 55 57.5 75.5t62.5 20.5q33 0 58 -10q8 -3 8 -7q0 -6 -4 -6
q-1 0 -8 1.5t-12 1.5q-9 0 -18 -1.5t-18 -7t-15 -9t-15 -13t-13.5 -13.5t-14 -17t-12 -17t-13 -19.5t-12.5 -18.5q-34 -50 -74.5 -122.5t-53.5 -100.5q-8 -13 -8 -47l1 -182q0 -60 12 -78.5t62 -26.5q14 -2 14 -7q0 -7 -9 -7q-29 0 -69.5 1t-64.5 1q-8 0 -58 -2t-52 -2
q-11 0 -11 6q0 7 11 8q31 4 44 10.5t21.5 30.5t8.5 74v171q0 16 -10 37q-24 52 -86.5 149.5t-111.5 162.5q-29 38 -65 38q-8 0 -16 -2l-8 -2q-5 0 -5 8q0 4 11.5 8.5t34 7.5t49.5 3z" />
    <glyph glyph-name="Thorn" unicode="&#xde;" horiz-adv-x="596" 
d="M347 573q93 0 147 -44t54 -134q0 -102 -56.5 -162.5t-142.5 -60.5q-32 0 -47 5q-8 1 -8 7q0 7 6 7l11 -1q11 -2 24 -2q61 0 92 47.5t31 127.5q0 87 -47.5 133t-126.5 46q-29 0 -59 -5v-22l1 -302q1 -127 13.5 -160t70.5 -42q15 -1 15 -8q0 -6 -10 -6q-33 0 -79.5 1.5
t-74.5 1.5q-6 0 -49 -2t-51 -2q-11 0 -11 6q0 5 11 8q36 7 48.5 21t19 63.5t6.5 170.5v245q0 53 -1 79t-4 49t-11.5 31.5t-19 13t-31.5 7.5q-11 2 -11 7q0 7 13 7q4 0 43 -2.5t57 -2.5q22 0 70 1.5t51 1.5q13 0 13 -7q0 -5 -11 -6q-44 -6 -55.5 -25t-12.5 -97q114 6 122 6z
" />
    <glyph glyph-name="germandbls" unicode="&#xdf;" horiz-adv-x="621" 
d="M309 565q134 0 193 -99q5 -8 5 -11q0 -4 -11 -11l-137 -77q-10 -6 -10 -11q0 -8 16 -19.5t63 -38.5q21 -12 33 -19q57 -31 82 -65.5t25 -81.5q0 -62 -48 -102t-122 -40q-77 0 -124 26q-3 4 -3 7q0 4 0.5 13t0.5 14t-1.5 22.5t-1.5 30.5q0 17 3 25q2 5 7 5t5 -5v-6
q-1 -6 -1 -11q0 -32 28 -62t95 -31q43 -1 66.5 23.5t23.5 59.5q0 38 -21 63.5t-83 60.5q-72 41 -96.5 63t-24.5 47q0 12 9 17l129 72q12 7 12 13q0 8 -8 25q-32 80 -109 80q-116 0 -116 -181l1 -176q2 -107 8 -135t33 -36q15 -5 15 -9q0 -6 -9 -6q-7 0 -38.5 0.5t-63.5 0.5
q-7 0 -43.5 -1.5t-50.5 -1.5q-10 0 -10 6t11 7q30 3 41.5 14t17 48t5.5 123v148q0 112 53.5 167t150.5 55z" />
    <glyph glyph-name="agrave" unicode="&#xe0;" horiz-adv-x="623" 
d="M250 729q4 0 22 -13.5t51 -38t59 -42.5q7 -5 7 -6q0 -3 -5 -7t-12 -4q-12 0 -87 34.5t-75 42.5q0 9 16 22q15 12 24 12zM319 565q6 0 10 -9l39 -94l130 -312q33 -80 53.5 -107t52.5 -33q14 -3 14 -9q0 -5 -6 -5q-4 0 -49 2t-73 2q-12 0 -47 -1.5t-48 -1.5q-7 0 -7 6
q0 5 11 7q42 7 42 31q0 21 -15 57l-42 105l-192 -1l-44 -97q-16 -34 -16 -58q0 -32 41 -36q11 -1 11 -7t-9 -6q-6 0 -39 2t-44 2q-15 0 -46 -2t-36 -2q-9 0 -9 5t10 7q30 4 50 31t58 107l142 300q35 74 48 106q6 11 10 11zM294 429l-86 -192l163 2z" />
    <glyph glyph-name="aacute" unicode="&#xe1;" horiz-adv-x="623" 
d="M375 729q9 0 24 -12q16 -13 16 -22q0 -8 -75 -42.5t-87 -34.5q-7 0 -12 4t-5 7q0 1 7 6q26 18 59 42.5t51 38t22 13.5zM319 565q6 0 10 -9l39 -94l130 -312q33 -80 53.5 -107t52.5 -33q14 -3 14 -9q0 -5 -6 -5q-4 0 -49 2t-73 2q-12 0 -47 -1.5t-48 -1.5q-7 0 -7 6
q0 5 11 7q42 7 42 31q0 21 -15 57l-42 105l-192 -1l-44 -97q-16 -34 -16 -58q0 -32 41 -36q11 -1 11 -7t-9 -6q-6 0 -39 2t-44 2q-15 0 -46 -2t-36 -2q-9 0 -9 5t10 7q30 4 50 31t58 107l142 300q35 74 48 106q6 11 10 11zM294 429l-86 -192l163 2z" />
    <glyph glyph-name="acircumflex" unicode="&#xe2;" horiz-adv-x="623" 
d="M321 721q5 0 20.5 -12t43 -34t49.5 -37q7 -5 7 -8t-5.5 -7.5t-12.5 -4.5q-4 0 -19.5 8t-41.5 21.5t-45 21.5q-18 -8 -45.5 -21.5t-43.5 -21.5t-20 -8q-7 0 -11 4.5t-4 7.5q0 1 9 8q16 13 47 38t45 35t19 10h8zM319 565q6 0 10 -9l39 -94l130 -312q33 -80 53.5 -107
t52.5 -33q14 -3 14 -9q0 -5 -6 -5q-4 0 -49 2t-73 2q-12 0 -47 -1.5t-48 -1.5q-7 0 -7 6q0 5 11 7q42 7 42 31q0 21 -15 57l-42 105l-192 -1l-44 -97q-16 -34 -16 -58q0 -32 41 -36q11 -1 11 -7t-9 -6q-6 0 -39 2t-44 2q-15 0 -46 -2t-36 -2q-9 0 -9 5t10 7q30 4 50 31
t58 107l142 300q35 74 48 106q6 11 10 11zM294 429l-86 -192l163 2z" />
    <glyph glyph-name="atilde" unicode="&#xe3;" horiz-adv-x="623" 
d="M278 692q20 0 49 -20q28 -20 48 -20q18 0 41 18t24 18q3 0 6.5 -5t3.5 -8t-6 -10q-63 -61 -93 -61q-19 0 -49 21q-27 20 -48 20q-18 0 -41 -18t-24 -18q-4 0 -7.5 5t-3.5 8t7 10q62 60 93 60zM319 565q6 0 10 -9l39 -94l130 -312q33 -80 53.5 -107t52.5 -33q14 -3 14 -9
q0 -5 -6 -5q-4 0 -49 2t-73 2q-12 0 -47 -1.5t-48 -1.5q-7 0 -7 6q0 5 11 7q42 7 42 31q0 21 -15 57l-42 105l-192 -1l-44 -97q-16 -34 -16 -58q0 -32 41 -36q11 -1 11 -7t-9 -6q-6 0 -39 2t-44 2q-15 0 -46 -2t-36 -2q-9 0 -9 5t10 7q30 4 50 31t58 107l142 300
q35 74 48 106q6 11 10 11zM294 429l-86 -192l163 2z" />
    <glyph glyph-name="adieresis" unicode="&#xe4;" horiz-adv-x="623" 
d="M281 709q4 0 4 -7q0 -2 -5 -6.5t-15 -14t-19 -19.5q-14 -16 -20 -27q-3 -8 -7 -8q-5 0 -7 6q-11 25 -14 29q-13 13 -25 17q-4 1 -4 6t6 6q7 2 26 3t24 2q11 2 23.5 5t21 5.5t11.5 2.5zM458 709q4 0 4 -7q0 -2 -5 -6.5t-15 -14t-19 -19.5q-14 -16 -20 -27q-3 -8 -7 -8
q-6 0 -7 6q-11 25 -14 29q-13 13 -25 17q-4 1 -4 6t5 6q7 2 26.5 3t24.5 2q11 2 23.5 5t21 5.5t11.5 2.5zM319 565q6 0 10 -9l39 -94l130 -312q33 -80 53.5 -107t52.5 -33q14 -3 14 -9q0 -5 -6 -5q-4 0 -49 2t-73 2q-12 0 -47 -1.5t-48 -1.5q-7 0 -7 6q0 5 11 7q42 7 42 31
q0 21 -15 57l-42 105l-192 -1l-44 -97q-16 -34 -16 -58q0 -32 41 -36q11 -1 11 -7t-9 -6q-6 0 -39 2t-44 2q-15 0 -46 -2t-36 -2q-9 0 -9 5t10 7q30 4 50 31t58 107l142 300q35 74 48 106q6 11 10 11zM294 429l-86 -192l163 2z" />
    <glyph glyph-name="aring" unicode="&#xe5;" horiz-adv-x="623" 
d="M314 747q41 0 63 -21t22 -55q0 -35 -22 -56t-63 -21q-40 0 -61.5 21t-21.5 56q0 34 21.5 55t61.5 21zM314 717q-20 0 -32.5 -12.5t-12.5 -33.5q0 -22 12.5 -35t32.5 -13q21 0 33.5 13t12.5 35q0 21 -13 33.5t-33 12.5zM319 565q6 0 10 -9l39 -94l130 -312
q33 -80 53.5 -107t52.5 -33q14 -3 14 -9q0 -5 -6 -5q-4 0 -49 2t-73 2q-12 0 -47 -1.5t-48 -1.5q-7 0 -7 6q0 5 11 7q42 7 42 31q0 21 -15 57l-42 105l-192 -1l-44 -97q-16 -34 -16 -58q0 -32 41 -36q11 -1 11 -7t-9 -6q-6 0 -39 2t-44 2q-15 0 -46 -2t-36 -2q-9 0 -9 5
t10 7q30 4 50 31t58 107l142 300q35 74 48 106q6 11 10 11zM294 429l-86 -192l163 2z" />
    <glyph glyph-name="ae" unicode="&#xe6;" horiz-adv-x="677" 
d="M244 554q0 6 12 6q20 0 65 -0.5t68 -0.5q85 0 200 5q6 1 9.5 1.5t5 1t2.5 0.5q4 0 4 -4l-1 -13q-1 -14 -1 -20v-39q0 -9 -6 -9q-3 0 -6 8q-5 25 -31 32.5t-69 8.5q-41 1 -76 -3q-1 -13 -1 -116v-108h84q46 0 61.5 5.5t20.5 22.5q2 4 4 12q1 7 6 7t5 -6q0 -1 -1 -12
t-2.5 -26t-1.5 -27q0 -11 0.5 -33t0.5 -25q0 -5 -5 -5q-6 0 -6 5q-3 35 -17 43t-60 8l-89 1v-104q0 -74 7 -109q6 -28 86 -28q48 0 69.5 7.5t32.5 27.5q5 8 8 8q6 0 6 -4q0 -3 -4 -11q0 -1 -4 -10t-6 -15q-4 -12 -10 -33q-1 -6 -6 -6q-3 0 -11 0.5t-13 0.5q-111 3 -183 3
q-20 0 -68.5 -1.5t-52.5 -1.5q-8 0 -8 6t10 7q44 8 52 33t8 164l-141 -2l-43 -101q-16 -38 -16 -61q0 -16 8 -23t30 -10q11 -3 11 -6q0 -7 -9 -7q-6 0 -36 2t-40 2q-15 0 -46.5 -2t-35.5 -2q-9 0 -9 6q0 4 9 6q34 4 53.5 30t55.5 108l130 298q31 66 43 98q-20 4 -41 4
q-11 1 -11 6zM205 237l127 1v176q0 93 -9 110z" />
    <glyph glyph-name="ccedilla" unicode="&#xe7;" horiz-adv-x="619" 
d="M568 121q5 0 5 -4q0 -30 -12 -73q-5 -18 -7.5 -22.5t-9.5 -7.5q-22 -7 -55 -13q-50 -10 -116 -10h-23q-10 -12 -15 -19q35 -18 35 -52q0 -24 -20.5 -54t-41 -48t-25.5 -18q-4 0 -7 3.5t-3 6.5t3 6q37 35 37 62q0 20 -24 34q-19 12 -19 17q0 8 18 26q19 18 37 38
q-120 12 -196 82t-76 210q0 130 84 206t229 76q36 0 100 -11q15 -3 35 -6.5t30 -5.5t14 -2q7 0 13 4.5t7 4.5q7 0 7 -5q0 -1 -1.5 -13.5t-1.5 -17.5q-2 -19 -2 -75q0 -8 -6 -8q-4 0 -7 10q-12 42 -76 69.5t-120 27.5q-106 0 -158 -61t-52 -169q0 -130 73 -209t173 -79
q72 0 113.5 25.5t53.5 66.5q3 8 7 8z" />
    <glyph glyph-name="egrave" unicode="&#xe8;" horiz-adv-x="460" 
d="M179 729q4 0 22 -13.5t51 -38t59 -42.5q7 -5 7 -6q0 -3 -5 -7t-12 -4q-12 0 -87 34.5t-75 42.5q0 9 16 22q15 12 24 12zM390 567q4 0 4 -4l-1 -13q-1 -14 -1 -20l-1 -39q0 -8 -4 -8q-6 0 -7 7q-4 18 -22 27.5t-34 11t-45 2.5q-40 1 -75 -3q-2 -26 -2 -116v-108h84
q46 0 62 5.5t21 22.5l3 12q3 7 6 7q5 0 5 -6q0 -1 -1.5 -12t-2.5 -26t-1 -27q0 -11 0.5 -33t0.5 -25q0 -5 -5 -5t-5 5q-3 35 -17 43t-61 8l-89 1l1 -104q0 -77 8 -109q6 -28 84 -28q47 0 68.5 8t33.5 27q5 8 8 8q6 0 6 -5q0 -4 -3 -10t-10 -27l-10 -31q-2 -6 -6 -6l-8 1h-17
q-108 3 -183 3q-20 0 -69.5 -1.5t-50.5 -1.5q-8 0 -8 6t10 7q36 6 44 17q14 18 15 115v69v203q0 40 -1 60t-3 36.5t-8.5 22t-14.5 8.5t-24 5q-9 1 -9 7t10 6h22.5t48 -0.5t44.5 -0.5q82 0 192 5q5 1 9.5 1.5t6 1t2.5 0.5z" />
    <glyph glyph-name="eacute" unicode="&#xe9;" horiz-adv-x="460" 
d="M312 729q9 0 24 -12q16 -13 16 -22q0 -8 -75 -42.5t-87 -34.5q-7 0 -12 4t-5 7q0 1 7 6q26 18 59 42.5t51 38t22 13.5zM390 567q4 0 4 -4l-1 -13q-1 -14 -1 -20l-1 -39q0 -8 -4 -8q-6 0 -7 7q-4 18 -22 27.5t-34 11t-45 2.5q-40 1 -75 -3q-2 -26 -2 -116v-108h84
q46 0 62 5.5t21 22.5l3 12q3 7 6 7q5 0 5 -6q0 -1 -1.5 -12t-2.5 -26t-1 -27q0 -11 0.5 -33t0.5 -25q0 -5 -5 -5t-5 5q-3 35 -17 43t-61 8l-89 1l1 -104q0 -77 8 -109q6 -28 84 -28q47 0 68.5 8t33.5 27q5 8 8 8q6 0 6 -5q0 -4 -3 -10t-10 -27l-10 -31q-2 -6 -6 -6l-8 1h-17
q-108 3 -183 3q-20 0 -69.5 -1.5t-50.5 -1.5q-8 0 -8 6t10 7q36 6 44 17q14 18 15 115v69v203q0 40 -1 60t-3 36.5t-8.5 22t-14.5 8.5t-24 5q-9 1 -9 7t10 6h22.5t48 -0.5t44.5 -0.5q82 0 192 5q5 1 9.5 1.5t6 1t2.5 0.5z" />
    <glyph glyph-name="ecircumflex" unicode="&#xea;" horiz-adv-x="460" 
d="M246 721q5 0 20.5 -12t43 -34t49.5 -37q7 -5 7 -8t-5.5 -7.5t-12.5 -4.5q-4 0 -19.5 8t-41.5 21.5t-45 21.5q-18 -8 -45.5 -21.5t-43.5 -21.5t-20 -8q-7 0 -11 4.5t-4 7.5q0 1 9 8q16 13 47 38t45 35t19 10h8zM390 567q4 0 4 -4l-1 -13q-1 -14 -1 -20l-1 -39q0 -8 -4 -8
q-6 0 -7 7q-4 18 -22 27.5t-34 11t-45 2.5q-40 1 -75 -3q-2 -26 -2 -116v-108h84q46 0 62 5.5t21 22.5l3 12q3 7 6 7q5 0 5 -6q0 -1 -1.5 -12t-2.5 -26t-1 -27q0 -11 0.5 -33t0.5 -25q0 -5 -5 -5t-5 5q-3 35 -17 43t-61 8l-89 1l1 -104q0 -77 8 -109q6 -28 84 -28
q47 0 68.5 8t33.5 27q5 8 8 8q6 0 6 -5q0 -4 -3 -10t-10 -27l-10 -31q-2 -6 -6 -6l-8 1h-17q-108 3 -183 3q-20 0 -69.5 -1.5t-50.5 -1.5q-8 0 -8 6t10 7q36 6 44 17q14 18 15 115v69v203q0 40 -1 60t-3 36.5t-8.5 22t-14.5 8.5t-24 5q-9 1 -9 7t10 6h22.5t48 -0.5
t44.5 -0.5q82 0 192 5q5 1 9.5 1.5t6 1t2.5 0.5z" />
    <glyph glyph-name="edieresis" unicode="&#xeb;" horiz-adv-x="460" 
d="M208 709q4 0 4 -7q0 -2 -5 -6.5t-15 -14t-19 -19.5q-14 -16 -20 -27q-3 -8 -7 -8q-6 0 -7 6q-11 25 -14 29q-13 13 -25 17q-4 1 -4 6t6 6q7 2 26 3t24 2q11 2 23.5 5t21 5.5t11.5 2.5zM385 709q4 0 4 -7q0 -2 -5 -6.5t-15 -14t-19 -19.5q-14 -16 -20 -27q-3 -8 -7 -8
q-5 0 -7 6q-11 25 -14 29q-13 13 -25 17q-4 1 -4 6t5 6q7 2 26.5 3t24.5 2q11 2 23.5 5t21 5.5t11.5 2.5zM390 567q4 0 4 -4l-1 -13q-1 -14 -1 -20l-1 -39q0 -8 -4 -8q-6 0 -7 7q-4 18 -22 27.5t-34 11t-45 2.5q-40 1 -75 -3q-2 -26 -2 -116v-108h84q46 0 62 5.5t21 22.5
l3 12q3 7 6 7q5 0 5 -6q0 -1 -1.5 -12t-2.5 -26t-1 -27q0 -11 0.5 -33t0.5 -25q0 -5 -5 -5t-5 5q-3 35 -17 43t-61 8l-89 1l1 -104q0 -77 8 -109q6 -28 84 -28q47 0 68.5 8t33.5 27q5 8 8 8q6 0 6 -5q0 -4 -3 -10t-10 -27l-10 -31q-2 -6 -6 -6l-8 1h-17q-108 3 -183 3
q-20 0 -69.5 -1.5t-50.5 -1.5q-8 0 -8 6t10 7q36 6 44 17q14 18 15 115v69v203q0 40 -1 60t-3 36.5t-8.5 22t-14.5 8.5t-24 5q-9 1 -9 7t10 6h22.5t48 -0.5t44.5 -0.5q82 0 192 5q5 1 9.5 1.5t6 1t2.5 0.5z" />
    <glyph glyph-name="igrave" unicode="&#xec;" horiz-adv-x="323" 
d="M93 729q4 0 22 -13.5t51 -38t59 -42.5q7 -5 7 -6q0 -3 -5 -7t-12 -4q-12 0 -87 34.5t-75 42.5q0 9 16 22q15 12 24 12zM61 563q3 0 37 -2t47 -2q15 0 60 1t52 1q11 0 11 -5q0 -6 -9 -7q-19 -3 -27.5 -6.5t-16 -9.5t-9.5 -22.5t-3 -37t-1 -61.5l1 -241q1 -102 10 -128
t54 -32q13 -1 13 -8q0 -6 -9 -6q-30 0 -66 1.5t-55 1.5q-11 0 -50.5 -1.5t-45.5 -1.5q-9 0 -9 5q0 4 9 7q29 6 39.5 17.5t16 51t5.5 134.5v195q0 42 -1 62.5t-3.5 38.5t-9.5 24.5t-16 10.5t-26 7q-9 2 -9 7q0 6 11 6z" />
    <glyph glyph-name="iacute" unicode="&#xed;" horiz-adv-x="323" 
d="M222 729q9 0 24 -12q16 -13 16 -22q0 -8 -75 -42.5t-87 -34.5q-7 0 -12 4t-5 7q0 1 7 6q26 18 59 42.5t51 38t22 13.5zM61 563q3 0 37 -2t47 -2q15 0 60 1t52 1q11 0 11 -5q0 -6 -9 -7q-19 -3 -27.5 -6.5t-16 -9.5t-9.5 -22.5t-3 -37t-1 -61.5l1 -241q1 -102 10 -128
t54 -32q13 -1 13 -8q0 -6 -9 -6q-30 0 -66 1.5t-55 1.5q-11 0 -50.5 -1.5t-45.5 -1.5q-9 0 -9 5q0 4 9 7q29 6 39.5 17.5t16 51t5.5 134.5v195q0 42 -1 62.5t-3.5 38.5t-9.5 24.5t-16 10.5t-26 7q-9 2 -9 7q0 6 11 6z" />
    <glyph glyph-name="icircumflex" unicode="&#xee;" horiz-adv-x="323" 
d="M161 721q5 0 20.5 -12t43 -34t49.5 -37q7 -5 7 -8t-5.5 -7.5t-12.5 -4.5q-4 0 -19.5 8t-41.5 21.5t-45 21.5q-18 -8 -45.5 -21.5t-43.5 -21.5t-20 -8q-7 0 -11 4.5t-4 7.5q0 1 9 8q16 13 47 38t45 35t19 10h8zM61 563q3 0 37 -2t47 -2q15 0 60 1t52 1q11 0 11 -5
q0 -6 -9 -7q-19 -3 -27.5 -6.5t-16 -9.5t-9.5 -22.5t-3 -37t-1 -61.5l1 -241q1 -102 10 -128t54 -32q13 -1 13 -8q0 -6 -9 -6q-30 0 -66 1.5t-55 1.5q-11 0 -50.5 -1.5t-45.5 -1.5q-9 0 -9 5q0 4 9 7q29 6 39.5 17.5t16 51t5.5 134.5v195q0 42 -1 62.5t-3.5 38.5t-9.5 24.5
t-16 10.5t-26 7q-9 2 -9 7q0 6 11 6z" />
    <glyph glyph-name="idieresis" unicode="&#xef;" horiz-adv-x="323" 
d="M123 709q4 0 4 -7q0 -2 -5 -6.5t-15 -14t-19 -19.5q-14 -16 -20 -27q-3 -8 -7 -8q-5 0 -7 6q-10 25 -14 29q-13 13 -25 17q-4 1 -4 6t6 6q7 2 26 3t24 2q11 2 23.5 5t21 5.5t11.5 2.5zM300 709q4 0 4 -7q0 -2 -5 -6.5t-15 -14t-19 -19.5q-14 -16 -20 -27q-3 -8 -7 -8
q-6 0 -7 6q-10 25 -14 29q-13 13 -25 17q-4 1 -4 6t5 6q7 2 26.5 3t24.5 2q11 2 23.5 5t21 5.5t11.5 2.5zM61 563q3 0 37 -2t47 -2q15 0 60 1t52 1q11 0 11 -5q0 -6 -9 -7q-19 -3 -27.5 -6.5t-16 -9.5t-9.5 -22.5t-3 -37t-1 -61.5l1 -241q1 -102 10 -128t54 -32q13 -1 13 -8
q0 -6 -9 -6q-30 0 -66 1.5t-55 1.5q-11 0 -50.5 -1.5t-45.5 -1.5q-9 0 -9 5q0 4 9 7q29 6 39.5 17.5t16 51t5.5 134.5v195q0 42 -1 62.5t-3.5 38.5t-9.5 24.5t-16 10.5t-26 7q-9 2 -9 7q0 6 11 6z" />
    <glyph glyph-name="eth" unicode="&#xf0;" horiz-adv-x="702" 
d="M349 566q149 0 224.5 -74t75.5 -191q0 -135 -88 -220.5t-253 -85.5q-35 0 -95.5 3t-71.5 3q-19 0 -53 -1l-33 -2q-9 0 -9 7q0 6 10 7q42 6 50.5 41t8.5 210h-71q-7 0 -9 2.5t-2 10.5q0 14 12 14h70v125q0 89 -8 107t-52 23q-9 1 -9 8t11 7q2 0 33.5 -1t50.5 -1
q10 0 100.5 4t107.5 4zM314 23q118 0 176 65.5t58 187.5q0 116 -60.5 187t-177.5 71q-45 0 -101 -8q-5 -34 -5 -137v-98h155q6 0 8 -2.5t2 -10.5q0 -15 -12 -15h-153v-93q0 -97 10 -121q8 -14 41.5 -20t58.5 -6z" />
    <glyph glyph-name="ntilde" unicode="&#xf1;" horiz-adv-x="732" 
d="M353 692q20 0 49 -20q28 -20 48 -20q18 0 41 18t24 18q3 0 6.5 -5t3.5 -8t-6 -10q-63 -61 -93 -61q-19 0 -49 21q-27 20 -48 20q-18 0 -41 -18t-24 -18q-4 0 -7.5 5t-3.5 8t7 10q62 60 93 60zM123 580q4 0 11 -6q127 -129 449 -432l1 267q0 75 -13 104t-53 35
q-12 3 -12 8t9 5q6 0 43 -1.5t46 -1.5q15 0 46.5 2t35.5 2q9 0 9 -6q0 -4 -9 -6q-41 -5 -49 -25.5t-10 -112.5q-3 -252 -3 -302v-125q0 -8 -5 -8q-2 0 -26 24q-62 64 -212.5 210t-227.5 216v-276q0 -91 7.5 -114.5t47.5 -27.5q11 -1 11 -6q0 -6 -8 -6q-6 0 -40 1t-43 1
q-15 0 -46.5 -1.5t-35.5 -1.5q-9 0 -9 5q0 4 9 7q38 8 47.5 30.5t11.5 109.5q8 262 8 297v128q0 7 10 7z" />
    <glyph glyph-name="ograve" unicode="&#xf2;" horiz-adv-x="711" 
d="M286 729q4 0 22 -13.5t51 -38t59 -42.5q7 -5 7 -6q0 -3 -5 -7t-12 -4q-12 0 -87 34.5t-75 42.5q0 9 16 22q15 12 24 12zM350 569q139 0 223.5 -77t84.5 -207q0 -133 -77 -212.5t-221 -79.5q-60 0 -113 16t-97.5 49t-70.5 91.5t-26 135.5q0 132 78.5 208t218.5 76z
M345 540q-94 0 -144.5 -63t-50.5 -170q0 -141 62 -213.5t165 -72.5q78 0 130 65.5t52 173.5q0 132 -57 206t-157 74z" />
    <glyph glyph-name="oacute" unicode="&#xf3;" horiz-adv-x="711" 
d="M415 729q9 0 24 -12q16 -13 16 -22q0 -8 -75 -42.5t-87 -34.5q-7 0 -12 4t-5 7q0 1 7 6q26 18 59 42.5t51 38t22 13.5zM350 569q139 0 223.5 -77t84.5 -207q0 -133 -77 -212.5t-221 -79.5q-60 0 -113 16t-97.5 49t-70.5 91.5t-26 135.5q0 132 78.5 208t218.5 76zM345 540
q-94 0 -144.5 -63t-50.5 -170q0 -141 62 -213.5t165 -72.5q78 0 130 65.5t52 173.5q0 132 -57 206t-157 74z" />
    <glyph glyph-name="ocircumflex" unicode="&#xf4;" horiz-adv-x="711" 
d="M358 721q5 0 20.5 -12t43 -34t49.5 -37q7 -5 7 -8t-5.5 -7.5t-12.5 -4.5q-4 0 -19.5 8t-41.5 21.5t-45 21.5q-18 -8 -45.5 -21.5t-43.5 -21.5t-20 -8q-7 0 -11 4.5t-4 7.5q0 1 9 8q16 13 47 38t45 35t19 10h8zM350 569q139 0 223.5 -77t84.5 -207q0 -133 -77 -212.5
t-221 -79.5q-60 0 -113 16t-97.5 49t-70.5 91.5t-26 135.5q0 132 78.5 208t218.5 76zM345 540q-94 0 -144.5 -63t-50.5 -170q0 -141 62 -213.5t165 -72.5q78 0 130 65.5t52 173.5q0 132 -57 206t-157 74z" />
    <glyph glyph-name="otilde" unicode="&#xf5;" horiz-adv-x="711" 
d="M318 692q20 0 49 -20q28 -20 48 -20q18 0 41 18t24 18q3 0 6.5 -5t3.5 -8t-6 -10q-63 -61 -93 -61q-19 0 -49 21q-27 20 -48 20q-18 0 -41 -18t-24 -18q-4 0 -7.5 5t-3.5 8t7 10q62 60 93 60zM350 569q139 0 223.5 -77t84.5 -207q0 -133 -77 -212.5t-221 -79.5
q-60 0 -113 16t-97.5 49t-70.5 91.5t-26 135.5q0 132 78.5 208t218.5 76zM345 540q-94 0 -144.5 -63t-50.5 -170q0 -141 62 -213.5t165 -72.5q78 0 130 65.5t52 173.5q0 132 -57 206t-157 74z" />
    <glyph glyph-name="odieresis" unicode="&#xf6;" horiz-adv-x="711" 
d="M319 709q4 0 4 -7q0 -2 -5 -6.5t-15 -14t-19 -19.5q-14 -16 -20 -27q-3 -8 -7 -8q-5 0 -7 6q-11 25 -14 29q-13 13 -25 17q-4 1 -4 6t6 6q7 2 26 3t24 2q11 2 23.5 5t21 5.5t11.5 2.5zM496 709q4 0 4 -7q0 -2 -5 -6.5t-15 -14t-19 -19.5q-14 -16 -20 -27q-3 -8 -7 -8
q-6 0 -7 6q-11 25 -14 29q-13 13 -25 17q-4 1 -4 6t5 6q7 2 26.5 3t24.5 2q11 2 23.5 5t21 5.5t11.5 2.5zM350 569q139 0 223.5 -77t84.5 -207q0 -133 -77 -212.5t-221 -79.5q-60 0 -113 16t-97.5 49t-70.5 91.5t-26 135.5q0 132 78.5 208t218.5 76zM345 540
q-94 0 -144.5 -63t-50.5 -170q0 -141 62 -213.5t165 -72.5q78 0 130 65.5t52 173.5q0 132 -57 206t-157 74z" />
    <glyph glyph-name="divide" unicode="&#xf7;" horiz-adv-x="450" 
d="M238 420q4 0 5 -4q4 -10 16 -25q15 -18 21 -20q4 -1 4 -5q0 -5 -5 -6q-17 -4 -34 -14q-18 -11 -22 -16q-5 -7 -7 -7q-4 0 -6 5q-6 13 -14 24q-15 18 -23 21q-4 1 -4 5q0 5 5 6q14 3 35 15q17 9 22 16q4 5 7 5zM384 273q6 0 8 -2.5t2 -10.5q0 -15 -12 -15h-313
q-7 0 -9 2.5t-2 10.5q0 14 12 14zM238 191q4 0 5 -4q4 -10 16 -25q15 -18 21 -20q4 -1 4 -5q0 -5 -5 -6q-17 -4 -34 -14q-18 -11 -22 -16q-5 -7 -7 -7q-4 0 -6 5q-6 13 -14 24q-15 18 -23 21q-4 1 -4 5q0 5 5 6q14 3 35 15q17 9 22 16q4 5 7 5z" />
    <glyph glyph-name="oslash" unicode="&#xf8;" horiz-adv-x="711" 
d="M541 517q117 -77 117 -232q0 -133 -77 -212.5t-221 -79.5q-86 0 -152 30l-53 -78q-5 -7 -10 -7t-13 5t-8 10q0 3 18 29l37 56q-126 73 -126 247q0 132 78.5 208t218.5 76q92 0 164 -36l40 60q6 8 11 8q3 0 11.5 -5.5t8.5 -8.5q0 -5 -17 -30zM150 307q0 -142 65 -217
l268 397q-55 53 -138 53q-94 0 -144.5 -63t-50.5 -170zM377 21q78 0 130 65.5t52 173.5q0 130 -55 203l-266 -395q56 -47 139 -47z" />
    <glyph glyph-name="ugrave" unicode="&#xf9;" horiz-adv-x="667" 
d="M260 729q4 0 22 -13.5t51 -38t59 -42.5q7 -5 7 -6q0 -3 -5 -7t-12 -4q-12 0 -87 34.5t-75 42.5q0 9 16 22q15 12 24 12zM632 562q11 0 11 -6t-10 -8q-29 -5 -40 -15t-14.5 -33.5t-3.5 -85.5v-199q0 -108 -47 -159q-62 -64 -189 -64q-129 0 -187 54q-29 26 -41.5 64
t-12.5 108v196q0 91 -7.5 110.5t-44.5 24.5q-8 2 -8 7q0 6 11 6q1 0 16 -1t35.5 -2t35.5 -1q34 0 72 2l38 2q11 0 11 -6q0 -8 -9 -8q-41 -2 -53 -25t-11 -112l1 -200q1 -86 36 -132t129 -46q180 0 180 164l1 214q1 80 -12.5 105.5t-51.5 30.5q-10 1 -10 7q0 7 11 7
q2 0 18 -0.5t38.5 -1.5t39.5 -1q18 0 42 2t26 2z" />
    <glyph glyph-name="uacute" unicode="&#xfa;" horiz-adv-x="667" 
d="M412 729q9 0 24 -12q16 -13 16 -22q0 -8 -75 -42.5t-87 -34.5q-7 0 -12 4t-5 7q0 1 7 6q26 18 59 42.5t51 38t22 13.5zM632 562q11 0 11 -6t-10 -8q-29 -5 -40 -15t-14.5 -33.5t-3.5 -85.5v-199q0 -108 -47 -159q-62 -64 -189 -64q-129 0 -187 54q-29 26 -41.5 64
t-12.5 108v196q0 91 -7.5 110.5t-44.5 24.5q-8 2 -8 7q0 6 11 6q1 0 16 -1t35.5 -2t35.5 -1q34 0 72 2l38 2q11 0 11 -6q0 -8 -9 -8q-41 -2 -53 -25t-11 -112l1 -200q1 -86 36 -132t129 -46q180 0 180 164l1 214q1 80 -12.5 105.5t-51.5 30.5q-10 1 -10 7q0 7 11 7
q2 0 18 -0.5t38.5 -1.5t39.5 -1q18 0 42 2t26 2z" />
    <glyph glyph-name="ucircumflex" unicode="&#xfb;" horiz-adv-x="667" 
d="M336 721q5 0 20.5 -12t43 -34t49.5 -37q7 -5 7 -8t-5.5 -7.5t-12.5 -4.5q-4 0 -19.5 8t-41.5 21.5t-45 21.5q-18 -8 -45.5 -21.5t-43.5 -21.5t-20 -8q-7 0 -11 4.5t-4 7.5q0 1 9 8q16 13 47 38t45 35t19 10h8zM632 562q11 0 11 -6t-10 -8q-29 -5 -40 -15t-14.5 -33.5
t-3.5 -85.5v-199q0 -108 -47 -159q-62 -64 -189 -64q-129 0 -187 54q-29 26 -41.5 64t-12.5 108v196q0 91 -7.5 110.5t-44.5 24.5q-8 2 -8 7q0 6 11 6q1 0 16 -1t35.5 -2t35.5 -1q34 0 72 2l38 2q11 0 11 -6q0 -8 -9 -8q-41 -2 -53 -25t-11 -112l1 -200q1 -86 36 -132
t129 -46q180 0 180 164l1 214q1 80 -12.5 105.5t-51.5 30.5q-10 1 -10 7q0 7 11 7q2 0 18 -0.5t38.5 -1.5t39.5 -1q18 0 42 2t26 2z" />
    <glyph glyph-name="udieresis" unicode="&#xfc;" horiz-adv-x="667" 
d="M298 709q4 0 4 -7q0 -2 -5 -6.5t-15 -14t-19 -19.5q-14 -16 -20 -27q-3 -8 -7 -8q-6 0 -7 6q-11 25 -14 29q-13 13 -25 17q-4 1 -4 6t6 6q7 2 26 3t24 2q11 2 23.5 5t21 5.5t11.5 2.5zM475 709q4 0 4 -7q0 -2 -5 -6.5t-15 -14t-19 -19.5q-14 -16 -20 -27q-3 -8 -7 -8
q-5 0 -7 6q-11 25 -14 29q-13 13 -25 17q-4 1 -4 6t5 6q7 2 26.5 3t24.5 2q11 2 23.5 5t21 5.5t11.5 2.5zM632 562q11 0 11 -6t-10 -8q-29 -5 -40 -15t-14.5 -33.5t-3.5 -85.5v-199q0 -108 -47 -159q-62 -64 -189 -64q-129 0 -187 54q-29 26 -41.5 64t-12.5 108v196
q0 91 -7.5 110.5t-44.5 24.5q-8 2 -8 7q0 6 11 6q1 0 16 -1t35.5 -2t35.5 -1q34 0 72 2l38 2q11 0 11 -6q0 -8 -9 -8q-41 -2 -53 -25t-11 -112l1 -200q1 -86 36 -132t129 -46q180 0 180 164l1 214q1 80 -12.5 105.5t-51.5 30.5q-10 1 -10 7q0 7 11 7q2 0 18 -0.5t38.5 -1.5
t39.5 -1q18 0 42 2t26 2z" />
    <glyph glyph-name="yacute" unicode="&#xfd;" horiz-adv-x="580" 
d="M373 729q9 0 24 -12q16 -13 16 -22q0 -8 -75 -42.5t-87 -34.5q-7 0 -12 4t-5 7q0 1 7 6q26 18 59 42.5t51 38t22 13.5zM88 565q52 0 75 -26q10 -11 32.5 -47t65.5 -109t52 -89q10 24 49 94.5t58 100.5q26 43 48 59t56 16q24 0 50 -8q7 -1 7 -6q0 -6 -5 -6h-6q-6 1 -11 1
q-31 0 -54.5 -22.5t-54.5 -67.5q-27 -39 -60.5 -100t-41.5 -80q-10 -20 -10 -39l1 -142q0 -44 10 -60t51 -22q12 -2 12 -7q0 -7 -8 -7q-23 0 -58.5 1t-53.5 1q-10 0 -52.5 -1.5t-49.5 -1.5q-8 0 -8 6t9 7q37 5 49 19.5t12 70.5v124q0 14 -10 34q-22 45 -74 126.5t-93 130.5
q-24 28 -50 28q-5 0 -11.5 -1.5t-7.5 -1.5q-6 0 -6 7q0 4 11 8t31.5 7t45.5 3z" />
    <glyph glyph-name="thorn" unicode="&#xfe;" horiz-adv-x="501" 
d="M286 463q82 0 130 -35t48 -107q0 -82 -50.5 -130t-129.5 -48q-20 0 -38 5q-4 1 -4 5q0 6 5 6l9 -1q10 -1 21 -1q46 0 70 38t24 100q0 67 -37 102.5t-98 35.5q-15 0 -45 -3v-18l1 -241q1 -101 10 -127t54 -33q13 -1 13 -8q0 -6 -9 -6q-30 0 -72 1.5t-61 1.5q-5 0 -41 -1.5
t-43 -1.5q-9 0 -9 5q0 4 9 7q30 7 40.5 18.5t16 51t5.5 133.5v195q0 93 -8.5 115.5t-47.5 27.5q-10 0 -10 7q0 6 11 6q4 0 38 -2t47 -2q15 0 59.5 1t51.5 1q11 0 11 -5q0 -7 -9 -7q-26 -4 -36 -9.5t-15 -23t-6 -57.5q64 4 95 4z" />
    <glyph glyph-name="ydieresis" unicode="&#xff;" horiz-adv-x="580" 
d="M258 709q4 0 4 -7q0 -2 -5 -6.5t-15 -14t-19 -19.5q-14 -16 -20 -27q-3 -8 -7 -8q-6 0 -7 6q-10 25 -14 29q-13 13 -25 17q-4 1 -4 6t6 6q7 2 26 3t24 2q11 2 23.5 5t21 5.5t11.5 2.5zM435 709q4 0 4 -7q0 -2 -5 -6.5t-15 -14t-19 -19.5q-14 -16 -20 -27q-3 -8 -7 -8
q-5 0 -7 6q-10 25 -14 29q-13 13 -25 17q-4 1 -4 6t5 6q7 2 26.5 3t24.5 2q11 2 23.5 5t21 5.5t11.5 2.5zM88 565q52 0 75 -26q10 -11 32.5 -47t65.5 -109t52 -89q10 24 49 94.5t58 100.5q26 43 48 59t56 16q24 0 50 -8q7 -1 7 -6q0 -6 -5 -6h-6q-6 1 -11 1
q-31 0 -54.5 -22.5t-54.5 -67.5q-27 -39 -60.5 -100t-41.5 -80q-10 -20 -10 -39l1 -142q0 -44 10 -60t51 -22q12 -2 12 -7q0 -7 -8 -7q-23 0 -58.5 1t-53.5 1q-10 0 -52.5 -1.5t-49.5 -1.5q-8 0 -8 6t9 7q37 5 49 19.5t12 70.5v124q0 14 -10 34q-22 45 -74 126.5t-93 130.5
q-24 28 -50 28q-5 0 -11.5 -1.5t-7.5 -1.5q-6 0 -6 7q0 4 11 8t31.5 7t45.5 3z" />
    <glyph glyph-name="dotlessi" unicode="&#x131;" horiz-adv-x="323" 
d="M61 563q3 0 37 -2t47 -2q15 0 60 1t52 1q11 0 11 -5q0 -6 -9 -7q-19 -3 -27.5 -6.5t-16 -9.5t-9.5 -22.5t-3 -37t-1 -61.5l1 -241q1 -102 10 -128t54 -32q13 -1 13 -8q0 -6 -9 -6q-30 0 -66 1.5t-55 1.5q-11 0 -50.5 -1.5t-45.5 -1.5q-9 0 -9 5q0 4 9 7q29 6 39.5 17.5
t16 51t5.5 134.5v195q0 42 -1 62.5t-3.5 38.5t-9.5 24.5t-16 10.5t-26 7q-9 2 -9 7q0 6 11 6z" />
    <glyph glyph-name="Lslash" unicode="&#x141;" horiz-adv-x="561" 
d="M517 104q8 0 8 -5t-3 -13l-16 -39q-4 -10 -7 -19.5t-5 -16.5l-2 -7q-4 -10 -8 -10l-17 1q-240 5 -256 5t-52 -1t-66 -2.5t-31 -1.5q-11 0 -11 7q0 6 12 7q53 8 62.5 37.5t9.5 185.5v16l-75 -63q-3 -3 -8 -3q-3 0 -10 7q-4 4 -4 9q0 3 5 8l92 78v235q0 60 -2 91.5
t-11.5 48t-19 20.5t-33.5 7q-11 2 -11 7q0 7 13 7h7h17t24 -0.5t30 -0.5h32q33 0 74 1t44 1q13 0 13 -7q0 -5 -11 -7q-38 -5 -51.5 -16t-19.5 -47.5t-5 -128.5l1 -135l133 113q4 4 7 4t10 -7q5 -5 5 -11q0 -3 -5 -8l-150 -127v-80q0 -146 12 -188q4 -13 26 -16t82 -3
q79 0 115.5 12.5t49.5 45.5q4 9 6 9z" />
    <glyph glyph-name="lslash" unicode="&#x142;" horiz-adv-x="475" 
d="M440 93q7 0 7 -4l-3 -12q-3 -6 -13 -36q-3 -8 -5.5 -16.5t-4.5 -14.5t-2 -7q-3 -8 -7 -8l-17 1q-152 4 -204 4q-14 0 -47.5 -1t-61 -2t-28.5 -1q-9 0 -9 5q0 7 9 8q21 3 29 6.5t16.5 10t10.5 29t3 48t1 82.5v26l-54 -46q-3 -3 -8 -3q-3 0 -10 7q-4 4 -4 9q0 3 5 8l71 61
v168q0 63 -5 89t-14 33t-35 10q-9 1 -9 7t11 6h6h14t20 -0.5t25.5 -0.5h28.5q35 0 71 1t38 1q11 0 11 -6q0 -5 -9 -7q-32 -3 -44 -12t-17.5 -39.5t-4.5 -106.5v-69l89 76q4 4 7 4q5 0 10 -7q5 -5 5 -11q0 -3 -5 -8l-106 -90v-82q0 -119 11 -155q3 -10 20.5 -12.5t71.5 -2.5
q61 0 89 11t40 40q4 9 7 9z" />
    <glyph glyph-name="OE" unicode="&#x152;" horiz-adv-x="945" 
d="M406 712q22 0 92.5 -6.5t87.5 -6.5h51q135 0 198 7l22 3q5 0 5 -5l-2 -16q-1 -17 -1 -24v-46q0 -7 -5 -7t-6 5q-1 1 -1 3q-5 30 -26 38.5t-89 10.5q-69 2 -100 -5q-2 -21 -2 -148v-135h104q54 0 72 7t24 27l5 16q2 7 7 7t5 -4q0 -2 -1.5 -15.5t-3 -32.5t-1.5 -33t0.5 -42
t0.5 -31q0 -6 -5 -6q-6 0 -6 6q-3 44 -19 54t-72 10l-110 1l1 -131q0 -132 12 -157q11 -17 101 -17q59 0 85 9t39 34q3 6 6 6q8 0 8 -4q0 -3 -3 -10l-12 -32q-5 -16 -12 -38q-3 -8 -7 -8q-1 0 -7 0.5t-9 0.5q-84 4 -244 4q-15 0 -86 -4.5t-84 -4.5q-70 0 -131.5 20
t-113.5 61t-82.5 114t-30.5 170q0 164 91.5 259.5t254.5 95.5zM401 682q-117 0 -179.5 -80.5t-62.5 -216.5q0 -179 76 -271t203 -92q62 0 90 23q9 20 11 58.5t2 136.5v25v249q0 132 -10 152q-66 16 -130 16z" />
    <glyph glyph-name="oe" unicode="&#x153;" horiz-adv-x="809" 
d="M53 286q0 131 76.5 207.5t213.5 76.5q43 0 111 -11h94q80 0 179 6q3 0 5.5 0.5t4 1t2.5 0.5q4 0 4 -4q0 -1 -0.5 -6.5t-1 -12.5t-0.5 -12q0 -6 -0.5 -20t-0.5 -21t-3 -7q-6 0 -7 6q-5 25 -35 32.5t-81 8.5q-19 1 -62 -3q-1 -12 -1 -116v-109h80q49 0 66.5 6t22.5 22
q0 2 1 4.5t2 4.5t1 3q2 6 4 6q4 0 4 -4q0 -1 -2.5 -24.5t-2.5 -38.5q0 -12 0.5 -34t0.5 -24q0 -5 -4 -5q-5 0 -5 5q-3 36 -17.5 43.5t-65.5 7.5h-85v-105q1 -88 10 -116q6 -20 69 -20q58 0 83 7.5t36 27.5q3 5 5 5q6 0 6 -3t-3 -9q-1 -2 -4.5 -10.5t-5.5 -14.5
q-10 -32 -10 -34q-2 -6 -6 -6l-7 1h-10q-141 3 -198 3l-57 -1q-37 -6 -106 -6q-59 0 -110.5 16t-95 48.5t-69 91t-25.5 136.5zM150 308q0 -141 60 -213.5t160 -72.5q48 0 82 16q9 15 11 52t2 151v174q0 79 -6 104q-48 21 -121 21q-91 0 -139.5 -63.5t-48.5 -168.5z" />
    <glyph glyph-name="Scaron" unicode="&#x160;" horiz-adv-x="486" 
d="M242 760q-5 0 -18.5 9.5t-46 35.5t-46.5 37q-9 7 -9 8q0 4 4 8.5t11 4.5q4 0 20 -8t43.5 -21.5t45.5 -21.5q19 8 45 21.5t41.5 21.5t19.5 8q7 0 12.5 -4.5t5.5 -8.5q0 -3 -7 -8q-22 -15 -49.5 -36.5t-43 -33.5t-20.5 -12h-8zM263 710q23 0 71.5 -4.5t49.5 -4.5q4 0 9 3.5
t7 3.5q4 0 4 -4q0 -1 -1 -12t-1 -17q0 -8 3.5 -43t3.5 -51q0 -9 -5 -9t-6 5q-4 31 -21 53.5t-41 33t-46 15t-44 4.5q-45 0 -80.5 -29t-35.5 -83q0 -49 33.5 -84t121.5 -86q86 -50 119.5 -97t33.5 -99q0 -91 -67.5 -151t-158.5 -60q-87 0 -153 29q-3 1 -3 4q0 4 0.5 13
t0.5 14q0 10 -1.5 32t-1.5 31q0 30 3 39q2 5 6 5t4 -4q0 -1 -0.5 -6t-0.5 -8q0 -38 40.5 -78.5t116.5 -40.5q39 0 68 14t44.5 36.5t22.5 45.5t7 45q0 46 -31.5 80t-104.5 80q-92 56 -131.5 99.5t-39.5 111.5q0 69 54.5 121.5t150.5 52.5z" />
    <glyph glyph-name="scaron" unicode="&#x161;" horiz-adv-x="420" 
d="M206 618q-5 0 -18.5 9.5t-46 35.5t-46.5 37q-9 7 -9 8q0 4 4 8.5t11 4.5q4 0 20 -8t43.5 -21.5t45.5 -21.5q19 8 45 21.5t41.5 21.5t19.5 8q7 0 12.5 -4.5t5.5 -8.5q0 -3 -7 -8q-22 -15 -49.5 -36.5t-43 -33.5t-20.5 -12h-8zM182 -5q-83 0 -131 22q-3 1 -3 5
q0 3 0.5 10.5t0.5 11.5q0 7 -1 26.5t-1 27.5q0 19 3 31q1 5 6 5t5 -4l-1 -5v-8q0 -29 33.5 -62.5t97.5 -33.5q59 -1 87.5 34t28.5 75q0 35 -25.5 60t-88.5 65q-77 48 -110 84t-33 90q0 56 45 97.5t132 41.5q15 0 39 -2t42 -4t20 -2q4 0 8.5 3.5t6.5 3.5q5 0 5 -4
q0 -1 -1 -9.5t-1 -13.5q0 -11 2.5 -42.5t2.5 -40.5q0 -8 -5 -8q-6 0 -7 8q-7 47 -44.5 67.5t-80.5 20.5q-37 0 -66 -22.5t-29 -65.5q0 -38 26.5 -63t102.5 -71q73 -43 100.5 -80.5t27.5 -82.5q0 -71 -55 -118t-139 -47z" />
    <glyph glyph-name="Ydieresis" unicode="&#x178;" horiz-adv-x="682" 
d="M316 825q4 0 4 -6q0 -2 -4.5 -6.5l-14 -14t-17.5 -18.5q-13 -15 -19 -26q-3 -7 -7 -7t-6 5q-10 22 -14 28q-10 12 -23 17q-4 1 -4 5q0 5 5 6q7 2 25 3t23 2q10 2 22 5l20 5t10 2zM490 825q4 0 4 -6q0 -2 -4.5 -6.5t-14.5 -14t-18 -18.5q-13 -15 -19 -26q-4 -7 -7 -7
q-4 0 -6 5q-10 24 -13 28q-10 12 -23 17q-4 1 -4 5q0 5 5 6q7 2 24.5 3t22.5 2q10 2 22.5 5t20.5 5t10 2zM95 706q64 0 88 -31q11 -12 41 -61.5t76.5 -130t66.5 -113.5q101 190 130 239q34 55 57.5 75.5t62.5 20.5q33 0 58 -10q8 -3 8 -7q0 -6 -4 -6q-1 0 -8 1.5t-12 1.5
q-9 0 -18 -1.5t-18 -7t-15 -9t-15 -13t-13.5 -13.5t-14 -17t-12 -17t-13 -19.5t-12.5 -18.5q-34 -50 -74.5 -122.5t-53.5 -100.5q-8 -13 -8 -47l1 -182q0 -60 12 -78.5t62 -26.5q14 -2 14 -7q0 -7 -9 -7q-29 0 -69.5 1t-64.5 1q-8 0 -58 -2t-52 -2q-11 0 -11 6q0 7 11 8
q31 4 44 10.5t21.5 30.5t8.5 74v171q0 16 -10 37q-24 52 -86.5 149.5t-111.5 162.5q-29 38 -65 38q-8 0 -16 -2l-8 -2q-5 0 -5 8q0 4 11.5 8.5t34 7.5t49.5 3z" />
    <glyph glyph-name="Zcaron" unicode="&#x17d;" horiz-adv-x="760" 
d="M373 760q-5 0 -18.5 9.5t-46 35.5t-46.5 37q-9 7 -9 8q0 4 4 8.5t11 4.5q4 0 20 -8t43.5 -21.5t45.5 -21.5q19 8 45 21.5t41.5 21.5t19.5 8q7 0 12.5 -4.5t5.5 -8.5q0 -3 -7 -8q-22 -15 -49.5 -36.5t-43 -33.5t-20.5 -12h-8zM672 705q7 0 7 -4t-12 -17q-7 -7 -71 -84
t-136.5 -163.5t-85.5 -102.5q-139 -167 -188 -233q-8 -10 -8 -14q0 -5 12 -6q68 -7 237 -7q112 0 173.5 11t79.5 25.5t29 42.5q6 15 10 15q7 0 7 -6q0 -3 -2 -10t-2 -8q-4 -12 -22.5 -55.5t-26.5 -72.5q-6 -20 -9 -20l-19 1q-59 3 -384 3q-73 0 -138.5 -1.5t-68.5 -1.5
q-7 0 -7 6t111 139.5t166 197.5l234 284q-85 3 -215 3q-119 0 -214 -9q-29 -3 -40 -15t-16 -35q-2 -11 -7 -11q-6 0 -6 9q0 4 12 68l15 65q1 4 6 4q3 0 8 -0.5t7 -0.5q21 -1 302 -1z" />
    <glyph glyph-name="zcaron" unicode="&#x17e;" horiz-adv-x="632" 
d="M314 618q-5 0 -18.5 9.5t-46 35.5t-46.5 37q-9 7 -9 8q0 4 4 8.5t11 4.5q4 0 20 -8t43.5 -21.5t45.5 -21.5q19 8 45 21.5t41.5 21.5t19.5 8q7 0 12.5 -4.5t5.5 -8.5q0 -3 -7 -8q-22 -15 -49.5 -36.5t-43 -33.5t-20.5 -12h-8zM558 564q6 0 6 -5q0 -6 -11 -17
q-156 -172 -239 -268q-116 -136 -152 -185q-6 -6 -6 -11q0 -3 9 -4q52 -5 191 -5q93 0 142.5 7.5t64.5 18.5t24 33q7 13 10 13q6 0 6 -7t-4 -15q-2 -5 -17 -42t-23 -64q-5 -16 -8 -16q-1 0 -10.5 1t-15.5 1q-2 0 -101 0.5t-210 0.5q-62 0 -116 -1l-54 -1q-9 0 -9 6t229 268
l188 216q-71 3 -178 3q-90 0 -167 -7q-25 -3 -35 -12.5t-13 -27.5q-1 -9 -7 -9t-6 8q0 6 11 54l12 61q1 4 6 4l14 -1h250z" />
    <glyph glyph-name="florin" unicode="&#x192;" horiz-adv-x="513" 
d="M493 676q0 -2 -2.5 -17.5t-3.5 -24.5q-1 -24 -1 -41t0.5 -26.5t0.5 -11.5q0 -5 -6 -5t-9 16q-7 34 -25 59q-21 33 -56 33q-68 0 -88 -174q-12 -99 -14 -120h111q10 0 10 -9q0 -15 -8 -15h-116q-22 -169 -41 -267q-21 -104 -60 -153.5t-105 -49.5q-33 0 -65 20
q-15 9 -15 16t5 7q2 0 8 -2q18 -6 38 -6q47 0 72.5 34t41.5 122q14 79 38 279h-88q-7 0 -9 2.5t-2 9.5q0 11 12 11h90q2 16 6.5 54.5t6.5 59.5q22 207 165 207q12 0 45 -5q34 -6 41 -6q6 0 10 4q6 4 8 4q5 0 5 -5z" />
    <glyph glyph-name="circumflex" unicode="&#x2c6;" 
d="M4 721q5 0 20.5 -12t43 -34t49.5 -37q7 -5 7 -8t-5.5 -7.5t-12.5 -4.5q-4 0 -19.5 8t-41.5 21.5t-45 21.5q-18 -8 -45.5 -21.5t-43.5 -21.5t-20 -8q-7 0 -11 4.5t-4 7.5q0 1 9 8q16 13 47 38t45 35t19 10h8z" />
    <glyph glyph-name="caron" unicode="&#x2c7;" 
d="M-4 618q-5 0 -18.5 9.5t-46 35.5t-46.5 37q-9 7 -9 8q0 4 4 8.5t11 4.5q4 0 20 -8t43.5 -21.5t45.5 -21.5q19 8 45 21.5t41.5 21.5t19.5 8q7 0 12.5 -4.5t5.5 -8.5q0 -3 -7 -8q-22 -15 -49.5 -36.5t-43 -33.5t-20.5 -12h-8z" />
    <glyph glyph-name="breve" unicode="&#x2d8;" 
d="M68 673q4 -20 -2.5 -24t-20.5 8q-27 4 -44 23q-13 -17 -38 -20q-8 -14 -13 -14.5t1 16.5q21 4 38 40q1 5 13.5 9.5t21.5 4.5q10 0 11 -8q11 -31 33 -35z" />
    <glyph glyph-name="dotaccent" unicode="&#x2d9;" 
d="M53 710q4 0 4 -7q0 -2 -4.5 -6.5t-14.5 -14t-19 -19.5q-14 -16 -20 -27q-3 -8 -7 -8t-6 6q-1 1 -6 12.5t-9 16.5q-10 12 -24 17q-4 1 -4 6t5 6q7 2 26 3t24 2q11 2 23.5 5t21 5.5t10.5 2.5z" />
    <glyph glyph-name="ring" unicode="&#x2da;" 
d="M-1 747q41 0 63 -21t22 -55q0 -35 -22 -56t-63 -21q-40 0 -61.5 21t-21.5 56q0 34 21.5 55t61.5 21zM-1 717q-20 0 -32.5 -12.5t-12.5 -33.5q0 -22 12.5 -35t32.5 -13q21 0 33.5 13t12.5 35q0 21 -13 33.5t-33 12.5z" />
    <glyph glyph-name="ogonek" unicode="&#x2db;" 
d="M22 -4l13 -2l2 -2q-20 -14 -39 -47t-19 -63q0 -19 10 -30.5t25 -11.5q26 0 58 19q4 4 8 4q8 0 8 -13q0 -4 -16 -14.5t-41 -19.5t-45 -9q-31 0 -49 19.5t-18 46.5q0 39 34 74t69 49z" />
    <glyph glyph-name="tilde" unicode="&#x2dc;" 
d="M-36 692q20 0 49 -20q28 -20 48 -20q18 0 41 18t24 18q3 0 6.5 -5t3.5 -8t-6 -10q-63 -61 -93 -61q-19 0 -49 21q-27 20 -48 20q-18 0 -41 -18t-24 -18q-4 0 -7.5 5t-3.5 8t7 10q62 60 93 60z" />
    <glyph glyph-name="hungarumlaut" unicode="&#x2dd;" 
d="M-33 723q5 0 27 -13q16 -11 16 -17q0 -7 -66.5 -41t-76.5 -34q-6 0 -13.5 4.5t-7.5 7.5q0 2 5 5q18 13 46.5 36t47 37.5t22.5 14.5zM111 723q5 0 27 -13q16 -11 16 -17q0 -7 -66.5 -41t-76.5 -34q-6 0 -13.5 4.5t-7.5 7.5q0 2 5 5q18 13 46.5 36t47 37.5t22.5 14.5z" />
    <glyph glyph-name="tonos" unicode="&#x384;" 
d="M-50 555q-9 0 -9 4l4 12q39 101 64 140q6 9 14 9q11 0 25.5 -5.5t14.5 -11.5q0 -8 -44.5 -70.5t-58.5 -74.5q-3 -3 -10 -3z" />
    <glyph glyph-name="Alphatonos" unicode="&#x386;" horiz-adv-x="727" 
d="M90 555q-9 0 -9 4l4 12q39 101 64 140q6 9 14 9q11 0 25.5 -5.5t14.5 -11.5q0 -8 -44.5 -70.5t-58.5 -74.5q-3 -3 -10 -3zM371 707q6 0 11 -10l46 -120l155 -390q39 -100 64.5 -134.5t63.5 -42.5q16 -3 16 -9t-10 -6q-7 0 -54 2.5t-75 2.5q-16 0 -57 -2t-56 -2q-9 0 -9 7
t8 7q54 5 54 38q0 26 -19 75l-51 134l-232 -2l-51 -124q-19 -46 -19 -73q0 -43 48 -47q13 -1 13 -6q0 -7 -10 -7q-7 0 -45 2t-51 2q-17 0 -55 -2t-44 -2q-9 0 -9 7q0 4 11 6q37 4 61 38.5t68 135.5l158 372q13 29 34 77t26 61q4 12 10 12zM347 548l-102 -252l197 3z" />
    <glyph glyph-name="Epsilontonos" unicode="&#x388;" horiz-adv-x="547" 
d="M-50 555q-9 0 -9 4l4 12q39 101 64 140q6 9 14 9q11 0 25.5 -5.5t14.5 -11.5q0 -8 -44.5 -70.5t-58.5 -74.5q-3 -3 -10 -3zM459 709q5 0 5 -5l-1 -15q-1 -15 -1 -22l-1 -49q0 -9 -5 -9q-6 0 -7 8q-2 17 -12.5 27.5t-30 15.5t-36 6.5t-43.5 1.5q-45 1 -90 -4
q-2 -21 -2 -149v-135h101q54 0 74 7t26 27q1 3 4 15q2 8 6 8q6 0 6 -5l-4 -30q-3 -31 -3 -50q0 -14 1 -41.5t1 -31.5q0 -7 -6 -7t-6 7q-1 44 -18.5 53.5t-74.5 10.5l-107 1l1 -131q0 -103 10 -145q4 -18 28 -23.5t72 -5.5q59 0 85 9t39 34q4 7 7 7q7 0 7 -5q0 -3 -3 -10
l-12 -32q-5 -16 -12 -38q-3 -8 -7 -8h-10q-9 1 -17 1q-102 4 -212 4q-23 0 -81 -1.5t-59 -1.5q-10 0 -10 7q0 4 12 7q53 11 62.5 43t9.5 210v254q0 120 -7.5 141.5t-50.5 26.5q-11 2 -11 6q0 7 13 7h26t54.5 -0.5t48.5 -0.5q100 0 223 7q5 1 9.5 1.5t6 1t2.5 0.5z" />
    <glyph glyph-name="Etatonos" unicode="&#x389;" horiz-adv-x="877" 
d="M-50 555q-9 0 -9 4l4 12q39 101 64 140q6 9 14 9q11 0 25.5 -5.5t14.5 -11.5q0 -8 -44.5 -70.5t-58.5 -74.5q-3 -3 -10 -3zM797 704q13 0 13 -6t-12 -8q-49 -8 -60 -36t-11 -137v-252v-64t1 -51t1.5 -41t3 -31.5t4.5 -24t7 -16t9 -11.5t12 -7t15 -5t18 -3q11 -3 11 -9
t-11 -6q-7 0 -45.5 2t-46.5 2q-43 0 -89 -2t-67 -2q-10 0 -10 6q0 5 15 8q56 7 68.5 44t12.5 159v120q-84 6 -210 6q-137 0 -189 -6l1 -124q1 -127 10 -154q10 -32 49 -41q7 -2 17 -3q16 -3 16 -8q0 -7 -10 -7q-30 0 -74 2t-73 2q-7 0 -49.5 -2t-47.5 -2q-11 0 -11 6
q0 5 12 8q50 8 60 44.5t10 215.5v249q0 51 -1.5 76.5t-4 46.5t-11.5 28.5t-18.5 11.5t-31.5 7q-11 2 -11 7q0 8 13 8l42 -2q41 -3 61 -3q23 0 72 2.5t50 2.5q13 0 13 -7q0 -6 -11 -7q-33 -4 -46.5 -16t-19.5 -46t-6 -113v-127q72 -8 189 -8q155 0 210 6l1 129
q0 106 -11.5 136t-55.5 37q-10 2 -10 7q0 7 13 7q7 0 48 -1.5t67 -1.5t65 2.5t44 2.5z" />
    <glyph glyph-name="Iotatonos" unicode="&#x38a;" horiz-adv-x="391" 
d="M-50 555q-9 0 -9 4l4 12q39 101 64 140q6 9 14 9q11 0 25.5 -5.5t14.5 -11.5q0 -8 -44.5 -70.5t-58.5 -74.5q-3 -3 -10 -3zM81 704q4 0 42.5 -2.5t56.5 -2.5q22 0 70 1.5t52 1.5q13 0 13 -6q0 -5 -11 -7q-22 -3 -32 -7t-19.5 -12t-12 -29t-4 -47.5t-1.5 -78.5l1 -302
q1 -127 13 -160t67 -42q15 -1 15 -8q0 -6 -10 -6q-32 0 -77.5 1.5t-72.5 1.5q-6 0 -49 -2t-51 -2q-11 0 -11 6q0 4 11 7q36 7 49 21.5t19.5 64.5t6.5 170v245q0 53 -1 79t-4 49t-11.5 31.5t-19 13t-31.5 7.5q-11 2 -11 8t13 6z" />
    <glyph glyph-name="Omicrontonos" unicode="&#x38c;" horiz-adv-x="837" 
d="M-20 555q-9 0 -9 4l4 12q39 101 64 140q6 9 14 9q11 0 25.5 -5.5t14.5 -11.5q0 -8 -44.5 -70.5t-58.5 -74.5q-3 -3 -10 -3zM411 712q165 0 266 -96.5t101 -258.5q0 -167 -91.5 -266t-263.5 -99q-71 0 -133.5 20t-115.5 61t-84 114t-31 170q0 164 93 259.5t259 95.5z
M406 683q-120 0 -183.5 -80.5t-63.5 -217.5q0 -180 77.5 -272t206.5 -92q100 0 165.5 83.5t65.5 221.5q0 168 -71 262.5t-197 94.5z" />
    <glyph glyph-name="Upsilontonos" unicode="&#x38e;" horiz-adv-x="772" 
d="M-50 555q-9 0 -9 4l4 12q39 101 64 140q6 9 14 9q11 0 25.5 -5.5t14.5 -11.5q0 -8 -44.5 -70.5t-58.5 -74.5q-3 -3 -10 -3zM185 706q64 0 88 -31q11 -12 41 -61.5t76.5 -130t66.5 -113.5q101 190 130 239q34 55 57.5 75.5t62.5 20.5q33 0 58 -10q8 -3 8 -7q0 -6 -4 -6
q-1 0 -8 1.5t-12 1.5q-9 0 -18 -1.5t-18 -7t-15 -9t-15 -13t-13.5 -13.5t-14 -17t-12 -17t-13 -19.5t-12.5 -18.5q-34 -50 -74.5 -122.5t-53.5 -100.5q-8 -13 -8 -47l1 -182q0 -60 12 -78.5t62 -26.5q14 -2 14 -7q0 -7 -9 -7q-29 0 -69.5 1t-64.5 1q-8 0 -58 -2t-52 -2
q-11 0 -11 6q0 7 11 8q31 4 44 10.5t21.5 30.5t8.5 74v171q0 16 -10 37q-24 52 -86.5 149.5t-111.5 162.5q-29 38 -65 38q-8 0 -16 -2l-8 -2q-5 0 -5 8q0 4 11.5 8.5t34 7.5t49.5 3z" />
    <glyph glyph-name="Omegatonos" unicode="&#x38f;" horiz-adv-x="890" 
d="M10 555q-9 0 -9 4l4 12q39 101 64 140q6 9 14 9q11 0 25.5 -5.5t14.5 -11.5q0 -8 -44.5 -70.5t-58.5 -74.5q-3 -3 -10 -3zM437 712q157 0 253.5 -86t97.5 -229q1 -109 -54 -194.5t-136 -139.5q205 0 227 82q4 12 9 12q7 0 7 -7q0 -2 -0.5 -4t-1.5 -4.5t-1 -4.5
q0 -1 -14.5 -47t-17.5 -72q-4 -20 -9 -20l-38 1q-16 0 -107 1t-145 1q-12 0 -12 10q0 7 6 11q179 100 179 361q0 141 -66.5 220t-181.5 79q-111 0 -169.5 -76t-58.5 -205q0 -231 183 -379q5 -3 5 -9q0 -13 -12 -13q-241 0 -271 1l-19 -1q-5 0 -9 20q-3 25 -16 70.5t-13 46.5
q-2 10 -2 13q0 7 6 7q5 0 9 -12q25 -73 227 -81q-80 55 -134.5 145t-54.5 181q0 153 90.5 237.5t243.5 84.5z" />
    <glyph glyph-name="iotadieresistonos" unicode="&#x390;" horiz-adv-x="323" 
d="M123 709q4 0 4 -7q0 -2 -5 -6.5t-15 -14t-19 -19.5q-14 -16 -20 -27q-3 -8 -7 -8q-5 0 -7 6q-10 25 -14 29q-13 13 -25 17q-4 1 -4 6t6 6q7 2 26 3t24 2q11 2 23.5 5t21 5.5t11.5 2.5zM300 709q4 0 4 -7q0 -2 -5 -6.5t-15 -14t-19 -19.5q-14 -16 -20 -27q-3 -8 -7 -8
q-6 0 -7 6q-10 25 -14 29q-13 13 -25 17q-4 1 -4 6t5 6q7 2 26.5 3t24.5 2q11 2 23.5 5t21 5.5t11.5 2.5zM61 563q3 0 37 -2t47 -2q15 0 60 1t52 1q11 0 11 -5q0 -6 -9 -7q-19 -3 -27.5 -6.5t-16 -9.5t-9.5 -22.5t-3 -37t-1 -61.5l1 -241q1 -102 10 -128t54 -32q13 -1 13 -8
q0 -6 -9 -6q-30 0 -66 1.5t-55 1.5q-11 0 -50.5 -1.5t-45.5 -1.5q-9 0 -9 5q0 4 9 7q29 6 39.5 17.5t16 51t5.5 134.5v195q0 42 -1 62.5t-3.5 38.5t-9.5 24.5t-16 10.5t-26 7q-9 2 -9 7q0 6 11 6z" />
    <glyph glyph-name="Alpha" unicode="&#x391;" horiz-adv-x="727" 
d="M371 707q6 0 11 -10l46 -120l155 -390q39 -100 64.5 -134.5t63.5 -42.5q16 -3 16 -9t-10 -6q-7 0 -54 2.5t-75 2.5q-16 0 -57 -2t-56 -2q-9 0 -9 7t8 7q54 5 54 38q0 26 -19 75l-51 134l-232 -2l-51 -124q-19 -46 -19 -73q0 -43 48 -47q13 -1 13 -6q0 -7 -10 -7
q-7 0 -45 2t-51 2q-17 0 -55 -2t-44 -2q-9 0 -9 7q0 4 11 6q37 4 61 38.5t68 135.5l158 372q13 29 34 77t26 61q4 12 10 12zM347 548l-102 -252l197 3z" />
    <glyph glyph-name="Beta" unicode="&#x392;" horiz-adv-x="622" 
d="M278 701q206 0 206 -160q0 -54 -28 -100t-75 -69v-2q72 -7 130 -56t58 -121q0 -88 -63 -143.5t-160 -55.5q-12 0 -79 3.5t-93 3.5q-23 0 -62 -1.5t-40 -1.5q-11 0 -11 7q0 5 12 7q52 7 62 53.5t10 278.5v175v64t-3 43t-6.5 30t-13 15.5t-20 10.5t-30.5 4q-11 2 -11 7
q0 7 11 7q3 0 17.5 -0.5t38 -1t46.5 -0.5q13 0 51 1.5t53 1.5zM273 668q-22 0 -32 -2q-6 -41 -6 -149v-120q0 -11 19 -15q28 -4 75 -4q33 0 54 30.5t21 94.5q0 40 -10.5 71.5t-25.5 48.5t-34.5 27.5t-34 14t-26.5 3.5zM282 343h-41q-5 0 -5 -6v-126q0 -133 11 -157
q15 -34 95 -34q23 0 44 6t42.5 21.5t34 48t12.5 78.5q0 77 -53 123t-140 46z" />
    <glyph glyph-name="Gamma" unicode="&#x393;" horiz-adv-x="562" 
d="M325 -2q-3 0 -50.5 1t-83.5 1h-32.5t-30 -0.5t-24 -1t-16.5 -0.5h-7q-13 0 -13 7q0 5 11 7q24 4 33.5 7.5t19 20.5t11.5 48.5t2 91.5v287q0 157 -9.5 186.5t-62.5 36.5q-12 2 -12 7q0 7 11 7q1 0 31 -1t66 -2.5t52 -1.5q20 0 255 5h16l10 1q8 0 9 -8q0 -2 1.5 -9t3 -18
t3.5 -24q2 -11 3.5 -26t3 -24.5t1.5 -10.5q2 -14 2 -21q0 -6 -8 -6q-7 0 -9 15q-11 52 -44 69.5t-112 17.5q-64 0 -89.5 -3t-26.5 -15q-4 -37 -4 -187l-1 -251q-1 -93 6 -129t23 -46.5t62 -16.5q11 -2 11 -7q0 -7 -12 -7z" />
    <glyph glyph-name="uni0394" unicode="&#x394;" horiz-adv-x="645" 
d="M323 706q4 0 8 -6l51 -123l161 -390q55 -137 75 -170q1 -2 3.5 -4.5t4 -4.5t1.5 -5q0 -5 -6 -5t-39.5 1t-41.5 1q-19 0 -110 1t-111 1h-67.5t-45.5 0.5t-20 0.5q-9 0 -80.5 -2.5t-82.5 -2.5q-6 0 -6 7q0 1 1.5 3.5t3.5 6.5t3 5q20 29 75 158l158 379q42 102 55 138
q3 11 10 11zM297 553l-169 -422q-22 -54 -22 -78q0 -20 92 -20q98 0 154 0.5t88.5 2.5t42.5 4.5t10 7.5q0 16 -24 75l-53 135z" />
    <glyph glyph-name="Epsilon" unicode="&#x395;" horiz-adv-x="547" 
d="M459 709q5 0 5 -5l-1 -15q-1 -15 -1 -22l-1 -49q0 -9 -5 -9q-6 0 -7 8q-2 17 -12.5 27.5t-30 15.5t-36 6.5t-43.5 1.5q-45 1 -90 -4q-2 -21 -2 -149v-135h101q54 0 74 7t26 27q1 3 4 15q2 8 6 8q6 0 6 -5l-4 -30q-3 -31 -3 -50q0 -14 1 -41.5t1 -31.5q0 -7 -6 -7t-6 7
q-1 44 -18.5 53.5t-74.5 10.5l-107 1l1 -131q0 -103 10 -145q4 -18 28 -23.5t72 -5.5q59 0 85 9t39 34q4 7 7 7q7 0 7 -5q0 -3 -3 -10l-12 -32q-5 -16 -12 -38q-3 -8 -7 -8h-10q-9 1 -17 1q-102 4 -212 4q-23 0 -81 -1.5t-59 -1.5q-10 0 -10 7q0 4 12 7q53 11 62.5 43
t9.5 210v254q0 120 -7.5 141.5t-50.5 26.5q-11 2 -11 6q0 7 13 7h26t54.5 -0.5t48.5 -0.5q100 0 223 7q5 1 9.5 1.5t6 1t2.5 0.5z" />
    <glyph glyph-name="Zeta" unicode="&#x396;" horiz-adv-x="760" 
d="M672 705q7 0 7 -4t-12 -17q-7 -7 -71 -84t-136.5 -163.5t-85.5 -102.5q-139 -167 -188 -233q-8 -10 -8 -14q0 -5 12 -6q68 -7 237 -7q112 0 173.5 11t79.5 25.5t29 42.5q6 15 10 15q7 0 7 -6q0 -3 -2 -10t-2 -8q-4 -12 -22.5 -55.5t-26.5 -72.5q-6 -20 -9 -20l-19 1
q-59 3 -384 3q-73 0 -138.5 -1.5t-68.5 -1.5q-7 0 -7 6t111 139.5t166 197.5l234 284q-85 3 -215 3q-119 0 -214 -9q-29 -3 -40 -15t-16 -35q-2 -11 -7 -11q-6 0 -6 9q0 4 12 68l15 65q1 4 6 4q3 0 8 -0.5t7 -0.5q21 -1 302 -1z" />
    <glyph glyph-name="Eta" unicode="&#x397;" horiz-adv-x="877" 
d="M797 704q13 0 13 -6t-12 -8q-49 -8 -60 -36t-11 -137v-252v-64t1 -51t1.5 -41t3 -31.5t4.5 -24t7 -16t9 -11.5t12 -7t15 -5t18 -3q11 -3 11 -9t-11 -6q-7 0 -45.5 2t-46.5 2q-43 0 -89 -2t-67 -2q-10 0 -10 6q0 5 15 8q56 7 68.5 44t12.5 159v120q-84 6 -210 6
q-137 0 -189 -6l1 -124q1 -127 10 -154q10 -32 49 -41q7 -2 17 -3q16 -3 16 -8q0 -7 -10 -7q-30 0 -74 2t-73 2q-7 0 -49.5 -2t-47.5 -2q-11 0 -11 6q0 5 12 8q50 8 60 44.5t10 215.5v249q0 51 -1.5 76.5t-4 46.5t-11.5 28.5t-18.5 11.5t-31.5 7q-11 2 -11 7q0 8 13 8l42 -2
q41 -3 61 -3q23 0 72 2.5t50 2.5q13 0 13 -7q0 -6 -11 -7q-33 -4 -46.5 -16t-19.5 -46t-6 -113v-127q72 -8 189 -8q155 0 210 6l1 129q0 106 -11.5 136t-55.5 37q-10 2 -10 7q0 7 13 7q7 0 48 -1.5t67 -1.5t65 2.5t44 2.5z" />
    <glyph glyph-name="Theta" unicode="&#x398;" horiz-adv-x="837" 
d="M411 712q165 0 266 -96.5t101 -258.5q0 -167 -91.5 -266t-263.5 -99q-71 0 -133.5 20t-115.5 61t-84 114t-31 170q0 164 93 259.5t259 95.5zM406 683q-120 0 -183.5 -80.5t-63.5 -217.5q0 -180 77.5 -272t206.5 -92q100 0 165.5 83.5t65.5 221.5q0 168 -71 262.5
t-197 94.5zM581 441l-4 -31q-4 -32 -4 -56q0 -19 1 -45t1 -28q0 -6 -5 -6q-6 0 -6 6q-2 36 -19 45t-68 9h-128q-47 0 -66 -11.5t-21 -41.5q0 -7 -6 -7q-5 0 -5 6q0 3 2.5 37t2.5 55q0 17 -0.5 36.5t-0.5 29.5q0 6 5 6q4 0 6 -8q5 -18 7 -25q6 -13 17.5 -18.5t41.5 -5.5h139
q51 0 69 7t25 27q1 3 4 15q2 8 6 8q6 0 6 -4z" />
    <glyph glyph-name="Iota" unicode="&#x399;" horiz-adv-x="391" 
d="M81 704q4 0 42.5 -2.5t56.5 -2.5q22 0 70 1.5t52 1.5q13 0 13 -6q0 -5 -11 -7q-22 -3 -32 -7t-19.5 -12t-12 -29t-4 -47.5t-1.5 -78.5l1 -302q1 -127 13 -160t67 -42q15 -1 15 -8q0 -6 -10 -6q-32 0 -77.5 1.5t-72.5 1.5q-6 0 -49 -2t-51 -2q-11 0 -11 6q0 4 11 7
q36 7 49 21.5t19.5 64.5t6.5 170v245q0 53 -1 79t-4 49t-11.5 31.5t-19 13t-31.5 7.5q-11 2 -11 8t13 6z" />
    <glyph glyph-name="Kappa" unicode="&#x39a;" horiz-adv-x="748" 
d="M297 704q12 0 12 -7q0 -5 -9 -7q-31 -4 -42.5 -14.5t-17.5 -45t-6 -115.5v-155l242 231q54 54 54 78q0 17 -30 19q-13 1 -13 7t10 6q7 0 48.5 -1.5t52.5 -1.5q18 0 58 2.5t45 2.5q11 0 11 -7q0 -5 -11 -7q-49 -6 -75 -22.5t-96 -82.5l-216 -203l268 -278q49 -50 76 -67
t63 -25l19 -2q8 0 8 -6q0 -4 -5 -6q-8 -2 -26 -2q-7 0 -51 1.5t-55 1.5q-6 0 -24.5 -1.5t-23.5 -1.5q-3 0 -10 7l-319 342l1 -135q1 -132 12 -161.5t70 -36.5q17 -1 17 -9q0 -6 -10 -6q-18 0 -61 2t-88 2q-6 0 -52 -2t-53 -2q-8 0 -8 6q0 7 11 8q52 6 61.5 40.5t9.5 214.5
v254q0 80 -6.5 114.5t-19 43.5t-46.5 13q-11 2 -11 8t13 6q2 0 42.5 -2.5t70.5 -2.5q25 0 50 1.5t41.5 2.5t18.5 1z" />
    <glyph glyph-name="Lambda" unicode="&#x39b;" horiz-adv-x="767" 
d="M756 -5q-15 0 -50 2.5t-55 2.5q-27 0 -62.5 -1.5t-46.5 -1.5q-17 0 -17 6t9 8q20 5 27.5 7.5t12.5 7.5t5 13q0 16 -31 88l-193 426l-175 -416q-26 -62 -26 -91q0 -17 8.5 -24.5t31.5 -10.5q11 -1 11 -8q0 -6 -10 -6q-6 0 -45.5 2.5t-50.5 2.5q-15 0 -48.5 -3t-40.5 -3
q-11 0 -11 7q0 6 11 8q40 6 63.5 31t60.5 113l177 415q15 35 55 131q6 12 9 12q5 0 9 -10q14 -37 63 -144l177 -386q46 -103 67.5 -129.5t60.5 -32.5q16 -3 16 -10q0 -6 -12 -6z" />
    <glyph glyph-name="Mu" unicode="&#x39c;" horiz-adv-x="935" 
d="M196 712q6 0 8 -5q172 -367 273 -567l253 561q4 9 9 9q7 0 9 -6q0 -16 18 -137l54 -384q14 -103 31 -133.5t57 -39.5q16 -3 16 -9t-12 -6q-15 0 -49.5 2.5t-54.5 2.5q-19 0 -66 -2t-64 -2q-9 0 -9 8q0 7 8 7q65 9 65 46q0 33 -8 91l-48 357l-225 -507q-5 -12 -9 -12
q-3 0 -9 14q-132 297 -232 500l-37 -304q-9 -68 -9 -109q0 -38 23 -56t54 -21q13 -1 13 -8t-10 -7q-6 0 -52 2.5t-60 2.5q-18 0 -55.5 -2t-42.5 -2q-11 0 -11 7q0 6 11 8q49 7 61.5 32.5t27.5 135.5l48 373q13 102 17 153q0 7 7 7z" />
    <glyph glyph-name="Nu" unicode="&#x39d;" horiz-adv-x="888" 
d="M153 725q5 0 10 -5q205 -226 538 -562l1 351q0 97 -15.5 135t-63.5 44q-14 1 -14 8q0 5 11 5q7 0 51.5 -1.5t55.5 -1.5q18 0 55 2t42 2q11 0 11 -6t-11 -8q-48 -6 -57.5 -31.5t-12.5 -141.5q-4 -315 -4 -377l1 -157q0 -10 -7 -10q-1 0 -18 17q-86 97 -266.5 288
t-270.5 279v-364q0 -116 9.5 -145.5t58.5 -35.5q14 -3 14 -7q0 -7 -11 -7q-7 0 -47.5 1.5t-51.5 1.5q-18 0 -55 -2t-42 -2q-11 0 -11 6q0 5 11 8q44 7 55.5 36.5t14.5 139.5q10 327 10 371v161q0 8 9 8z" />
    <glyph glyph-name="Xi" unicode="&#x39e;" horiz-adv-x="611" 
d="M90 580q-4 0 -4 9v46q0 9 -1.5 38t-1.5 31q0 5 5 5q1 0 2 -0.5t3.5 -1t4.5 -0.5q77 -7 177 -7q132 0 211 7q2 0 5 1q4 1 5 1q5 0 5 -5q0 -2 -1.5 -31t-1.5 -38v-46q0 -9 -4 -9q-5 0 -6 8q-5 33 -32 42t-92 9h-144q-47 -1 -67.5 -3.5t-37 -13.5t-19.5 -34q-1 -8 -6 -8z
M136 275q-5 0 -5 6q0 3 2.5 35.5t2.5 51.5q0 20 -0.5 41t-0.5 30q0 6 5 6q4 0 6 -8q5 -18 7 -25q6 -13 17.5 -18.5t41.5 -5.5h147q51 0 69 7t25 27q1 3 4 15q2 8 6 8q6 0 6 -4l-4 -31q-4 -32 -4 -56q0 -19 1 -45t1 -28q0 -6 -5 -6q-6 0 -6 6q-3 36 -19.5 45t-67.5 9h-136
q-47 0 -65.5 -11.5t-21.5 -41.5q0 -7 -6 -7zM98 -4q-6 0 -9 8q0 2 -1.5 9.5t-4 21t-5.5 29.5q-3 13 -8 29.5t-6 23.5q-2 12 -2 15q0 5 6 5q3 0 6 -6q13 -36 40 -49.5t86 -13.5h209q60 0 87 13.5t40 49.5q3 6 6 6q6 0 6 -4q0 -6 -3 -17q-7 -25 -13 -47l-12 -65q-1 -8 -7 -8
q-1 0 -9 0.5t-14 0.5q-81 3 -194 3q-94 0 -184 -3q-3 0 -8 -0.5t-6 -0.5z" />
    <glyph glyph-name="Omicron" unicode="&#x39f;" horiz-adv-x="837" 
d="M411 712q165 0 266 -96.5t101 -258.5q0 -167 -91.5 -266t-263.5 -99q-71 0 -133.5 20t-115.5 61t-84 114t-31 170q0 164 93 259.5t259 95.5zM406 683q-120 0 -183.5 -80.5t-63.5 -217.5q0 -180 77.5 -272t206.5 -92q100 0 165.5 83.5t65.5 221.5q0 168 -71 262.5
t-197 94.5z" />
    <glyph glyph-name="Pi" unicode="&#x3a0;" horiz-adv-x="846" 
d="M71 -4q-11 0 -11 7q0 4 12 7q16 3 24.5 6.5t18 8.5t13 18t7.5 27.5t5 46t1.5 64t0.5 89.5v249q0 51 -1.5 76.5t-4 46.5t-11 28.5t-19 11.5t-31.5 7q-11 2 -11 7q0 8 13 8l35 -1q34 -1 84.5 -2t92.5 -1l279 -2q56 0 101 1.5t69 3t28 1.5q13 0 13 -6t-12 -8
q-26 -4 -38.5 -9.5t-20.5 -26t-9.5 -48.5t-1.5 -89v-252q0 -78 1.5 -116t4 -69.5t12 -42.5t20 -16.5t33.5 -9.5q11 -3 11 -9t-11 -6q-7 0 -45.5 2t-46.5 2q-43 0 -89 -2t-67 -2q-10 0 -10 7t15 8q56 8 68.5 44t12.5 158v442q-78 7 -177 7q-145 0 -197 -7l1 -446
q0 -125 10.5 -157t65.5 -41q15 -3 15 -8q0 -7 -10 -7q-30 0 -73.5 2t-72.5 2q-7 0 -49.5 -2t-47.5 -2z" />
    <glyph glyph-name="Rho" unicode="&#x3a1;" horiz-adv-x="607" 
d="M347 709q96 0 151.5 -44t55.5 -134q0 -103 -59 -162.5t-151 -59.5q-27 0 -45 6q-5 2 -5 6q0 6 6 6l12 -1q11 -2 25 -2q63 0 96.5 48t33.5 127q0 87 -47.5 132.5t-127.5 45.5q-23 0 -53 -5q-2 -18 -2 -157l1 -302q0 -133 11 -164.5t68 -38.5q21 -2 21 -8q0 -7 -15 -7
q-25 0 -69 2.5t-76 2.5q-7 0 -54 -2.5t-53 -2.5q-12 0 -12 6q0 5 12 8q26 5 36.5 11t21 16t13 42.5t4 69.5t1.5 117v254q0 74 -6 108t-19.5 46.5t-43.5 17.5q-8 1 -8 7q0 7 16 7q4 0 39 -2t57 -2q13 0 77.5 4t87.5 4z" />
    <glyph glyph-name="Sigma" unicode="&#x3a3;" horiz-adv-x="570" 
d="M514 148q7 0 7 -5q0 -3 -4 -17q-4 -13 -13 -55q-4 -21 -12 -67q-3 -8 -7 -8q-1 0 -7 0.5t-9 0.5q-90 3 -205 3q-92 0 -182 -3l-33 -1q-6 0 -7 7v2q1 9 21 40l202 327l-208 308q-9 14 -9 18q0 6 7 6q6 0 46 -2q38 -2 161 -2q117 0 196 7l10 2q5 0 5 -5q0 -2 -1.5 -21
t-1.5 -28v-58q0 -10 -4 -10q-6 0 -7 9q-6 40 -32.5 51.5t-90.5 11.5h-174l158 -237q11 -18 11 -23q0 -4 -9 -20l-186 -301h245q58 0 85 13.5t42 49.5q4 7 6 7z" />
    <glyph glyph-name="Tau" unicode="&#x3a4;" horiz-adv-x="646" 
d="M47 715q3 0 13 -2q3 0 11.5 -2t11.5 -2.5t12.5 -1.5t16.5 -2t20.5 -2t27 -1.5t34.5 -1t44 -1t54 -0.5h67q160 0 246 8q10 2 13 2q4 0 4 -5q0 -1 -1 -16t-1 -27q0 -9 -1 -35t-1 -28q0 -9 -5 -9q-6 0 -7 8q-5 38 -30.5 48.5t-84.5 12.5h-10q-74 0 -110 -1q-3 -13 -3 -37
l2 -439q0 -45 0.5 -68t4.5 -45t6.5 -29.5t14.5 -15t20.5 -8.5t31.5 -4q14 -2 14 -8q0 -7 -9 -7q-6 0 -52 2t-101 2q-6 0 -49 -2t-51 -2q-11 0 -11 7t11 8q38 7 51.5 17t20.5 43.5t7 112.5v441q0 22 -2 32q-30 1 -98 1q-35 -1 -52.5 -3t-38.5 -7.5t-31.5 -17t-15.5 -30.5
q-3 -10 -8 -10t-5 6q0 12 9 60q6 44 6 54q0 5 4 5z" />
    <glyph glyph-name="Upsilon" unicode="&#x3a5;" horiz-adv-x="683" 
d="M95 706q64 0 88 -31q11 -12 41 -61.5t76.5 -130t66.5 -113.5q101 190 130 239q34 55 57.5 75.5t62.5 20.5q33 0 58 -10q8 -3 8 -7q0 -6 -4 -6q-1 0 -8 1.5t-12 1.5q-9 0 -18 -1.5t-18 -7t-15 -9t-15 -13t-13.5 -13.5t-14 -17t-12 -17t-13 -19.5t-12.5 -18.5
q-34 -50 -74.5 -122.5t-53.5 -100.5q-8 -13 -8 -47l1 -182q0 -60 12 -78.5t62 -26.5q14 -2 14 -7q0 -7 -9 -7q-29 0 -69.5 1t-64.5 1q-8 0 -58 -2t-52 -2q-11 0 -11 6q0 7 11 8q31 4 44 10.5t21.5 30.5t8.5 74v171q0 16 -10 37q-24 52 -86.5 149.5t-111.5 162.5
q-29 38 -65 38q-8 0 -16 -2l-8 -2q-5 0 -5 8q0 4 11.5 8.5t34 7.5t49.5 3z" />
    <glyph glyph-name="Phi" unicode="&#x3a6;" horiz-adv-x="771" 
d="M717 361q0 -108 -74.5 -175.5t-215.5 -75.5q3 -65 18 -87t60 -28q15 -1 15 -8q0 -6 -10 -6q-32 0 -74 1.5t-65 1.5q-9 0 -53.5 -2t-51.5 -2q-11 0 -11 6q0 4 11 7q27 5 39 12t20.5 31t11.5 75q-123 11 -203 72.5t-80 177.5q0 105 74.5 169.5t210.5 73.5q-2 63 -16.5 81
t-59.5 24q-11 2 -11 7q0 7 13 7q4 0 49.5 -2.5t65.5 -2.5q18 0 62.5 1.5t48.5 1.5q13 0 13 -7q0 -4 -11 -6q-42 -6 -54 -22.5t-13 -82.5q133 -10 212 -75t79 -167zM143 383q0 -101 53 -162t143 -77q1 29 1 105v280v47q-97 -9 -147 -60t-50 -133zM426 139q91 5 145.5 58
t54.5 139q0 101 -52.5 162.5t-148.5 75.5v-40l1 -337v-58z" />
    <glyph glyph-name="Chi" unicode="&#x3a7;" horiz-adv-x="652" 
d="M597 705q11 0 11 -7q0 -5 -11 -7q-39 -4 -59 -25t-70 -106l-108 -185l112 -193q67 -111 94 -139.5t66 -34.5q11 -3 11 -8q0 -6 -8 -6q-19 0 -58.5 2.5t-60.5 2.5q-16 0 -62 -2t-64 -2q-10 0 -10 6q0 5 8 7q50 7 50 28q0 22 -50 113l-83 149l-70 -119q-70 -116 -70 -142
q0 -15 11 -21t35 -8q11 -1 11 -7t-10 -6q-6 0 -41.5 2.5t-49.5 2.5q-17 0 -54.5 -3t-40.5 -3q-11 0 -11 7q0 5 11 7q38 4 61.5 30t79.5 116l113 188l-123 209q-28 49 -37 64t-26 36t-30 27t-35 10q-9 2 -9 8t11 6q15 0 52 -1t57 -1q14 0 52.5 1t57.5 1q8 0 8 -6q0 -4 -9 -6
q-24 -4 -32.5 -10.5t-8.5 -21.5q0 -26 47 -105l80 -134l76 130q43 73 43 110q0 25 -40 31q-11 1 -11 7t10 6q6 0 43.5 -2t48.5 -2q17 0 52 3t40 3z" />
    <glyph glyph-name="Psi" unicode="&#x3a8;" horiz-adv-x="893" 
d="M840 704q13 0 13 -6t-8 -7q-21 -4 -30 -7.5t-18 -11.5t-11.5 -28t-4 -47t-1.5 -78v-31q0 -137 -65 -198.5t-222 -67.5v-9q0 -127 12 -160t67 -42q15 -1 15 -8q0 -6 -10 -6q-32 0 -77 1.5t-72 1.5q-6 0 -49 -2t-51 -2q-11 0 -11 6q0 4 11 7q34 7 46.5 19t19.5 54t8 140
q-158 7 -223.5 69t-65.5 197v31q0 51 -1.5 78t-4 47t-11.5 28t-18 11.5t-30 7.5q-8 1 -8 7t13 6q4 0 55 -2.5t68 -2.5q30 -1 30 -19l-1 -46q-1 -45 -1 -94v-70q1 -98 42.5 -151t155.5 -62v8v245q0 53 -1 79t-4 49t-11.5 31.5t-19 13t-31.5 7.5q-11 2 -11 8t13 6q3 0 42 -2.5
t58 -2.5q21 0 69 1.5t52 1.5q13 0 13 -6q0 -5 -11 -7q-22 -3 -32 -7t-19.5 -12t-12 -29t-3.5 -47.5t-1 -78.5l1 -259q59 4 99 21t60.5 47t28.5 64t8 82l1 70q0 36 -0.5 67.5t-1.5 51t-1 23.5q0 10 6.5 13t23.5 4q8 0 35 1.5t51 2.5t37 1z" />
    <glyph glyph-name="uni03A9" unicode="&#x3a9;" horiz-adv-x="890" 
d="M437 712q157 0 253.5 -86t97.5 -229q1 -109 -54 -194.5t-136 -139.5q205 0 227 82q4 12 9 12q7 0 7 -7q0 -2 -0.5 -4t-1.5 -4.5t-1 -4.5q0 -1 -14.5 -47t-17.5 -72q-4 -20 -9 -20l-38 1q-16 0 -107 1t-145 1q-12 0 -12 10q0 7 6 11q179 100 179 361q0 141 -66.5 220
t-181.5 79q-111 0 -169.5 -76t-58.5 -205q0 -231 183 -379q5 -3 5 -9q0 -13 -12 -13q-241 0 -271 1l-19 -1q-5 0 -9 20q-3 25 -16 70.5t-13 46.5q-2 10 -2 13q0 7 6 7q5 0 9 -12q25 -73 227 -81q-80 55 -134.5 145t-54.5 181q0 153 90.5 237.5t243.5 84.5z" />
    <glyph glyph-name="Iotadieresis" unicode="&#x3aa;" horiz-adv-x="391" 
d="M152 825q4 0 4 -6q0 -2 -4.5 -6.5l-14 -14t-17.5 -18.5q-13 -15 -19 -26q-3 -7 -7 -7t-6 5q-10 22 -14 28q-10 12 -23 17q-4 1 -4 5q0 5 5 6q7 2 25 3t23 2q10 2 22 5l20 5t10 2zM326 825q4 0 4 -6q0 -2 -4.5 -6.5t-14.5 -14t-18 -18.5q-13 -15 -19 -26q-4 -7 -7 -7
q-4 0 -6 5q-10 24 -13 28q-10 12 -23 17q-4 1 -4 5q0 5 5 6q7 2 24.5 3t22.5 2q10 2 22.5 5t20.5 5t10 2zM81 704q4 0 42.5 -2.5t56.5 -2.5q22 0 70 1.5t52 1.5q13 0 13 -6q0 -5 -11 -7q-22 -3 -32 -7t-19.5 -12t-12 -29t-4 -47.5t-1.5 -78.5l1 -302q1 -127 13 -160t67 -42
q15 -1 15 -8q0 -6 -10 -6q-32 0 -77.5 1.5t-72.5 1.5q-6 0 -49 -2t-51 -2q-11 0 -11 6q0 4 11 7q36 7 49 21.5t19.5 64.5t6.5 170v245q0 53 -1 79t-4 49t-11.5 31.5t-19 13t-31.5 7.5q-11 2 -11 8t13 6z" />
    <glyph glyph-name="Upsilondieresis" unicode="&#x3ab;" horiz-adv-x="682" 
d="M316 825q4 0 4 -6q0 -2 -4.5 -6.5l-14 -14t-17.5 -18.5q-13 -15 -19 -26q-3 -7 -7 -7t-6 5q-10 22 -14 28q-10 12 -23 17q-4 1 -4 5q0 5 5 6q7 2 25 3t23 2q10 2 22 5l20 5t10 2zM490 825q4 0 4 -6q0 -2 -4.5 -6.5t-14.5 -14t-18 -18.5q-13 -15 -19 -26q-4 -7 -7 -7
q-4 0 -6 5q-10 24 -13 28q-10 12 -23 17q-4 1 -4 5q0 5 5 6q7 2 24.5 3t22.5 2q10 2 22.5 5t20.5 5t10 2zM95 706q64 0 88 -31q11 -12 41 -61.5t76.5 -130t66.5 -113.5q101 190 130 239q34 55 57.5 75.5t62.5 20.5q33 0 58 -10q8 -3 8 -7q0 -6 -4 -6q-1 0 -8 1.5t-12 1.5
q-9 0 -18 -1.5t-18 -7t-15 -9t-15 -13t-13.5 -13.5t-14 -17t-12 -17t-13 -19.5t-12.5 -18.5q-34 -50 -74.5 -122.5t-53.5 -100.5q-8 -13 -8 -47l1 -182q0 -60 12 -78.5t62 -26.5q14 -2 14 -7q0 -7 -9 -7q-29 0 -69.5 1t-64.5 1q-8 0 -58 -2t-52 -2q-11 0 -11 6q0 7 11 8
q31 4 44 10.5t21.5 30.5t8.5 74v171q0 16 -10 37q-24 52 -86.5 149.5t-111.5 162.5q-29 38 -65 38q-8 0 -16 -2l-8 -2q-5 0 -5 8q0 4 11.5 8.5t34 7.5t49.5 3z" />
    <glyph glyph-name="alphatonos" unicode="&#x3ac;" horiz-adv-x="623" 
d="M319 565q6 0 10 -9l39 -94l130 -312q33 -80 53.5 -107t52.5 -33q14 -3 14 -9q0 -5 -6 -5q-4 0 -49 2t-73 2q-12 0 -47 -1.5t-48 -1.5q-7 0 -7 6q0 5 11 7q42 7 42 31q0 21 -15 57l-42 105l-192 -1l-44 -97q-16 -34 -16 -58q0 -32 41 -36q11 -1 11 -7t-9 -6q-6 0 -39 2
t-44 2q-15 0 -46 -2t-36 -2q-9 0 -9 5t10 7q30 4 50 31t58 107l142 300q35 74 48 106q6 11 10 11zM294 429l-86 -192l163 2z" />
    <glyph glyph-name="epsilontonos" unicode="&#x3ad;" horiz-adv-x="460" 
d="M390 567q4 0 4 -4l-1 -13q-1 -14 -1 -20l-1 -39q0 -8 -4 -8q-6 0 -7 7q-4 18 -22 27.5t-34 11t-45 2.5q-40 1 -75 -3q-2 -26 -2 -116v-108h84q46 0 62 5.5t21 22.5l3 12q3 7 6 7q5 0 5 -6q0 -1 -1.5 -12t-2.5 -26t-1 -27q0 -11 0.5 -33t0.5 -25q0 -5 -5 -5t-5 5
q-3 35 -17 43t-61 8l-89 1l1 -104q0 -77 8 -109q6 -28 84 -28q47 0 68.5 8t33.5 27q5 8 8 8q6 0 6 -5q0 -4 -3 -10t-10 -27l-10 -31q-2 -6 -6 -6l-8 1h-17q-108 3 -183 3q-20 0 -69.5 -1.5t-50.5 -1.5q-8 0 -8 6t10 7q36 6 44 17q14 18 15 115v69v203q0 40 -1 60t-3 36.5
t-8.5 22t-14.5 8.5t-24 5q-9 1 -9 7t10 6h22.5t48 -0.5t44.5 -0.5q82 0 192 5q5 1 9.5 1.5t6 1t2.5 0.5z" />
    <glyph glyph-name="etatonos" unicode="&#x3ae;" horiz-adv-x="730" 
d="M670 563q11 0 11 -6q0 -5 -10 -7q-40 -7 -49 -29t-9 -108v-201q0 -99 4 -135t14.5 -49t41.5 -18q9 -1 9 -8q0 -5 -10 -5q-6 0 -37.5 1.5t-38.5 1.5q-40 0 -83.5 -1.5t-57.5 -1.5q-11 0 -11 6q0 5 11 6q49 8 60.5 37.5t10.5 123.5v95q-61 5 -174 5q-105 0 -149 -6l1 -97
q1 -98 10 -123.5t54 -33.5q14 -1 14 -8q0 -5 -8 -5q-25 0 -65 1.5t-70 1.5q-6 0 -42 -1.5t-40 -1.5q-9 0 -9 5t10 8q42 10 50 37.5t8 168.5v199q0 90 -8 109t-47 24q-11 2 -11 7q0 8 12 8l36 -2q35 -2 51 -2q18 0 44.5 1t47 2t22.5 1q11 0 11 -6q0 -7 -9 -8q-40 -4 -51 -27
t-11 -110v-101q73 -7 148 -7q117 0 175 6l1 102q0 83 -10.5 107t-47.5 29q-9 2 -9 7q0 7 11 7q7 0 45 -1.5t62 -1.5q23 0 55.5 2t36.5 2z" />
    <glyph glyph-name="iotatonos" unicode="&#x3af;" horiz-adv-x="323" 
d="M61 563q3 0 37 -2t47 -2q15 0 60 1t52 1q11 0 11 -5q0 -6 -9 -7q-19 -3 -27.5 -6.5t-16 -9.5t-9.5 -22.5t-3 -37t-1 -61.5l1 -241q1 -102 10 -128t54 -32q13 -1 13 -8q0 -6 -9 -6q-25 0 -63 1.5t-58 1.5q-5 0 -47 -1.5t-49 -1.5q-9 0 -9 5q0 4 9 7q29 6 39.5 17.5t16 51
t5.5 134.5v195q0 42 -1 62.5t-3.5 38.5t-9.5 24.5t-16 10.5t-26 7q-9 2 -9 7q0 6 11 6z" />
    <glyph glyph-name="upsilondieresistonos" unicode="&#x3b0;" horiz-adv-x="580" 
d="M258 709q4 0 4 -7q0 -2 -5 -6.5t-15 -14t-19 -19.5q-14 -16 -20 -27q-3 -8 -7 -8q-6 0 -7 6q-10 25 -14 29q-13 13 -25 17q-4 1 -4 6t6 6q7 2 26 3t24 2q11 2 23.5 5t21 5.5t11.5 2.5zM435 709q4 0 4 -7q0 -2 -5 -6.5t-15 -14t-19 -19.5q-14 -16 -20 -27q-3 -8 -7 -8
q-5 0 -7 6q-10 25 -14 29q-13 13 -25 17q-4 1 -4 6t5 6q7 2 26.5 3t24.5 2q11 2 23.5 5t21 5.5t11.5 2.5zM88 565q52 0 75 -26q10 -11 32.5 -47t65.5 -109t52 -89q10 24 49 94.5t58 100.5q26 43 48 59t56 16q24 0 50 -8q7 -1 7 -6q0 -6 -5 -6h-6q-6 1 -11 1
q-31 0 -54.5 -22.5t-54.5 -67.5q-27 -39 -60.5 -100t-41.5 -80q-10 -20 -10 -39l1 -142q0 -44 10 -60t51 -22q12 -2 12 -7q0 -7 -8 -7q-23 0 -58.5 1t-53.5 1q-10 0 -52.5 -1.5t-49.5 -1.5q-8 0 -8 6t9 7q37 5 49 19.5t12 70.5v124q0 14 -10 34q-22 45 -74 126.5t-93 130.5
q-24 28 -50 28q-5 0 -11.5 -1.5t-7.5 -1.5q-6 0 -6 7q0 4 11 8t31.5 7t45.5 3z" />
    <glyph glyph-name="alpha" unicode="&#x3b1;" horiz-adv-x="623" 
d="M319 565q6 0 10 -9l39 -94l130 -312q33 -80 53.5 -107t52.5 -33q14 -3 14 -9q0 -5 -6 -5q-4 0 -49 2t-73 2q-12 0 -47 -1.5t-48 -1.5q-7 0 -7 6q0 5 11 7q42 7 42 31q0 21 -15 57l-42 105l-192 -1l-44 -97q-16 -34 -16 -58q0 -32 41 -36q11 -1 11 -7t-9 -6q-6 0 -39 2
t-44 2q-15 0 -46 -2t-36 -2q-9 0 -9 5t10 7q30 4 50 31t58 107l142 300q35 74 48 106q6 11 10 11zM294 429l-86 -192l163 2z" />
    <glyph glyph-name="beta" unicode="&#x3b2;" horiz-adv-x="527" 
d="M238 561q168 0 175 -128q0 -45 -25 -81t-66 -55v-1q67 -8 114.5 -46t47.5 -96q0 -71 -53 -114.5t-141 -44.5q-18 -1 -74 2.5t-76 3.5q-19 0 -52 -1l-34 -2q-9 0 -9 6t10 7q43 8 51 44t8 220v140q0 90 -8 108.5t-52 22.5q-9 2 -9 8t9 6q2 0 14 -0.5t31.5 -1t40.5 -0.5
q11 0 47.5 1.5t50.5 1.5zM233 531q-17 0 -29 -2q-5 -26 -5 -116v-94q0 -7 4.5 -9t16.5 -4q22 -2 60 -2q22 0 39 24t17 74q0 40 -12 68t-30 40t-33 16.5t-28 4.5zM241 273h-37q-5 0 -5 -5v-99q0 -103 10 -124q12 -27 77 -27q109 0 109 121q0 61 -43.5 97.5t-110.5 36.5z" />
    <glyph glyph-name="gamma" unicode="&#x3b3;" horiz-adv-x="498" 
d="M293 -2q-3 0 -42.5 1t-77.5 1q-21 0 -43 -0.5t-35.5 -1t-15.5 -0.5q-11 0 -11 7q0 5 9 7q35 5 44.5 28.5t9.5 104.5v260q0 70 -5 96.5t-16 35t-43 12.5q-10 1 -10 8q0 6 10 6q3 0 61 -2t78 -2q36 0 122.5 2t100.5 2l22 1q7 0 8 -5l6 -39q6 -50 8 -56q3 -12 3 -18
q0 -7 -7 -7q-6 0 -9 11q-11 44 -41.5 60.5t-103.5 16.5q-56 0 -77 -4t-21 -17v-330q0 -106 11.5 -130.5t66.5 -32.5q10 -2 10 -8q0 -7 -12 -7z" />
    <glyph glyph-name="delta" unicode="&#x3b4;" horiz-adv-x="582" 
d="M286 565q6 0 8 -5l191 -405q55 -117 64 -132q9 -14 9 -20q0 -5 -6 -5q-5 0 -29.5 1t-31.5 1q-18 0 -109.5 1t-110.5 1h-113q-8 0 -63.5 -2t-64.5 -2q-5 0 -5 6q0 1 12 25q4 7 50 107l142 310q9 20 19.5 43.5t18.5 40.5t9 20q6 15 10 15zM267 430l-97 -218l-41 -93
q-20 -50 -20 -59q0 -8 3.5 -12t19.5 -6.5t44.5 -3.5t83.5 -1q179 0 179 10q0 7 -26 66l-52 112z" />
    <glyph glyph-name="epsilon" unicode="&#x3b5;" horiz-adv-x="460" 
d="M390 567q4 0 4 -4l-1 -13q-1 -14 -1 -20l-1 -39q0 -8 -4 -8q-6 0 -7 7q-4 18 -22 27.5t-34 11t-45 2.5q-40 1 -75 -3q-2 -26 -2 -116v-108h84q46 0 62 5.5t21 22.5l3 12q3 7 6 7q5 0 5 -6q0 -1 -1.5 -12t-2.5 -26t-1 -27q0 -11 0.5 -33t0.5 -25q0 -5 -5 -5t-5 5
q-3 35 -17 43t-61 8l-89 1l1 -104q0 -77 8 -109q6 -28 84 -28q47 0 68.5 8t33.5 27q5 8 8 8q6 0 6 -5q0 -4 -3 -10t-10 -27l-10 -31q-2 -6 -6 -6l-8 1h-17q-108 3 -183 3q-20 0 -69.5 -1.5t-50.5 -1.5q-8 0 -8 6t10 7q36 6 44 17q14 18 15 115v69v203q0 40 -1 60t-3 36.5
t-8.5 22t-14.5 8.5t-24 5q-9 1 -9 7t10 6h22.5t48 -0.5t44.5 -0.5q82 0 192 5q5 1 9.5 1.5t6 1t2.5 0.5z" />
    <glyph glyph-name="zeta" unicode="&#x3b6;" horiz-adv-x="632" 
d="M558 564q6 0 6 -5q0 -6 -11 -17q-156 -172 -239 -268q-116 -136 -152 -185q-6 -6 -6 -11q0 -3 9 -4q52 -5 191 -5q93 0 142.5 7.5t64.5 18.5t24 33q7 13 10 13q6 0 6 -7t-4 -15q-2 -5 -17 -42t-23 -64q-5 -16 -8 -16q-1 0 -10.5 1t-15.5 1q-2 0 -101 0.5t-210 0.5
q-62 0 -116 -1l-54 -1q-9 0 -9 6t229 268l188 216q-71 3 -178 3q-90 0 -167 -7q-25 -3 -35 -12.5t-13 -27.5q-1 -9 -7 -9t-6 8q0 6 11 54l12 61q1 4 6 4l14 -1h250z" />
    <glyph glyph-name="eta" unicode="&#x3b7;" horiz-adv-x="730" 
d="M670 563q11 0 11 -6q0 -5 -10 -7q-40 -7 -49 -29t-9 -108v-201q0 -99 4 -135t14.5 -49t41.5 -18q9 -1 9 -8q0 -5 -10 -5q-6 0 -37.5 1.5t-38.5 1.5q-40 0 -83.5 -1.5t-57.5 -1.5q-11 0 -11 6q0 5 11 6q49 8 60.5 37.5t10.5 123.5v95q-61 5 -174 5q-105 0 -149 -6l1 -97
q1 -98 10 -123.5t54 -33.5q14 -1 14 -8q0 -5 -8 -5q-25 0 -65 1.5t-70 1.5q-6 0 -42 -1.5t-40 -1.5q-9 0 -9 5t10 8q42 10 50 37.5t8 168.5v199q0 90 -8 109t-47 24q-11 2 -11 7q0 8 12 8l36 -2q35 -2 51 -2q18 0 44.5 1t47 2t22.5 1q11 0 11 -6q0 -7 -9 -8q-40 -4 -51 -27
t-11 -110v-101q73 -7 148 -7q117 0 175 6l1 102q0 83 -10.5 107t-47.5 29q-9 2 -9 7q0 7 11 7q7 0 45 -1.5t62 -1.5q23 0 55.5 2t36.5 2z" />
    <glyph glyph-name="theta" unicode="&#x3b8;" horiz-adv-x="711" 
d="M350 569q139 0 223.5 -77t84.5 -207q0 -133 -77 -212.5t-221 -79.5q-60 0 -113 16t-97.5 49t-70.5 91.5t-26 135.5q0 132 78.5 208t218.5 76zM345 540q-94 0 -144.5 -63t-50.5 -170q0 -141 62 -213.5t165 -72.5q78 0 130 65.5t52 173.5q0 132 -57 206t-157 74zM493 360
q0 -2 -2 -16t-4 -35t-2 -40q0 -16 1 -40.5t1 -27.5q0 -6 -5 -6t-6 6q-3 35 -19.5 44.5t-67.5 9.5h-77q-47 0 -65.5 -12t-21.5 -42q-1 -6 -7 -6q-5 0 -5 6q0 3 2.5 38t2.5 53q0 17 -0.5 36.5t-0.5 29.5q0 6 5 6q4 0 6 -8q4 -16 8 -25q5 -13 17 -18.5t41 -5.5h89q51 0 69 7
t25 27q1 3 4 15q2 8 6 8q6 0 6 -4z" />
    <glyph glyph-name="iota" unicode="&#x3b9;" horiz-adv-x="323" 
d="M61 563q3 0 37 -2t47 -2q15 0 60 1t52 1q11 0 11 -5q0 -6 -9 -7q-19 -3 -27.5 -6.5t-16 -9.5t-9.5 -22.5t-3 -37t-1 -61.5l1 -241q1 -102 10 -128t54 -32q13 -1 13 -8q0 -6 -9 -6q-25 0 -63 1.5t-58 1.5q-5 0 -47 -1.5t-49 -1.5q-9 0 -9 5q0 4 9 7q29 6 39.5 17.5t16 51
t5.5 134.5v195q0 42 -1 62.5t-3.5 38.5t-9.5 24.5t-16 10.5t-26 7q-9 2 -9 7q0 6 11 6z" />
    <glyph glyph-name="kappa" unicode="&#x3ba;" horiz-adv-x="630" 
d="M255 563q10 0 10 -7q0 -6 -7 -7q-26 -5 -36 -12t-15.5 -34.5t-5.5 -89.5v-125l201 186q44 43 44 60q0 12 -24 14q-11 1 -11 7t8 6q6 0 41 -1.5t45 -1.5q15 0 51 2t40 2q10 0 10 -6q0 -8 -10 -8q-43 -4 -66 -17t-77 -63l-175 -159l223 -227q38 -39 57.5 -51t51.5 -20
l16 -2q6 0 6 -5t-4 -6q-8 -2 -22 -2q-7 0 -47.5 1t-49.5 1q-5 0 -20 -1t-18 -1q-5 0 -10 6l-260 272v-107q0 -103 10.5 -127t60.5 -30q14 -1 14 -8q0 -5 -8 -5q-14 0 -54 1.5t-71 1.5q-12 0 -51 -1.5t-49 -1.5q-7 0 -7 5q0 7 9 8q43 5 51 32t8 170v204q0 62 -6 88.5
t-15.5 33t-38.5 11.5q-9 1 -9 7q0 7 11 7q1 0 34.5 -2t60.5 -2q26 0 50.5 1t38.5 2t15 1z" />
    <glyph glyph-name="lambda" unicode="&#x3bb;" horiz-adv-x="644" 
d="M634 -6q-12 0 -41.5 2t-46.5 2q-26 0 -60.5 -1t-40.5 -1q-15 0 -15 7q0 5 8 7q34 8 37 14q1 3 1 7q0 12 -26 69l-152 326l-142 -314q-24 -55 -24 -77q0 -13 7.5 -18t26.5 -7q10 -1 10 -7q0 -7 -9 -7q-3 0 -39 2t-46 2q-12 0 -39 -2.5t-34 -2.5q-10 0 -10 7q0 6 10 7
q33 6 52 25.5t50 87.5l153 333q9 20 24.5 57t20.5 47t10 10q4 0 8 -8q11 -21 27.5 -59.5t25.5 -56.5l144 -308q38 -80 56 -100.5t51 -26.5q13 -3 13 -9q0 -7 -10 -7z" />
    <glyph glyph-name="uni03BC" unicode="&#x3bc;" horiz-adv-x="796" 
d="M157 569q8 0 12 -8q88 -179 237 -436l213 435q3 7 8 7q8 0 9 -5q0 -15 15 -110l48 -307q12 -82 26 -105.5t47 -29.5q14 -3 14 -9q0 -5 -11 -5t-43.5 1.5t-52.5 1.5q-17 0 -56.5 -1.5t-53.5 -1.5q-9 0 -9 6t10 7q52 8 52 37t-6 71l-38 268l-189 -388q-6 -9 -9 -9t-8 11
q-73 148 -200 376l-24 -218q-6 -47 -6 -81q0 -60 63 -67q10 -1 10 -6q0 -6 -8 -6q-5 0 -45.5 2t-53.5 2q-15 0 -47 -2t-36 -2q-9 0 -9 6q0 5 9 7q42 4 53 23.5t22 110.5l36 291q11 80 14 127q0 7 7 7z" />
    <glyph glyph-name="nu" unicode="&#x3bd;" horiz-adv-x="732" 
d="M123 580q4 0 11 -6q127 -129 449 -432l1 267q0 75 -13 104t-53 35q-12 3 -12 8t9 5q6 0 43 -1.5t46 -1.5q15 0 46.5 2t35.5 2q9 0 9 -6q0 -4 -9 -6q-41 -5 -49 -25.5t-10 -112.5q-3 -252 -3 -302v-125q0 -8 -5 -8q-2 0 -26 24q-62 64 -212.5 210t-227.5 216v-276
q0 -91 7.5 -114.5t47.5 -27.5q11 -1 11 -6q0 -6 -8 -6q-6 0 -40 1t-43 1q-15 0 -46.5 -1.5t-35.5 -1.5q-9 0 -9 5q0 4 9 7q38 8 47.5 30.5t11.5 109.5q8 262 8 297v128q0 7 10 7z" />
    <glyph glyph-name="xi" unicode="&#x3be;" horiz-adv-x="511" 
d="M74 456q-5 0 -5 7v37q0 8 -1 34.5t-1 28.5q0 4 4 4q1 0 3.5 -0.5t4.5 -0.5q56 -6 151 -6q123 0 179 6q3 0 5.5 0.5t3.5 0.5q4 0 4 -4q0 -2 -1 -28.5t-1 -34.5v-37q0 -7 -5 -7t-6 7q-4 26 -26 33t-77 7h-123q-55 0 -77 -7t-26 -33q-1 -7 -6 -7zM112 215q-5 0 -5 5
q0 1 2.5 28t2.5 46q0 18 -1 36t-1 25q0 6 5 6t6 -6q4 -17 6 -20q4 -7 7.5 -10.5t14 -6.5t27.5 -3h124q43 0 58.5 6t21.5 22l3 12q2 7 6 7q5 0 5 -4l-4 -28q-3 -29 -3 -49q0 -17 1 -38t1 -23q0 -5 -4 -5q-5 0 -6 5q-3 27 -17 35t-56 8h-116q-39 0 -53 -9t-20 -34q-1 -5 -5 -5
zM79 -3q-6 0 -7 6q0 1 -1.5 9t-4 21t-4.5 28q-3 12 -6.5 25t-4.5 17q-2 12 -2 13q0 4 5 4t7 -7q11 -27 33.5 -37.5t71.5 -10.5h178q50 0 72.5 10t32.5 38q3 7 8 7t5 -3t-2 -13q-10 -33 -11 -39q-4 -20 -11 -62q-1 -6 -6 -6q-1 0 -8 0.5t-12 0.5q-92 2 -165 2q-54 0 -156 -2
q-2 0 -6.5 -0.5t-5.5 -0.5z" />
    <glyph glyph-name="omicron" unicode="&#x3bf;" horiz-adv-x="711" 
d="M350 569q139 0 223.5 -77t84.5 -207q0 -133 -77 -212.5t-221 -79.5q-60 0 -113 16t-97.5 49t-70.5 91.5t-26 135.5q0 132 78.5 208t218.5 76zM345 540q-94 0 -144.5 -63t-50.5 -170q0 -141 62 -213.5t165 -72.5q78 0 130 65.5t52 173.5q0 132 -57 206t-157 74z" />
    <glyph glyph-name="pi" unicode="&#x3c0;" horiz-adv-x="707" 
d="M61 -3q-9 0 -9 5q0 4 11 7q19 4 27.5 8.5t16.5 14t10.5 35t3.5 57t1 95.5v196q0 40 -1 60t-3.5 36t-10 22t-16 9.5t-26.5 6.5q-10 2 -10 7q0 7 11 7l28 -1q28 0 75 -1t93 -1l226 -2q41 0 76.5 1t55.5 2.5t25 1.5q11 0 11 -6q0 -5 -12 -8q-38 -8 -46.5 -30t-8.5 -107v-200
q0 -99 4 -135t15 -49t42 -18q9 -2 9 -8q0 -5 -10 -5q-6 0 -38 1.5t-40 1.5q-45 0 -85.5 -1.5t-54.5 -1.5q-10 0 -10 5q0 7 13 8q48 6 58.5 35.5t10.5 124.5v346q-71 4 -135 4q-107 0 -161 -6l1 -347q0 -98 9 -124t53 -32q14 -3 14 -8q0 -6 -8 -6q-27 0 -64.5 1.5t-66.5 1.5
q-6 0 -43 -1.5t-41 -1.5z" />
    <glyph glyph-name="rho" unicode="&#x3c1;" horiz-adv-x="632" 
d="M273 565q79 0 128 -37t49 -100q0 -99 -88 -155q20 -15 100 -115q29 -36 42.5 -52.5t43 -49t52 -47.5t40.5 -15q4 0 8 0.5t5 0.5q6 0 6 -6q0 -11 -64 -11q-50 0 -88 18t-72 62q-18 22 -52.5 69t-60 80t-38.5 44q-22 -3 -83 -3l1 -76q0 -102 11.5 -128t61.5 -34
q10 -2 10 -6q0 -7 -13 -7q-11 0 -50.5 1.5t-73.5 1.5q-10 0 -47.5 -1.5t-40.5 -1.5q-9 0 -9 7q0 4 9 5q41 7 48 28t7 135v280q0 58 -13.5 75.5t-54.5 22.5q-7 1 -7 7t13 6q1 0 39 -1.5t55 -1.5q11 0 56 2.5t70 2.5zM237 535q-21 0 -34 -4q-2 -26 -2 -120v-126q36 -6 72 -6
q46 0 64 17q34 32 34 96q0 68 -37 105.5t-97 37.5z" />
    <glyph glyph-name="uni03C2" unicode="&#x3c2;" horiz-adv-x="491" 
d="M447 127q6 0 6 -5q0 -2 -4 -16q-9 -30 -11 -41t-4.5 -24.5t-4 -25t-1.5 -12.5q-1 -6 -7 -6l-23 1q-102 2 -174 2q-65 0 -141 -2q-11 0 -25 -0.5t-16 -0.5q-5 0 -6 6v2q0 4 20 33l169 256l-177 248q-7 11 -7 14q0 5 6 5q22 0 39 -1q32 -2 147 -2q88 0 163 6q8 1 12 1t4 -4
q0 -2 -1.5 -17.5t-1.5 -22.5l-1 -54q0 -8 -5 -8q-6 0 -7 7q-5 32 -27 42.5t-74 10.5h-138l124 -173q11 -16 11 -21t-9 -19l-156 -236h207q50 0 72 10t32 37q4 10 9 10z" />
    <glyph glyph-name="sigma" unicode="&#x3c3;" horiz-adv-x="485" 
d="M447 127q6 0 6 -5q0 -2 -4 -16q-9 -30 -11 -41t-4.5 -24.5t-4 -25t-1.5 -12.5q-1 -6 -7 -6l-23 1q-102 2 -174 2q-65 0 -141 -2q-11 0 -25 -0.5t-16 -0.5q-5 0 -6 6v2q0 4 20 33l169 256l-177 248q-7 11 -7 14q0 5 6 5q22 0 39 -1q32 -2 147 -2q88 0 163 6q8 1 12 1t4 -4
q0 -2 -1.5 -17.5t-1.5 -22.5l-1 -54q0 -8 -5 -8q-6 0 -7 7q-5 32 -27 42.5t-74 10.5h-138l124 -173q11 -16 11 -21t-9 -19l-156 -236h207q50 0 72 10t32 37q4 10 9 10z" />
    <glyph glyph-name="tau" unicode="&#x3c4;" horiz-adv-x="556" 
d="M41 572q1 0 11 -2q68 -11 261 -11q101 0 203 6q3 0 6 0.5t4.5 1t2.5 0.5q4 0 4 -4l-1 -13q-1 -13 -1 -23l-1 -59q0 -8 -6 -8q-5 0 -6 8q-5 33 -28 43t-75 12q-64 0 -92 -1q-2 -8 -2 -34l1 -343q0 -42 2 -62.5t4 -36.5t11.5 -21.5t18 -8t30.5 -5.5q11 -2 11 -8t-7 -6
t-55 1.5t-84 1.5q-5 0 -41 -1.5t-43 -1.5q-9 0 -9 6t8 7q32 5 43.5 13t17.5 34.5t6 89.5v339q0 28 -2 36q-25 1 -81 1q-53 -2 -80 -13t-36 -41q-2 -8 -7 -8q-4 0 -4 6q0 11 7 56q6 36 6 44q0 5 3 5z" />
    <glyph glyph-name="upsilon" unicode="&#x3c5;" horiz-adv-x="580" 
d="M88 565q52 0 75 -26q10 -11 32.5 -47t65.5 -109t52 -89q10 24 49 94.5t58 100.5q26 43 48 59t56 16q24 0 50 -8q7 -1 7 -6q0 -6 -5 -6h-6q-6 1 -11 1q-31 0 -54.5 -22.5t-54.5 -67.5q-27 -39 -60.5 -100t-41.5 -80q-10 -20 -10 -39l1 -142q0 -44 10 -60t51 -22
q12 -2 12 -7q0 -7 -8 -7q-23 0 -58.5 1t-53.5 1q-10 0 -52.5 -1.5t-49.5 -1.5q-8 0 -8 6t9 7q37 5 49 19.5t12 70.5v124q0 14 -10 34q-22 45 -74 126.5t-93 130.5q-24 28 -50 28q-5 0 -11.5 -1.5t-7.5 -1.5q-6 0 -6 7q0 4 11 8t31.5 7t45.5 3z" />
    <glyph glyph-name="phi" unicode="&#x3c6;" horiz-adv-x="674" 
d="M626 290q0 -84 -64.5 -137.5t-185.5 -60.5q3 -51 16 -69t49 -23q13 -3 13 -8q0 -6 -9 -6q-29 0 -66 1t-60 1q-8 0 -46 -1.5t-44 -1.5q-9 0 -9 6q0 4 9 7q23 5 33 10.5t18 25t10 59.5q-107 9 -174.5 57t-67.5 140q0 82 64 132.5t180 58.5q-3 49 -14.5 63.5t-45.5 20.5
q-9 1 -9 6q0 6 11 6q4 0 40 -2t53 -2q19 0 60.5 1.5t44.5 1.5q11 0 11 -5q0 -6 -9 -7q-36 -6 -46.5 -19t-12.5 -65q115 -8 183 -59t68 -131zM136 308q0 -79 41.5 -126t114.5 -60q1 21 1 78v219v37q-78 -7 -117.5 -46.5t-39.5 -101.5zM375 117q71 5 115.5 46t44.5 107
q0 77 -42.5 125.5t-118.5 59.5v-30l1 -264v-44z" />
    <glyph glyph-name="chi" unicode="&#x3c7;" horiz-adv-x="559" 
d="M509 564q10 0 10 -6t-10 -8q-33 -4 -49.5 -20t-58.5 -83l-90 -145l96 -157q56 -89 77.5 -111t55.5 -27q9 -2 9 -7q0 -6 -9 -6q-14 0 -49 2.5t-53 2.5q-14 0 -54 -1.5t-53 -1.5q-12 0 -12 5t8 7q23 3 32 7t9 14q0 19 -42 89l-67 115l-57 -91q-58 -92 -58 -111
q0 -20 38 -23q11 -2 11 -8q0 -4 -10 -4q-5 0 -36.5 2t-43.5 2q-15 0 -46.5 -2.5t-33.5 -2.5q-10 0 -10 6q0 5 10 7q31 3 52 24t66 91l94 149l-106 174q-36 58 -53.5 75.5t-47.5 24.5q-11 2 -11 9q0 6 10 6q12 0 43 -0.5t48 -0.5l100 1q7 0 7 -6q0 -5 -8 -7q-21 -4 -27.5 -8
t-6.5 -14q0 -18 40 -81l66 -107l61 100q36 57 36 85q0 21 -33 25q-10 1 -10 8q0 6 9 6q5 0 38 -1.5t42 -1.5q14 0 43.5 2.5t33.5 2.5z" />
    <glyph glyph-name="psi" unicode="&#x3c8;" horiz-adv-x="776" 
d="M731 561q13 0 13 -7t-8 -8q-21 -4 -30 -7t-18 -11t-11.5 -27t-4 -45t-1.5 -75v-22q0 -87 -59.5 -137t-180.5 -57q0 -96 10.5 -123t54.5 -31q13 -1 13 -8q0 -5 -9 -5q-29 0 -67 1t-63 1q-5 0 -41.5 -1.5t-43.5 -1.5q-9 0 -9 5q0 6 9 7q27 4 38 13t17.5 41t7.5 103
q-242 16 -242 192v26q0 80 -5 110t-16 40t-44 16q-8 1 -8 7q0 7 10 7q4 0 51.5 -2.5t62.5 -3.5q34 0 34 -18q0 -5 -1 -23.5t-1.5 -49.5t-0.5 -67v-38q0 -148 160 -171v16v198q0 66 -4 92.5t-15 37t-40 15.5q-10 2 -10 7t11 5q4 0 37.5 -2t50.5 -2q21 0 63.5 1.5t45.5 1.5
q11 0 11 -5q0 -4 -9 -6q-30 -5 -40.5 -13.5t-15 -34.5t-3.5 -91l1 -223q72 5 113.5 44.5t43.5 112.5l1 52q0 36 -0.5 67t-1 51t-0.5 24q0 10 6.5 13t24.5 4q13 0 55.5 2.5t57.5 2.5z" />
    <glyph glyph-name="omega" unicode="&#x3c9;" horiz-adv-x="756" 
d="M371 569q136 0 219.5 -68.5t84.5 -182.5q1 -88 -47.5 -156.5t-119.5 -111.5q171 0 193 67q3 9 8 9q6 0 6 -5q0 -1 -3 -13q-24 -71 -27 -94q-2 -16 -8 -16l-39 1q-14 0 -87.5 1t-119.5 1q-10 0 -10 8q0 7 4 9q148 78 148 288q0 111 -55 173t-151 62q-92 0 -140 -59
t-48 -161q0 -185 149 -303q6 -4 6 -8q0 -10 -11 -10q-205 0 -230 1l-16 -1q-5 0 -8 16q-6 39 -24 94q-2 8 -2 11q0 5 4 5q5 0 8 -7q23 -61 194 -68q-71 45 -119 117.5t-48 148.5q0 119 79 185.5t210 66.5z" />
    <glyph glyph-name="iotadieresis" unicode="&#x3ca;" horiz-adv-x="323" 
d="M123 709q4 0 4 -7q0 -2 -5 -6.5t-15 -14t-19 -19.5q-14 -16 -20 -27q-3 -8 -7 -8q-5 0 -7 6q-10 25 -14 29q-13 13 -25 17q-4 1 -4 6t6 6q7 2 26 3t24 2q11 2 23.5 5t21 5.5t11.5 2.5zM300 709q4 0 4 -7q0 -2 -5 -6.5t-15 -14t-19 -19.5q-14 -16 -20 -27q-3 -8 -7 -8
q-6 0 -7 6q-10 25 -14 29q-13 13 -25 17q-4 1 -4 6t5 6q7 2 26.5 3t24.5 2q11 2 23.5 5t21 5.5t11.5 2.5zM61 563q3 0 37 -2t47 -2q15 0 60 1t52 1q11 0 11 -5q0 -6 -9 -7q-19 -3 -27.5 -6.5t-16 -9.5t-9.5 -22.5t-3 -37t-1 -61.5l1 -241q1 -102 10 -128t54 -32q13 -1 13 -8
q0 -6 -9 -6q-30 0 -66 1.5t-55 1.5q-11 0 -50.5 -1.5t-45.5 -1.5q-9 0 -9 5q0 4 9 7q29 6 39.5 17.5t16 51t5.5 134.5v195q0 42 -1 62.5t-3.5 38.5t-9.5 24.5t-16 10.5t-26 7q-9 2 -9 7q0 6 11 6z" />
    <glyph glyph-name="upsilondieresis" unicode="&#x3cb;" horiz-adv-x="580" 
d="M258 709q4 0 4 -7q0 -2 -5 -6.5t-15 -14t-19 -19.5q-14 -16 -20 -27q-3 -8 -7 -8q-6 0 -7 6q-10 25 -14 29q-13 13 -25 17q-4 1 -4 6t6 6q7 2 26 3t24 2q11 2 23.5 5t21 5.5t11.5 2.5zM435 709q4 0 4 -7q0 -2 -5 -6.5t-15 -14t-19 -19.5q-14 -16 -20 -27q-3 -8 -7 -8
q-5 0 -7 6q-10 25 -14 29q-13 13 -25 17q-4 1 -4 6t5 6q7 2 26.5 3t24.5 2q11 2 23.5 5t21 5.5t11.5 2.5zM88 565q52 0 75 -26q10 -11 32.5 -47t65.5 -109t52 -89q10 24 49 94.5t58 100.5q26 43 48 59t56 16q24 0 50 -8q7 -1 7 -6q0 -6 -5 -6h-6q-6 1 -11 1
q-31 0 -54.5 -22.5t-54.5 -67.5q-27 -39 -60.5 -100t-41.5 -80q-10 -20 -10 -39l1 -142q0 -44 10 -60t51 -22q12 -2 12 -7q0 -7 -8 -7q-23 0 -58.5 1t-53.5 1q-10 0 -52.5 -1.5t-49.5 -1.5q-8 0 -8 6t9 7q37 5 49 19.5t12 70.5v124q0 14 -10 34q-22 45 -74 126.5t-93 130.5
q-24 28 -50 28q-5 0 -11.5 -1.5t-7.5 -1.5q-6 0 -6 7q0 4 11 8t31.5 7t45.5 3z" />
    <glyph glyph-name="omicrontonos" unicode="&#x3cc;" horiz-adv-x="711" 
d="M350 569q139 0 223.5 -77t84.5 -207q0 -133 -77 -212.5t-221 -79.5q-60 0 -113 16t-97.5 49t-70.5 91.5t-26 135.5q0 132 78.5 208t218.5 76zM345 540q-94 0 -144.5 -63t-50.5 -170q0 -141 62 -213.5t165 -72.5q78 0 130 65.5t52 173.5q0 132 -57 206t-157 74z" />
    <glyph glyph-name="upsilontonos" unicode="&#x3cd;" horiz-adv-x="580" 
d="M88 565q52 0 75 -26q10 -11 32.5 -47t65.5 -109t52 -89q10 24 49 94.5t58 100.5q26 43 48 59t56 16q24 0 50 -8q7 -1 7 -6q0 -6 -5 -6h-6q-6 1 -11 1q-31 0 -54.5 -22.5t-54.5 -67.5q-27 -39 -60.5 -100t-41.5 -80q-10 -20 -10 -39l1 -142q0 -44 10 -60t51 -22
q12 -2 12 -7q0 -7 -8 -7q-23 0 -58.5 1t-53.5 1q-10 0 -52.5 -1.5t-49.5 -1.5q-8 0 -8 6t9 7q37 5 49 19.5t12 70.5v124q0 14 -10 34q-22 45 -74 126.5t-93 130.5q-24 28 -50 28q-5 0 -11.5 -1.5t-7.5 -1.5q-6 0 -6 7q0 4 11 8t31.5 7t45.5 3z" />
    <glyph glyph-name="omegatonos" unicode="&#x3ce;" horiz-adv-x="756" 
d="M371 569q136 0 219.5 -68.5t84.5 -182.5q1 -88 -47.5 -156.5t-119.5 -111.5q171 0 193 67q3 9 8 9q6 0 6 -5q0 -1 -3 -13q-24 -71 -27 -94q-2 -16 -8 -16l-39 1q-14 0 -87.5 1t-119.5 1q-10 0 -10 8q0 7 4 9q148 78 148 288q0 111 -55 173t-151 62q-92 0 -140 -59
t-48 -161q0 -185 149 -303q6 -4 6 -8q0 -10 -11 -10q-205 0 -230 1l-16 -1q-5 0 -8 16q-6 39 -24 94q-2 8 -2 11q0 5 4 5q5 0 8 -7q23 -61 194 -68q-71 45 -119 117.5t-48 148.5q0 119 79 185.5t210 66.5z" />
    <glyph glyph-name="uni0401" unicode="&#x401;" horiz-adv-x="547" 
d="M251 825q4 0 4 -6q0 -2 -4.5 -6.5l-14 -14t-17.5 -18.5q-13 -15 -19 -26q-4 -7 -7 -7q-4 0 -6 5q-10 22 -14 28q-10 12 -23 17q-4 1 -4 5q0 5 5 6q7 2 25 3t23 2q10 2 22 5l20 5t10 2zM425 825q4 0 4 -6q0 -2 -4.5 -6.5t-14.5 -14t-18 -18.5q-13 -15 -19 -26q-3 -7 -7 -7
t-6 5q-10 24 -13 28q-10 12 -23 17q-4 1 -4 5q0 5 5 6q7 2 24.5 3t22.5 2q10 2 22.5 5t20.5 5t10 2zM459 709q5 0 5 -5l-1 -15q-1 -15 -1 -22l-1 -49q0 -9 -5 -9q-6 0 -7 8q-2 17 -12.5 27.5t-30 15.5t-36 6.5t-43.5 1.5q-45 1 -90 -4q-2 -21 -2 -149v-135h101q54 0 74 7
t26 27q1 3 4 15q2 8 6 8q6 0 6 -5l-4 -30q-3 -31 -3 -50q0 -14 1 -41.5t1 -31.5q0 -7 -6 -7t-6 7q-1 44 -18.5 53.5t-74.5 10.5l-107 1l1 -131q0 -103 10 -145q4 -18 28 -23.5t72 -5.5q59 0 85 9t39 34q4 7 7 7q7 0 7 -5q0 -3 -3 -10l-12 -32q-5 -16 -12 -38q-3 -8 -7 -8
h-10q-9 1 -17 1q-102 4 -212 4q-23 0 -81 -1.5t-59 -1.5q-10 0 -10 7q0 4 12 7q53 11 62.5 43t9.5 210v254q0 120 -7.5 141.5t-50.5 26.5q-11 2 -11 6q0 7 13 7h26t54.5 -0.5t48.5 -0.5q100 0 223 7q5 1 9.5 1.5t6 1t2.5 0.5z" />
    <glyph glyph-name="uni0402" unicode="&#x402;" horiz-adv-x="873" 
d="M811 230q0 -19 0.5 -38t0.5 -39q0 -55 -37 -92q-26 -26 -80 -57q-31 -18 -67 -18t-69 20q-6 4 -6 8t3 14.5t4 17.5q1 6 5.5 36.5t6.5 36.5q3 11 10 11q6 0 6 -5q0 -1 -1.5 -8t-1.5 -12q0 -19 14 -39q28 -35 72 -35q32 0 41 36.5t9 163.5q0 75 -37.5 109.5t-115.5 34.5
q-104 0 -199 -45l1 -149q0 -45 0.5 -68t4.5 -45t6.5 -29.5t14.5 -15t20.5 -8.5t31.5 -4q14 -2 14 -8q0 -7 -9 -7q-6 0 -52 2t-101 2q-6 0 -49 -2t-51 -2q-11 0 -11 7t11 8q38 7 51.5 17t20.5 43.5t7 112.5v441q0 22 -2 32q-30 1 -98 1q-35 -1 -52.5 -3t-38.5 -7.5t-31.5 -17
t-15.5 -30.5q-3 -10 -8 -10t-5 6q0 12 9 60q6 44 6 54q0 5 4 5q3 0 13 -2q3 0 11.5 -2t11.5 -2.5t12.5 -1.5t16.5 -2t20.5 -2t27 -1.5t34.5 -1t44 -1t54 -0.5h67q160 0 246 8q10 2 13 2q4 0 4 -5q0 -1 -1 -16t-1 -27q0 -9 -1 -35t-1 -28q0 -9 -5 -9q-6 0 -7 8
q-5 38 -30.5 48.5t-84.5 12.5h-10q-74 0 -110 -1q-3 -13 -3 -37l1 -257q117 71 227 71q114 0 164.5 -49t50.5 -155z" />
    <glyph glyph-name="uni0403" unicode="&#x403;" horiz-adv-x="562" 
d="M394 858q9 0 24 -12q16 -13 16 -21t-76.5 -43t-88.5 -35q-6 0 -10.5 4.5t-4.5 7.5q0 1 7 6q27 18 59.5 42t51 37.5t22.5 13.5zM325 -2q-3 0 -50.5 1t-83.5 1h-32.5t-30 -0.5t-24 -1t-16.5 -0.5h-7q-13 0 -13 7q0 5 11 7q24 4 33.5 7.5t19 20.5t11.5 48.5t2 91.5v287
q0 157 -9.5 186.5t-62.5 36.5q-12 2 -12 7q0 7 11 7q1 0 31 -1t66 -2.5t52 -1.5q20 0 255 5h16l10 1q8 0 9 -8q0 -2 1.5 -9t3 -18t3.5 -24q2 -11 3.5 -26t3 -24.5t1.5 -10.5q2 -14 2 -21q0 -6 -8 -6q-7 0 -9 15q-11 52 -44 69.5t-112 17.5q-64 0 -89.5 -3t-26.5 -15
q-4 -37 -4 -187l-1 -251q-1 -93 6 -129t23 -46.5t62 -16.5q11 -2 11 -7q0 -7 -12 -7z" />
    <glyph glyph-name="uni0404" unicode="&#x404;" horiz-adv-x="729" 
d="M671 148q6 0 6 -5q0 -8 -5 -41t-10 -48q-8 -25 -10.5 -30t-10.5 -7q-39 -11 -73 -17q-59 -10 -129 -10q-76 0 -141.5 19t-120.5 60t-86.5 114.5t-31.5 173.5q0 163 99.5 258t271.5 95q46 0 119 -14q80 -15 95 -15q10 0 18 4l7 4q6 0 6 -4q0 -1 -2 -16t-2 -21
q-2 -46 -2 -91q0 -10 -5 -10q-4 0 -7 11q-11 53 -91.5 87.5t-144.5 34.5q-132 0 -198 -78.5t-66 -214.5v-7h257q54 0 73 9t27 35q1 3 4 15q2 8 5 8q6 0 6 -5l-3 -34q-3 -35 -3 -56q0 -17 0.5 -48.5t0.5 -34.5q0 -7 -5 -7q-6 0 -6 7q-2 50 -19.5 61.5t-73.5 12.5l-261 1
q12 -146 98.5 -233t200.5 -87q86 0 139 32t67 83q3 9 7 9z" />
    <glyph glyph-name="uni0405" unicode="&#x405;" horiz-adv-x="486" 
d="M263 710q23 0 71.5 -4.5t49.5 -4.5q4 0 9 3.5t7 3.5q4 0 4 -4q0 -1 -1 -12t-1 -17q0 -8 3.5 -43t3.5 -51q0 -9 -5 -9t-6 5q-4 31 -21 53.5t-41 33t-46 15t-44 4.5q-45 0 -80.5 -29t-35.5 -83q0 -49 33.5 -84t121.5 -86q86 -50 119.5 -97t33.5 -99q0 -91 -67.5 -151
t-158.5 -60q-87 0 -153 29q-3 1 -3 4q0 4 0.5 13t0.5 14q0 10 -1.5 32t-1.5 31q0 30 3 39q2 5 6 5t4 -4q0 -1 -0.5 -6t-0.5 -8q0 -38 40.5 -78.5t116.5 -40.5q39 0 68 14t44.5 36.5t22.5 45.5t7 45q0 46 -31.5 80t-104.5 80q-92 56 -131.5 99.5t-39.5 111.5q0 69 54.5 121.5
t150.5 52.5z" />
    <glyph glyph-name="uni0406" unicode="&#x406;" horiz-adv-x="391" 
d="M81 704q4 0 42.5 -2.5t56.5 -2.5q22 0 70 1.5t52 1.5q13 0 13 -6q0 -5 -11 -7q-22 -3 -32 -7t-19.5 -12t-12 -29t-4 -47.5t-1.5 -78.5l1 -302q1 -127 13 -160t67 -42q15 -1 15 -8q0 -6 -10 -6q-32 0 -77.5 1.5t-72.5 1.5q-6 0 -49 -2t-51 -2q-11 0 -11 6q0 4 11 7
q36 7 49 21.5t19.5 64.5t6.5 170v245q0 53 -1 79t-4 49t-11.5 31.5t-19 13t-31.5 7.5q-11 2 -11 8t13 6z" />
    <glyph glyph-name="uni0407" unicode="&#x407;" horiz-adv-x="391" 
d="M150 825q4 0 4 -6q0 -2 -4.5 -6.5l-14 -14t-17.5 -18.5q-13 -15 -19 -26q-3 -7 -7 -7t-6 5q-10 22 -14 28q-10 12 -23 17q-4 1 -4 5q0 5 5 6q7 2 25 3t23 2q10 2 22 5l20 5t10 2zM324 825q4 0 4 -6q0 -2 -4.5 -6.5t-14.5 -14t-18 -18.5q-13 -15 -19 -26q-4 -7 -7 -7
q-4 0 -6 5q-10 24 -13 28q-10 12 -23 17q-4 1 -4 5q0 5 5 6q7 2 24.5 3t22.5 2q10 2 22.5 5t20.5 5t10 2zM81 704q4 0 42.5 -2.5t56.5 -2.5q22 0 70 1.5t52 1.5q13 0 13 -6q0 -5 -11 -7q-22 -3 -32 -7t-19.5 -12t-12 -29t-4 -47.5t-1.5 -78.5l1 -302q1 -127 13 -160t67 -42
q15 -1 15 -8q0 -6 -10 -6q-32 0 -77.5 1.5t-72.5 1.5q-6 0 -49 -2t-51 -2q-11 0 -11 6q0 4 11 7q36 7 49 21.5t19.5 64.5t6.5 170v245q0 53 -1 79t-4 49t-11.5 31.5t-19 13t-31.5 7.5q-11 2 -11 8t13 6z" />
    <glyph glyph-name="uni0408" unicode="&#x408;" horiz-adv-x="412" 
d="M134 704q5 0 49 -2.5t66 -2.5q16 0 56.5 1t43.5 1q12 0 12 -7q0 -6 -8 -7q-21 -2 -30 -5.5t-17.5 -11t-11 -28t-3.5 -47.5t-1 -80l1 -181q0 -8 1.5 -83t1.5 -98q0 -53 -39 -92q-29 -29 -80 -57q-31 -18 -67 -18q-32 0 -69 20q-6 3 -6 8q0 4 3 14.5t4 17.5q2 8 6.5 37.5
t5.5 35.5q3 11 9 11q7 0 7 -5q0 -1 -1.5 -8t-1.5 -12q0 -19 14 -39q28 -35 72 -35q31 0 40 50t9 184v291q0 86 -11 108t-58 26q-9 1 -9 7q0 7 12 7z" />
    <glyph glyph-name="uni0409" unicode="&#x409;" horiz-adv-x="953" 
d="M673 377q110 -1 168 -51.5t58 -132.5q0 -88 -62.5 -143.5t-159.5 -55.5q-13 0 -76 3.5t-87 3.5q-22 0 -61 -1.5t-41 -1.5q-11 0 -11 7q0 4 12 7q50 9 61 32t11 108v367q0 115 -11 136q-39 4 -72 4q-72 0 -114 -6q-8 -56 -23 -159.5t-27.5 -188t-24.5 -159.5
q-14 -82 -46.5 -119t-86.5 -37q-32 0 -64 15q-8 4 -8 10q0 17 6 43q2 7 4 20t3.5 26.5t2.5 17.5q1 10 9 10q6 0 6 -6q0 -1 -1 -12.5t-1 -16.5q0 -21 16 -33q19 -13 38 -13q26 0 46.5 30t29.5 86q20 117 56 353q10 76 10 110q0 33 -15 44t-59 15q-11 2 -11 7q0 8 13 8
q3 0 34.5 -1t75 -2t69.5 -1l148 -2h10h12q22 0 75 2t56 2q13 0 13 -7q0 -5 -11 -6q-22 -3 -32 -7t-19 -11.5t-11.5 -28.5t-4 -47.5t-1.5 -78.5v-123q0 -13 14 -13q17 -1 84 -3zM673 28q23 0 43.5 6t42 20.5t34 45t12.5 74.5q0 79 -53 126t-139 47h-32q-5 0 -5 -6v-130v-24.5
v-23.5v-20.5t0.5 -19.5t1 -16.5t1 -15t2 -12t3 -11.5t3.5 -9q14 -31 86 -31z" />
    <glyph glyph-name="uni040A" unicode="&#x40a;" horiz-adv-x="1022" 
d="M742 377q110 -1 168 -51.5t58 -132.5q0 -88 -62.5 -143.5t-159.5 -55.5q-12 0 -75 3.5t-88 3.5q-22 0 -61 -1.5t-40 -1.5q-11 0 -11 7q0 4 12 7q49 9 60.5 32t11.5 108v182q-85 5 -135 5q-136 0 -188 -6l1 -124q1 -126 10 -154q10 -31 49 -41q7 -1 17 -3q15 -3 15 -8
q0 -7 -10 -7q-30 0 -73.5 2t-72.5 2q-7 0 -49.5 -2t-47.5 -2q-11 0 -11 7q0 4 12 7q16 3 24.5 6.5t18 8.5t13 18t7.5 27.5t5 46t1.5 64t0.5 89.5v249q0 51 -1.5 76.5t-4 46.5t-11 28.5t-19 11.5t-31.5 7q-11 2 -11 7q0 8 13 8l41 -2q42 -3 62 -3q23 0 71.5 2.5t49.5 2.5
q13 0 13 -7q0 -6 -11 -7q-47 -5 -59.5 -34t-11.5 -141v-127q72 -8 178 -8q89 0 145 4v135q0 52 -1.5 77.5t-4 46.5t-11.5 28.5t-18.5 11.5t-31.5 7q-11 2 -11 7q0 7 13 7q4 0 43 -2.5t57 -2.5q21 0 69 1.5t52 1.5q13 0 13 -7q0 -4 -11 -6q-22 -3 -32 -7t-19 -11.5t-11.5 -29
t-4 -47t-1.5 -78.5v-123q0 -13 14 -13q15 -1 83 -3zM742 28q23 0 43.5 6t42 20.5t34 45t12.5 74.5q0 79 -53 126t-139 47h-31q-5 0 -5 -6v-130v-24.5v-23.5v-20.5t0.5 -19.5t1 -16.5t1 -15t2 -12t3 -11.5t3.5 -9q14 -31 85 -31z" />
    <glyph glyph-name="uni040B" unicode="&#x40b;" horiz-adv-x="944" 
d="M877 11q11 -2 11 -7q0 -8 -13 -8l-42 2q-42 3 -61 3q-22 0 -71 -2.5t-51 -2.5q-13 0 -13 7q0 6 11 7q33 4 46.5 16t19.5 46t6 113v46q0 73 -37 108.5t-116 35.5q-108 0 -198 -45l1 -149q0 -45 0.5 -68t4.5 -45t6.5 -29.5t14.5 -15t20.5 -8.5t31.5 -4q14 -2 14 -8
q0 -7 -9 -7q-6 0 -52 2t-101 2q-6 0 -49 -2t-51 -2q-11 0 -11 7t11 8q38 7 51.5 17t20.5 43.5t7 112.5v441q0 22 -2 32q-30 1 -98 1q-35 -1 -52.5 -3t-38.5 -7.5t-31.5 -17t-15.5 -30.5q-3 -10 -8 -10t-5 6q0 12 9 60q6 44 6 54q0 5 4 5q3 0 13 -2q3 0 11.5 -2t11.5 -2.5
t12.5 -1.5t16.5 -2t20.5 -2t27 -1.5t34.5 -1t44 -1t54 -0.5h67q160 0 246 8q10 2 13 2q4 0 4 -5q0 -1 -1 -16t-1 -27q0 -9 -1 -35t-1 -28q0 -9 -5 -9q-6 0 -7 8q-5 38 -30.5 48.5t-84.5 12.5h-10q-74 0 -110 -1q-3 -13 -3 -37l1 -256q115 70 226 70q114 0 164.5 -49
t50.5 -155v-49q0 -51 1.5 -76.5t4 -46.5t11.5 -28.5t18.5 -11.5t31.5 -7z" />
    <glyph glyph-name="uni040C" unicode="&#x40c;" horiz-adv-x="748" 
d="M469 858q9 0 24 -12q16 -13 16 -21t-76.5 -43t-88.5 -35q-6 0 -10.5 4.5t-4.5 7.5q0 1 7 6q27 18 59.5 42t51 37.5t22.5 13.5zM297 704q12 0 12 -7q0 -5 -9 -7q-31 -4 -42.5 -14.5t-17.5 -45t-6 -115.5v-155l242 231q54 54 54 78q0 17 -30 19q-13 1 -13 7t10 6
q7 0 48.5 -1.5t52.5 -1.5q18 0 58 2.5t45 2.5q11 0 11 -7q0 -5 -11 -7q-49 -6 -75 -22.5t-96 -82.5l-216 -203l268 -278q49 -50 76 -67t63 -25l19 -2q8 0 8 -6q0 -4 -5 -6q-8 -2 -26 -2q-7 0 -51 1.5t-55 1.5q-6 0 -24.5 -1.5t-23.5 -1.5q-3 0 -10 7l-319 342l1 -135
q1 -132 12 -161.5t70 -36.5q17 -1 17 -9q0 -6 -10 -6q-18 0 -61 2t-88 2q-6 0 -52 -2t-53 -2q-8 0 -8 6q0 7 11 8q52 6 61.5 40.5t9.5 214.5v254q0 80 -6.5 114.5t-19 43.5t-46.5 13q-11 2 -11 8t13 6q2 0 42.5 -2.5t70.5 -2.5q25 0 50 1.5t41.5 2.5t18.5 1z" />
    <glyph glyph-name="uni040E" unicode="&#x40e;" horiz-adv-x="728" 
d="M385 736q-104 0 -149 80q-8 13 -8 20q0 6 22 14t32 8q6 0 11 -9q17 -34 41.5 -51t72.5 -17q76 0 120 68q5 8 9 8q11 0 11 -8q0 -5 -6 -19q-47 -94 -156 -94zM222 -11q-55 0 -88 20q-6 4 -6 8q0 6 6 48q2 14 4 37t3.5 38.5t2.5 20.5q1 10 8 10q9 0 9 -6q0 -1 -1.5 -15
t-1.5 -19q0 -30 18 -52q21 -24 62 -24q64 0 116 92l-215 416q-40 78 -58.5 99.5t-49.5 26.5q-16 3 -16 9q0 7 12 7q16 0 46 -2t38 -2q32 0 71 1.5t49 1.5q17 0 17 -8q0 -5 -11 -7q-24 -4 -33.5 -10.5t-9.5 -19.5q0 -16 33 -80l173 -343l155 328q31 68 31 87q0 32 -45 38
q-11 1 -11 7q0 8 10 8q6 0 45.5 -2.5t50.5 -2.5q10 0 32 2.5t33 2.5q12 0 12 -7q0 -6 -12 -8q-25 -6 -44.5 -32.5t-55.5 -102.5l-144 -298q-84 -166 -107 -198q-13 -19 -26 -30q-44 -39 -102 -39z" />
    <glyph glyph-name="uni040F" unicode="&#x40f;" horiz-adv-x="849" 
d="M772 9q12 -1 12 -7t-13 -6q-4 0 -28 1t-68.5 2t-100.5 1h-67q-6 0 -11 -0.5t-8.5 -2.5t-6 -3.5t-5 -5.5t-3.5 -6.5t-2.5 -9t-2 -10t-1.5 -12.5t-2 -14q-17 -110 -18 -120q-1 -9 -9 -9t-9 9q-9 54 -20 115q-8 43 -19 55.5t-46 13.5h-55q-42 0 -92 -1t-83 -2l-32 -1
q-13 0 -13 8q0 5 11 7q22 3 31.5 7t18.5 11.5t11.5 28.5t4 46t1.5 77v249q0 100 -1 141.5t-9.5 72t-20 36t-39.5 10.5q-12 1 -12 7q0 7 11 7q4 0 49 -2t59 -2q22 0 63 2t73 2q10 0 10 -7t-16 -8q-55 -9 -65.5 -41t-10.5 -157l-1 -444q52 -7 197 -7q99 0 177 7v440
q0 122 -12.5 159t-68.5 44q-15 2 -15 8t10 6q21 0 67 -2t89 -2q8 0 46.5 2t45.5 2q11 0 11 -7t-11 -8q-13 -2 -20 -4t-15.5 -5t-12.5 -10t-9 -14t-6.5 -22.5t-3.5 -30.5t-2.5 -43t-1 -54.5t-0.5 -70.5v-253q0 -78 4.5 -108.5t18 -44.5t47.5 -20z" />
    <glyph glyph-name="uni0410" unicode="&#x410;" horiz-adv-x="727" 
d="M371 707q6 0 11 -10l46 -120l155 -390q39 -100 64.5 -134.5t63.5 -42.5q16 -3 16 -9t-10 -6q-7 0 -54 2.5t-75 2.5q-16 0 -57 -2t-56 -2q-9 0 -9 7t8 7q54 5 54 38q0 26 -19 75l-51 134l-232 -2l-51 -124q-19 -46 -19 -73q0 -43 48 -47q13 -1 13 -6q0 -7 -10 -7
q-7 0 -45 2t-51 2q-17 0 -55 -2t-44 -2q-9 0 -9 7q0 4 11 6q37 4 61 38.5t68 135.5l158 372q13 29 34 77t26 61q4 12 10 12zM347 548l-102 -252l197 3z" />
    <glyph glyph-name="uni0411" unicode="&#x411;" horiz-adv-x="622" 
d="M346 -6q-12 0 -79 3.5t-93 3.5q-23 0 -62 -1.5t-40 -1.5q-11 0 -11 7q0 5 12 7q52 7 62 53.5t10 278.5v175v64t-3 43t-6.5 30t-13 15.5t-20 10.5t-30.5 4q-11 2 -11 7q0 7 11 7q3 0 17.5 -0.5t38 -1t46.5 -0.5q20 0 148 3t141 3l26 1q7 0 8 -8q1 -3 1.5 -9t2 -18.5
t3.5 -23.5q8 -52 8 -61q3 -18 3 -21q0 -6 -8 -6q-6 0 -9 13q-11 54 -49 75t-116 21q-87 0 -92 -1q-6 -41 -6 -149v-124q0 -13 14 -13q13 -1 93 -3q111 -2 169 -52t58 -132q0 -88 -63 -143.5t-160 -55.5zM342 28q23 0 44 6t42.5 20.5t34 45t12.5 74.5q0 79 -53 126t-140 47
h-41q-5 0 -5 -6v-130q0 -129 11 -152q15 -31 95 -31z" />
    <glyph glyph-name="uni0412" unicode="&#x412;" horiz-adv-x="622" 
d="M278 701q206 0 206 -160q0 -54 -28 -100t-75 -69v-2q72 -7 130 -56t58 -121q0 -88 -63 -143.5t-160 -55.5q-12 0 -79 3.5t-93 3.5q-23 0 -62 -1.5t-40 -1.5q-11 0 -11 7q0 5 12 7q52 7 62 53.5t10 278.5v175v64t-3 43t-6.5 30t-13 15.5t-20 10.5t-30.5 4q-11 2 -11 7
q0 7 11 7q3 0 17.5 -0.5t38 -1t46.5 -0.5q13 0 51 1.5t53 1.5zM273 668q-22 0 -32 -2q-6 -41 -6 -149v-120q0 -11 19 -15q28 -4 75 -4q33 0 54 30.5t21 94.5q0 40 -10.5 71.5t-25.5 48.5t-34.5 27.5t-34 14t-26.5 3.5zM282 343h-41q-5 0 -5 -6v-126q0 -133 11 -157
q15 -34 95 -34q23 0 44 6t42.5 21.5t34 48t12.5 78.5q0 77 -53 123t-140 46z" />
    <glyph glyph-name="uni0413" unicode="&#x413;" horiz-adv-x="562" 
d="M325 -2q-3 0 -50.5 1t-83.5 1h-32.5t-30 -0.5t-24 -1t-16.5 -0.5h-7q-13 0 -13 7q0 5 11 7q24 4 33.5 7.5t19 20.5t11.5 48.5t2 91.5v287q0 157 -9.5 186.5t-62.5 36.5q-12 2 -12 7q0 7 11 7q1 0 31 -1t66 -2.5t52 -1.5q20 0 255 5h16l10 1q8 0 9 -8q0 -2 1.5 -9t3 -18
t3.5 -24q2 -11 3.5 -26t3 -24.5t1.5 -10.5q2 -14 2 -21q0 -6 -8 -6q-7 0 -9 15q-11 52 -44 69.5t-112 17.5q-64 0 -89.5 -3t-26.5 -15q-4 -37 -4 -187l-1 -251q-1 -93 6 -129t23 -46.5t62 -16.5q11 -2 11 -7q0 -7 -12 -7z" />
    <glyph glyph-name="uni0414" unicode="&#x414;" horiz-adv-x="731" 
d="M583 -196q-9 0 -9 10q0 1 11 68t11 99q0 19 -30 19h-455q-29 0 -29 -19q0 -30 9.5 -98t9.5 -69q0 -10 -9 -10q-8 0 -15 20q-21 61 -40 111t-25 66.5t-6 23.5q0 11 46 18q36 7 57 38t35 88l85 354q20 80 20 115q0 26 -18 36t-57 15q-20 1 -20 7q0 5 4 6.5t18 1.5
q10 0 75.5 -2t92.5 -2l100 -2q56 0 101 1.5t69.5 3t28.5 1.5q12 0 12 -6t-11 -8q-48 -9 -59.5 -31t-11.5 -100v-392q0 -60 3.5 -85t11.5 -33t30 -11q45 -8 48 -14q1 -1 1 -3q0 -8 -7 -25t-25 -64t-37 -108q-7 -20 -15 -20zM318 41q80 0 164 6v614q-63 6 -91 6q-51 0 -87 -6
l-116 -495q-25 -99 -53 -121q60 -4 183 -4z" />
    <glyph glyph-name="uni0415" unicode="&#x415;" horiz-adv-x="547" 
d="M459 709q5 0 5 -5l-1 -15q-1 -15 -1 -22l-1 -49q0 -9 -5 -9q-6 0 -7 8q-2 17 -12.5 27.5t-30 15.5t-36 6.5t-43.5 1.5q-45 1 -90 -4q-2 -21 -2 -149v-135h101q54 0 74 7t26 27q1 3 4 15q2 8 6 8q6 0 6 -5l-4 -30q-3 -31 -3 -50q0 -14 1 -41.5t1 -31.5q0 -7 -6 -7t-6 7
q-1 44 -18.5 53.5t-74.5 10.5l-107 1l1 -131q0 -103 10 -145q4 -18 28 -23.5t72 -5.5q59 0 85 9t39 34q4 7 7 7q7 0 7 -5q0 -3 -3 -10l-12 -32q-5 -16 -12 -38q-3 -8 -7 -8h-10q-9 1 -17 1q-102 4 -212 4q-23 0 -81 -1.5t-59 -1.5q-10 0 -10 7q0 4 12 7q53 11 62.5 43
t9.5 210v254q0 120 -7.5 141.5t-50.5 26.5q-11 2 -11 6q0 7 13 7h26t54.5 -0.5t48.5 -0.5q100 0 223 7q5 1 9.5 1.5t6 1t2.5 0.5z" />
    <glyph glyph-name="uni0416" unicode="&#x416;" horiz-adv-x="1025" 
d="M33 -5q-18 0 -26 2q-5 2 -5 6q0 6 8 6q15 1 19 2q30 8 54.5 26.5t67.5 65.5l248 274l-203 207q-61 62 -86.5 80.5t-64.5 24.5q-12 2 -12 7q0 7 12 7q6 0 37.5 -2.5t45.5 -2.5q11 0 52.5 1.5t48.5 1.5q10 0 10 -6t-13 -7q-30 -3 -30 -20q0 -26 54 -81l220 -226v158
q0 80 -6 114.5t-18 43.5t-43 13q-11 2 -11 8t13 6q1 0 39.5 -2.5t68.5 -2.5q22 0 46.5 1.5t40 2.5t18.5 1q12 0 12 -7q0 -5 -9 -7q-31 -4 -42.5 -14.5t-17.5 -45t-6 -115.5v-155l221 227q54 57 54 80q0 17 -30 21q-13 1 -13 7t10 6q7 0 48 -1.5t52 -1.5q14 0 45.5 2.5
t37.5 2.5q12 0 12 -7q0 -5 -12 -7q-38 -5 -62.5 -23t-88.5 -82l-202 -208l247 -273q45 -49 68.5 -67t53.5 -25l19 -2q8 0 8 -6q0 -4 -5 -6q-8 -2 -26 -2q-6 0 -39.5 1.5t-41.5 1.5q-7 0 -25 -1.5t-22 -1.5t-11 7l-298 343l1 -136q1 -132 10 -161.5t57 -36.5q17 -1 17 -9
q0 -6 -10 -6q-17 0 -55 2t-74 2q-7 0 -55 -2t-56 -2q-7 0 -7 6q0 7 11 8q56 7 66 41t10 214v80l-298 -343q-7 -7 -11 -7t-22 1.5t-24 1.5q-8 0 -41.5 -1.5t-40.5 -1.5z" />
    <glyph glyph-name="uni0417" unicode="&#x417;" horiz-adv-x="523" 
d="M247 708q74 0 126 -43t52 -108q0 -30 -10.5 -56t-30.5 -47t-38 -34.5t-44 -30.5q80 -20 124 -70.5t44 -117.5q0 -98 -76.5 -152.5t-183.5 -54.5q-98 0 -160 27q-4 1 -4 6q0 3 1 12t1 14q0 10 -1.5 31.5t-1.5 31.5q0 29 3 35q1 4 6 4t5 -4l-1 -5q-1 -5 -1 -9
q0 -33 46.5 -73t118.5 -41q68 -1 108.5 41.5t40.5 115.5q0 80 -40 128t-93 48q-15 -2 -29.5 -5.5t-23 -6t-10.5 -2.5q-9 0 -9 13q0 5 15 9q58 14 92 40q57 45 57 131q0 66 -34 106.5t-88 40.5q-50 0 -89 -23t-47 -71q-3 -11 -7 -11q-5 0 -4 7q1 12 3 41t2 39v34q0 4 6 4
q1 0 3 -3t5.5 -6t8.5 -3q10 0 74 11q36 7 84 7z" />
    <glyph glyph-name="uni0418" unicode="&#x418;" horiz-adv-x="888" 
d="M739 710q9 0 9 -8v-151l1 -366q3 -108 15.5 -138t57.5 -38q11 -3 11 -7q0 -7 -11 -7q-3 0 -37 2t-60 2q-33 0 -84 -1.5t-53 -1.5q-11 0 -11 7q0 4 14 7q50 6 60.5 36.5t11.5 144.5l4 380q-22 -26 -228.5 -258.5t-260.5 -296.5q-28 -31 -34 -31q-7 0 -7 11l1 147l1 372
q-3 117 -12.5 142.5t-57.5 30.5q-11 2 -11 7q0 7 11 7q4 0 39 -2t56 -2q36 0 90.5 1.5t56.5 1.5q10 0 10 -5q0 -7 -13 -8q-49 -7 -64.5 -44.5t-16.5 -134.5v-367q70 74 274 305t228 258q5 5 10 5z" />
    <glyph glyph-name="uni0419" unicode="&#x419;" horiz-adv-x="888" 
d="M455 736q-104 0 -149 80q-8 13 -8 20q0 6 22 14t32 8q6 0 11 -9q17 -34 41.5 -51t72.5 -17q76 0 120 68q5 8 9 8q11 0 11 -8q0 -5 -6 -19q-47 -94 -156 -94zM739 710q9 0 9 -8v-151l1 -366q3 -108 15.5 -138t57.5 -38q11 -3 11 -7q0 -7 -11 -7q-3 0 -37 2t-60 2
q-33 0 -84 -1.5t-53 -1.5q-11 0 -11 7q0 4 14 7q50 6 60.5 36.5t11.5 144.5l4 380q-22 -26 -228.5 -258.5t-260.5 -296.5q-28 -31 -34 -31q-7 0 -7 11l1 147l1 372q-3 117 -12.5 142.5t-57.5 30.5q-11 2 -11 7q0 7 11 7q4 0 39 -2t56 -2q36 0 90.5 1.5t56.5 1.5q10 0 10 -5
q0 -7 -13 -8q-49 -7 -64.5 -44.5t-16.5 -134.5v-367q70 74 274 305t228 258q5 5 10 5z" />
    <glyph glyph-name="uni041A" unicode="&#x41a;" horiz-adv-x="748" 
d="M297 704q12 0 12 -7q0 -5 -9 -7q-31 -4 -42.5 -14.5t-17.5 -45t-6 -115.5v-155l242 231q54 54 54 78q0 17 -30 19q-13 1 -13 7t10 6q7 0 48.5 -1.5t52.5 -1.5q18 0 58 2.5t45 2.5q11 0 11 -7q0 -5 -11 -7q-49 -6 -75 -22.5t-96 -82.5l-216 -203l268 -278q49 -50 76 -67
t63 -25l19 -2q8 0 8 -6q0 -4 -5 -6q-8 -2 -26 -2q-7 0 -51 1.5t-55 1.5q-6 0 -24.5 -1.5t-23.5 -1.5q-3 0 -10 7l-319 342l1 -135q1 -132 12 -161.5t70 -36.5q17 -1 17 -9q0 -6 -10 -6q-18 0 -61 2t-88 2q-6 0 -52 -2t-53 -2q-8 0 -8 6q0 7 11 8q52 6 61.5 40.5t9.5 214.5
v254q0 80 -6.5 114.5t-19 43.5t-46.5 13q-11 2 -11 8t13 6q2 0 42.5 -2.5t70.5 -2.5q25 0 50 1.5t41.5 2.5t18.5 1z" />
    <glyph glyph-name="uni041B" unicode="&#x41b;" horiz-adv-x="741" 
d="M72 -10q-33 0 -56 13q-8 5 -8 11q0 11 6 49q4 16 10 54q1 10 7 10q8 0 8 -6q0 -1 -1 -13t-1 -17q0 -15 13 -25t31 -10q29 0 51.5 28.5t34.5 82.5l77 350q16 82 16 128q0 23 -15.5 31.5t-57.5 12.5q-11 2 -11 7q0 8 13 8l173 -4l101 -2q55 0 100 1.5t69.5 3t28.5 1.5
q13 0 13 -6t-12 -8q-49 -8 -60 -36t-11 -137v-252q0 -78 1.5 -116t4 -69.5t12 -42.5t20 -16.5t33.5 -9.5q11 -3 11 -9t-11 -6q-7 0 -45.5 2t-46.5 2q-43 0 -88.5 -2t-64.5 -2q-13 0 -13 6t15 9q56 9 68.5 44.5t12.5 157.5v443q-61 6 -90 6q-56 0 -94 -5l-104 -505
q-18 -88 -49.5 -125t-90.5 -37z" />
    <glyph glyph-name="uni041C" unicode="&#x41c;" horiz-adv-x="935" 
d="M196 712q6 0 8 -5q172 -367 273 -567l253 561q4 9 9 9q7 0 9 -6q0 -16 18 -137l54 -384q14 -103 31 -133.5t57 -39.5q16 -3 16 -9t-12 -6q-15 0 -49.5 2.5t-54.5 2.5q-19 0 -66 -2t-64 -2q-9 0 -9 8q0 7 8 7q65 9 65 46q0 33 -8 91l-48 357l-225 -507q-5 -12 -9 -12
q-3 0 -9 14q-132 297 -232 500l-37 -304q-9 -68 -9 -109q0 -38 23 -56t54 -21q13 -1 13 -8t-10 -7q-6 0 -52 2.5t-60 2.5q-18 0 -55.5 -2t-42.5 -2q-11 0 -11 7q0 6 11 8q49 7 61.5 32.5t27.5 135.5l48 373q13 102 17 153q0 7 7 7z" />
    <glyph glyph-name="uni041D" unicode="&#x41d;" horiz-adv-x="877" 
d="M797 704q13 0 13 -6t-12 -8q-49 -8 -60 -36t-11 -137v-252v-64t1 -51t1.5 -41t3 -31.5t4.5 -24t7 -16t9 -11.5t12 -7t15 -5t18 -3q11 -3 11 -9t-11 -6q-7 0 -45.5 2t-46.5 2q-43 0 -89 -2t-67 -2q-10 0 -10 6q0 5 15 8q56 7 68.5 44t12.5 159v120q-84 6 -210 6
q-137 0 -189 -6l1 -124q1 -127 10 -154q10 -32 49 -41q7 -2 17 -3q16 -3 16 -8q0 -7 -10 -7q-30 0 -74 2t-73 2q-7 0 -49.5 -2t-47.5 -2q-11 0 -11 6q0 5 12 8q50 8 60 44.5t10 215.5v249q0 51 -1.5 76.5t-4 46.5t-11.5 28.5t-18.5 11.5t-31.5 7q-11 2 -11 7q0 8 13 8l42 -2
q41 -3 61 -3q23 0 72 2.5t50 2.5q13 0 13 -7q0 -6 -11 -7q-33 -4 -46.5 -16t-19.5 -46t-6 -113v-127q72 -8 189 -8q155 0 210 6l1 129q0 106 -11.5 136t-55.5 37q-10 2 -10 7q0 7 13 7q7 0 48 -1.5t67 -1.5t65 2.5t44 2.5z" />
    <glyph glyph-name="uni041E" unicode="&#x41e;" horiz-adv-x="837" 
d="M411 712q165 0 266 -96.5t101 -258.5q0 -167 -91.5 -266t-263.5 -99q-71 0 -133.5 20t-115.5 61t-84 114t-31 170q0 164 93 259.5t259 95.5zM406 683q-120 0 -183.5 -80.5t-63.5 -217.5q0 -180 77.5 -272t206.5 -92q100 0 165.5 83.5t65.5 221.5q0 168 -71 262.5
t-197 94.5z" />
    <glyph glyph-name="uni041F" unicode="&#x41f;" horiz-adv-x="846" 
d="M71 -4q-11 0 -11 7q0 4 12 7q16 3 24.5 6.5t18 8.5t13 18t7.5 27.5t5 46t1.5 64t0.5 89.5v249q0 51 -1.5 76.5t-4 46.5t-11 28.5t-19 11.5t-31.5 7q-11 2 -11 7q0 8 13 8l35 -1q34 -1 84.5 -2t92.5 -1l279 -2q56 0 101 1.5t69 3t28 1.5q13 0 13 -6t-12 -8
q-26 -4 -38.5 -9.5t-20.5 -26t-9.5 -48.5t-1.5 -89v-252q0 -78 1.5 -116t4 -69.5t12 -42.5t20 -16.5t33.5 -9.5q11 -3 11 -9t-11 -6q-7 0 -45.5 2t-46.5 2q-43 0 -89 -2t-67 -2q-10 0 -10 7t15 8q56 8 68.5 44t12.5 158v442q-78 7 -177 7q-145 0 -197 -7l1 -446
q0 -125 10.5 -157t65.5 -41q15 -3 15 -8q0 -7 -10 -7q-30 0 -73.5 2t-72.5 2q-7 0 -49.5 -2t-47.5 -2z" />
    <glyph glyph-name="uni0420" unicode="&#x420;" horiz-adv-x="607" 
d="M347 709q96 0 151.5 -44t55.5 -134q0 -103 -59 -162.5t-151 -59.5q-27 0 -45 6q-5 2 -5 6q0 6 6 6l12 -1q11 -2 25 -2q63 0 96.5 48t33.5 127q0 87 -47.5 132.5t-127.5 45.5q-23 0 -53 -5q-2 -18 -2 -157l1 -302q0 -133 11 -164.5t68 -38.5q21 -2 21 -8q0 -7 -15 -7
q-25 0 -69 2.5t-76 2.5q-7 0 -54 -2.5t-53 -2.5q-12 0 -12 6q0 5 12 8q26 5 36.5 11t21 16t13 42.5t4 69.5t1.5 117v254q0 74 -6 108t-19.5 46.5t-43.5 17.5q-8 1 -8 7q0 7 16 7q4 0 39 -2t57 -2q13 0 77.5 4t87.5 4z" />
    <glyph glyph-name="uni0421" unicode="&#x421;" horiz-adv-x="729" 
d="M430 710q46 0 119 -14q80 -15 95 -15q10 0 17 4l7 4q7 0 7 -5q0 -1 -2 -15.5t-2 -20.5q-2 -46 -2 -91q0 -9 -6 -9q-5 0 -7 10q-8 36 -53.5 65.5t-95 43t-86.5 13.5q-132 0 -198 -78.5t-66 -214.5q0 -164 89 -263.5t212 -99.5q85 0 136.5 32t68.5 83q4 9 8 9q6 0 6 -5
q0 -8 -5 -41t-10 -48q-8 -25 -10.5 -30t-10.5 -7q-39 -11 -73 -17q-59 -10 -129 -10q-76 0 -141.5 19t-120.5 60t-86.5 114.5t-31.5 173.5q0 163 99.5 258t271.5 95z" />
    <glyph glyph-name="uni0422" unicode="&#x422;" horiz-adv-x="646" 
d="M47 715q3 0 13 -2q3 0 11.5 -2t11.5 -2.5t12.5 -1.5t16.5 -2t20.5 -2t27 -1.5t34.5 -1t44 -1t54 -0.5h67q160 0 246 8q10 2 13 2q4 0 4 -5q0 -1 -1 -16t-1 -27q0 -9 -1 -35t-1 -28q0 -9 -5 -9q-6 0 -7 8q-5 38 -30.5 48.5t-84.5 12.5h-10q-74 0 -110 -1q-3 -13 -3 -37
l2 -439q0 -45 0.5 -68t4.5 -45t6.5 -29.5t14.5 -15t20.5 -8.5t31.5 -4q14 -2 14 -8q0 -7 -9 -7q-6 0 -52 2t-101 2q-6 0 -49 -2t-51 -2q-11 0 -11 7t11 8q38 7 51.5 17t20.5 43.5t7 112.5v441q0 22 -2 32q-30 1 -98 1q-35 -1 -52.5 -3t-38.5 -7.5t-31.5 -17t-15.5 -30.5
q-3 -10 -8 -10t-5 6q0 12 9 60q6 44 6 54q0 5 4 5z" />
    <glyph glyph-name="uni0423" unicode="&#x423;" horiz-adv-x="728" 
d="M222 -11q-55 0 -88 20q-6 4 -6 8q0 6 6 48q2 14 4 37t3.5 38.5t2.5 20.5q1 10 8 10q9 0 9 -6q0 -1 -1.5 -15t-1.5 -19q0 -30 18 -52q21 -24 62 -24q64 0 116 92l-215 416q-40 78 -58.5 99.5t-49.5 26.5q-16 3 -16 9q0 7 12 7q16 0 46 -2t38 -2q32 0 71 1.5t49 1.5
q17 0 17 -8q0 -5 -11 -7q-24 -4 -33.5 -10.5t-9.5 -19.5q0 -16 33 -80l173 -343l155 328q31 68 31 87q0 32 -45 38q-11 1 -11 7q0 8 10 8q6 0 45.5 -2.5t50.5 -2.5q10 0 32 2.5t33 2.5q12 0 12 -7q0 -6 -12 -8q-25 -6 -44.5 -32.5t-55.5 -102.5l-144 -298
q-84 -166 -107 -198q-13 -19 -26 -30q-44 -39 -102 -39z" />
    <glyph glyph-name="uni0424" unicode="&#x424;" horiz-adv-x="771" 
d="M717 361q0 -108 -74.5 -175.5t-215.5 -75.5q3 -65 18 -87t60 -28q15 -1 15 -8q0 -6 -10 -6q-32 0 -74 1.5t-65 1.5q-9 0 -53.5 -2t-51.5 -2q-11 0 -11 6q0 4 11 7q27 5 39 12t20.5 31t11.5 75q-123 11 -203 72.5t-80 177.5q0 105 74.5 169.5t210.5 73.5q-2 63 -16.5 81
t-59.5 24q-11 2 -11 7q0 7 13 7q4 0 49.5 -2.5t65.5 -2.5q18 0 62.5 1.5t48.5 1.5q13 0 13 -7q0 -4 -11 -6q-42 -6 -54 -22.5t-13 -82.5q133 -10 212 -75t79 -167zM143 383q0 -101 53 -162t143 -77q1 29 1 105v280v47q-97 -9 -147 -60t-50 -133zM426 139q91 5 145.5 58
t54.5 139q0 101 -52.5 162.5t-148.5 75.5v-40l1 -337v-58z" />
    <glyph glyph-name="uni0425" unicode="&#x425;" horiz-adv-x="652" 
d="M597 705q11 0 11 -7q0 -5 -11 -7q-39 -4 -59 -25t-70 -106l-108 -185l112 -193q67 -111 94 -139.5t66 -34.5q11 -3 11 -8q0 -6 -8 -6q-19 0 -58.5 2.5t-60.5 2.5q-16 0 -62 -2t-64 -2q-10 0 -10 6q0 5 8 7q50 7 50 28q0 22 -50 113l-83 149l-70 -119q-70 -116 -70 -142
q0 -15 11 -21t35 -8q11 -1 11 -7t-10 -6q-6 0 -41.5 2.5t-49.5 2.5q-17 0 -54.5 -3t-40.5 -3q-11 0 -11 7q0 5 11 7q38 4 61.5 30t79.5 116l113 188l-123 209q-28 49 -37 64t-26 36t-30 27t-35 10q-9 2 -9 8t11 6q15 0 52 -1t57 -1q14 0 52.5 1t57.5 1q8 0 8 -6q0 -4 -9 -6
q-24 -4 -32.5 -10.5t-8.5 -21.5q0 -26 47 -105l80 -134l76 130q43 73 43 110q0 25 -40 31q-11 1 -11 7t10 6q6 0 43.5 -2t48.5 -2q17 0 52 3t40 3z" />
    <glyph glyph-name="uni0426" unicode="&#x426;" horiz-adv-x="838" 
d="M707 -196q-9 0 -9 10q0 1 8 69t8 98q0 18 -31 18q-37 0 -173.5 0.5t-220.5 0.5q-44 0 -95 -1t-84 -2l-33 -1q-13 0 -13 7q0 5 11 7q18 3 27 5t18 9.5t12 16t6 30t3.5 44.5t0.5 66v278q0 40 -0.5 63.5t-0.5 49t-2 38.5t-4 27.5t-6.5 20.5t-8.5 13t-12 9.5t-15.5 5
t-20.5 4.5q-12 1 -12 7q0 7 11 7q4 0 49 -2t59 -2q22 0 63 2t72 2q10 0 10 -7t-15 -8q-55 -9 -65.5 -41t-10.5 -157l-1 -443q52 -7 197 -7q99 0 177 7v439q0 122 -12.5 159t-68.5 44q-15 2 -15 8t10 6q21 0 67 -2t89 -2q8 0 46.5 2t45.5 2q11 0 11 -7t-11 -8
q-13 -2 -20.5 -4t-16 -5t-12.5 -9.5t-8.5 -13t-6.5 -21t-4 -28t-2 -39.5t-0.5 -50t-0.5 -65v-281q0 -89 7 -108.5t38 -24.5q44 -8 48 -15q1 -2 1 -4q0 -8 -6.5 -24.5t-25 -65t-38.5 -107.5q-6 -20 -14 -20z" />
    <glyph glyph-name="uni0427" unicode="&#x427;" horiz-adv-x="824" 
d="M478 -4q-10 0 -10 7t13 8q70 9 86.5 45.5t16.5 156.5l1 129q-131 -76 -259 -76q-100 0 -148 49.5t-48 154.5v49q0 51 -1.5 76.5t-4 46.5t-11.5 28.5t-18.5 11.5t-31.5 7q-11 2 -11 7q0 8 13 8l41 -2q42 -3 62 -3q22 0 69 2.5t48 2.5q13 0 13 -7q0 -6 -11 -7
q-31 -4 -43.5 -15.5t-18 -46t-5.5 -113.5v-46q0 -73 35.5 -108.5t111.5 -35.5q116 0 217 49l1 141q0 106 -11.5 136t-55.5 37q-10 1 -10 7q0 7 13 7q7 0 48 -1.5t67 -1.5t64.5 2.5t43.5 2.5q13 0 13 -6t-12 -8q-49 -8 -59.5 -35.5t-10.5 -137.5v-252q0 -66 0.5 -100
t3.5 -66.5t6 -44.5t13 -23t19 -13.5t29 -6.5q11 -1 11 -8t-11 -7q-4 0 -49.5 2t-72.5 2q-29 0 -74 -2t-72 -2z" />
    <glyph glyph-name="uni0428" unicode="&#x428;" horiz-adv-x="1221" 
d="M77 -4q-13 0 -13 8q0 5 11 7q22 3 31.5 7t18.5 11.5t11.5 28.5t4 46t1.5 77v249q0 100 -1 141.5t-9.5 72t-20 36t-39.5 10.5q-12 1 -12 7q0 7 11 7q4 0 49 -2t59 -2q22 0 63 2t72 2q10 0 10 -7t-15 -9q-55 -9 -65.5 -40.5t-10.5 -156.5l-1 -443q49 -7 177 -7q56 0 146 6
q5 18 6 53v387q0 122 -12.5 158.5t-68.5 43.5q-15 1 -15 8t10 7q6 0 64 -2t72 -2q19 0 66.5 2t56.5 2q10 0 10 -7q0 -6 -15 -9q-36 -5 -51.5 -19t-19.5 -47q-5 -25 -5 -131l-1 -350q1 -78 14 -95q49 -5 163 -5q65 0 152 7v439q0 121 -12.5 157t-68.5 45q-15 1 -15 9
q0 6 10 6q21 0 67 -2t89 -2q8 0 46.5 2t45.5 2q11 0 11 -7t-11 -8q-20 -4 -29 -6.5t-19 -13.5t-13 -23t-6 -44.5t-3.5 -66.5t-0.5 -100v-253q0 -110 10.5 -137.5t59.5 -34.5q12 -2 12 -7q0 -7 -13 -7q-4 0 -28 1t-69 2t-100 1h-660q-42 0 -92.5 -1t-81.5 -2t-33 -1z" />
    <glyph glyph-name="uni0429" unicode="&#x429;" horiz-adv-x="1235" 
d="M1058 0h-774q-42 0 -92.5 -1t-81.5 -2t-33 -1q-13 0 -13 8q0 5 11 7q22 3 31.5 7t18.5 11.5t11.5 28.5t4 46t1.5 77v249q0 100 -1 141.5t-9.5 72t-20 36t-39.5 10.5q-12 1 -12 7q0 7 11 7q4 0 49 -2t59 -2q22 0 63 2t72 2q10 0 10 -7t-15 -8q-55 -9 -65.5 -41t-10.5 -157
l-1 -444q49 -6 177 -6q56 0 146 6q4 16 6 49v391q0 122 -12.5 159t-68.5 44q-15 2 -15 8t10 6h13h3l27 -1q84 -3 93 -3q19 0 52 2t51 2h9h2h9q10 0 10 -7q0 -5 -15 -8q-36 -5 -51.5 -19t-19.5 -48q-2 -13 -4 -41q-1 -24 -1 -90l-1 -354q1 -75 14 -91q49 -5 163 -5
q59 0 152 6v440q0 121 -12.5 157.5t-68.5 45.5q-15 2 -15 8t10 6q21 0 67 -2t89 -2q8 0 46.5 2t45.5 2q11 0 11 -7t-11 -8q-20 -4 -29 -6.5t-19 -13.5t-13 -23t-6 -44.5t-3.5 -66.5t-0.5 -100v-253q0 -63 5 -91.5t13 -35.5t28 -11q47 -10 50 -15q2 -2 2 -6q0 -10 -6 -26
l-24 -64t-37 -109q-7 -20 -15 -20t-8 10q0 1 8 69t8 98q0 17 -38 19z" />
    <glyph glyph-name="uni042A" unicode="&#x42a;" horiz-adv-x="759" 
d="M479 377q110 -1 168 -51.5t58 -132.5q0 -88 -62.5 -143.5t-159.5 -55.5q-12 0 -79.5 3.5t-93.5 3.5q-22 0 -61 -1.5t-41 -1.5q-11 0 -11 7q0 4 12 7q50 9 61.5 32t11.5 108v448q0 41 -4 57q-31 1 -99 1q-46 -2 -68.5 -5t-43 -16t-27.5 -38q-3 -9 -9 -9q-3 0 -3 7
q0 11 9 59q6 44 6 54q0 5 5 5q2 0 12 -2q5 -1 17 -3.5t18.5 -3.5t25 -2.5t41 -2.5t62.5 -1.5t93 -0.5q23 0 70 1.5t51 1.5q13 0 13 -7q0 -4 -11 -6q-22 -3 -32 -7t-19 -11.5t-11.5 -29t-4 -47t-1.5 -78.5v-123q0 -13 14 -13q13 -1 93 -3zM479 28q23 0 43.5 6t42 20.5t34 45
t12.5 74.5q0 79 -53 126t-139 47h-41q-5 0 -5 -6v-130v-31.5v-29v-24t0.5 -22.5t2 -17.5t3.5 -16t5 -11.5q15 -31 95 -31z" />
    <glyph glyph-name="uni042B" unicode="&#x42b;" horiz-adv-x="945" 
d="M336 -6q-12 0 -75 3.5t-87 3.5q-23 0 -62 -1.5t-40 -1.5q-11 0 -11 7q0 4 12 7q50 10 61 32.5t11 107.5v367q0 52 -1.5 77.5t-4 46.5t-11.5 28.5t-18.5 11.5t-31.5 7q-11 2 -11 7q0 7 13 7q4 0 42.5 -2.5t57.5 -2.5q22 0 70 1.5t51 1.5q13 0 13 -7q0 -4 -11 -6
q-22 -3 -32 -7t-19.5 -11.5t-12 -28.5t-3.5 -47.5t-1 -78.5v-123q0 -13 14 -13q15 -1 83 -3q111 -2 169 -52t58 -132q0 -88 -63 -143.5t-160 -55.5zM631 704q4 0 42.5 -2.5t56.5 -2.5q22 0 70 1.5t52 1.5q13 0 13 -6q0 -5 -11 -7q-22 -3 -32 -7t-19.5 -12t-12 -29t-4 -47.5
t-1.5 -78.5l1 -302q1 -127 13 -160t67 -42q15 -1 15 -8q0 -6 -10 -6q-32 0 -77.5 1.5t-72.5 1.5q-6 0 -49 -2t-51 -2q-11 0 -11 6q0 4 11 7q36 7 49 21.5t19.5 64.5t6.5 170v245q0 53 -1 79t-4 49t-11.5 31.5t-19 13t-31.5 7.5q-11 2 -11 8t13 6zM332 28q23 0 44 6
t42.5 20.5t34 45t12.5 74.5q0 79 -53 126t-140 47h-31q-5 0 -5 -6v-130q0 -129 11 -152q14 -31 85 -31z" />
    <glyph glyph-name="uni042C" unicode="&#x42c;" horiz-adv-x="612" 
d="M346 -6q-12 0 -79 3.5t-93 3.5q-23 0 -62 -1.5t-40 -1.5q-11 0 -11 7q0 4 12 7q50 10 61 32.5t11 107.5v367q0 52 -1.5 77.5t-4 46.5t-11.5 28.5t-18.5 11.5t-31.5 7q-11 2 -11 7q0 7 13 7q4 0 42.5 -2.5t57.5 -2.5q22 0 70 1.5t51 1.5q13 0 13 -7q0 -4 -11 -6
q-22 -3 -32 -7t-19.5 -11.5t-12 -28.5t-3.5 -47.5t-1 -78.5v-123q0 -13 14 -13q13 -1 93 -3q111 -2 169 -52t58 -132q0 -88 -63 -143.5t-160 -55.5zM342 28q23 0 44 6t42.5 20.5t34 45t12.5 74.5q0 79 -53 126t-140 47h-41q-5 0 -5 -6v-130q0 -129 11 -152q15 -31 95 -31z
" />
    <glyph glyph-name="uni042D" unicode="&#x42d;" horiz-adv-x="731" 
d="M309 710q165 0 264 -95t99 -258q0 -94 -30 -166t-82.5 -115t-118.5 -64.5t-143 -21.5q-73 0 -136 12q-37 6 -73 16q-8 2 -10.5 7t-9.5 32q-15 58 -15 89q0 5 6 5q4 0 7 -9q16 -56 75 -87.5t156 -30.5q121 2 198.5 90.5t77.5 221.5v8l-263 -1q-57 -1 -75 -12.5t-18 -61.5
q0 -7 -6 -7q-5 0 -5 7q0 3 0.5 34.5t0.5 48.5q0 15 -1.5 36t-3 36.5t-1.5 17.5q0 5 6 5q3 0 5 -8q0 -1 1.5 -6t2.5 -9q7 -26 26.5 -35t73.5 -9h255q-10 142 -82 221t-192 79q-83 0 -146 -32.5t-78 -89.5q-3 -11 -7 -11q-5 0 -5 10q0 14 -1 47t-1 44q0 6 -2 22t-2 17q0 4 6 4
l8 -4q7 -4 17 -4q17 0 95 13q74 14 127 14z" />
    <glyph glyph-name="uni042E" unicode="&#x42e;" horiz-adv-x="1155" 
d="M749 712q156 0 251.5 -96.5t95.5 -258.5q0 -167 -86 -266t-249 -99q-65 0 -123 19t-107.5 58.5t-79.5 108.5t-33 161q-138 0 -186 -6l1 -124q1 -126 10 -154q10 -31 49 -41q7 -1 17 -3q15 -3 15 -8q0 -7 -10 -7q-30 0 -73.5 2t-72.5 2q-7 0 -49.5 -2t-47.5 -2
q-11 0 -11 7q0 4 12 7q16 3 24.5 6.5t18 8.5t13 18t7.5 27.5t5 46t1.5 64t0.5 89.5v249q0 51 -1.5 76.5t-4 46.5t-11 28.5t-19 11.5t-31.5 7q-11 2 -11 7q0 8 13 8l41 -2q42 -3 62 -3q23 0 71.5 2.5t49.5 2.5q13 0 13 -7q0 -6 -11 -7q-47 -5 -59.5 -34t-11.5 -141v-130
q70 -5 186 -5q7 154 94 243t237 89zM781 21q92 0 152 83t60 222q0 168 -66 262.5t-183 94.5q-110 0 -168 -80.5t-58 -217.5q0 -179 72 -271.5t191 -92.5z" />
    <glyph glyph-name="uni042F" unicode="&#x42f;" horiz-adv-x="755" 
d="M379 707q41 0 107 -3t78 -3q18 0 63 2t47 2q17 0 17 -6q0 -7 -9 -8q-49 -5 -65.5 -28t-16.5 -96v-351q0 -144 8.5 -170.5t58.5 -34.5q11 -2 11 -6q0 -7 -11 -7q-5 0 -49 1.5t-55 1.5q-33 0 -74.5 -1.5t-61.5 -1.5q-15 0 -15 7q0 6 10 7q59 8 73 42t14 162l1 101h-89
q-22 0 -52 4q-7 -12 -33 -57.5t-52.5 -90t-49.5 -78.5q-73 -106 -197 -106q-55 0 -55 12q0 6 6 6q1 0 6 -0.5t10 -0.5q23 0 46.5 13.5t47.5 40t39 45.5t37 51q14 20 123 183q-111 66 -111 191q0 77 51.5 127t141.5 50zM466 676q-92 0 -145.5 -49t-53.5 -137q0 -81 58 -122
q21 -21 80 -21q58 0 105 9v159q0 124 -2 155q-18 6 -42 6z" />
    <glyph glyph-name="uni0430" unicode="&#x430;" horiz-adv-x="623" 
d="M319 565q6 0 10 -9l39 -94l130 -312q33 -80 53.5 -107t52.5 -33q14 -3 14 -9q0 -5 -6 -5q-4 0 -49 2t-73 2q-12 0 -47 -1.5t-48 -1.5q-7 0 -7 6q0 5 11 7q42 7 42 31q0 21 -15 57l-42 105l-192 -1l-44 -97q-16 -34 -16 -58q0 -32 41 -36q11 -1 11 -7t-9 -6q-6 0 -39 2
t-44 2q-15 0 -46 -2t-36 -2q-9 0 -9 5t10 7q30 4 50 31t58 107l142 300q35 74 48 106q6 11 10 11zM294 429l-86 -192l163 2z" />
    <glyph glyph-name="uni0431" unicode="&#x431;" horiz-adv-x="527" 
d="M290 -5q-8 0 -65 3t-82 3q-15 0 -36 -0.5t-36 -1.5t-17 -1q-9 0 -9 6q0 7 10 8q43 6 51.5 42.5t8.5 220.5v140q0 89 -8.5 108t-52.5 23q-9 2 -9 8t9 6l32 -1q32 -1 57 -1t134.5 2.5t120.5 2.5l22 1q5 0 6 -5q2 -6 7 -44q1 -9 3 -19t3.5 -18.5t1.5 -9.5q0 -3 2 -11t2 -11
q0 -5 -8 -5q-5 0 -8 11q-11 45 -41.5 61.5t-103.5 16.5h-20h-36h-24q-5 -35 -5 -116v-101q0 -8 10 -8q39 0 71 -1q203 -4 203 -150q0 -70 -53.5 -114.5t-139.5 -44.5zM287 21q43 0 75 25.5t32 92.5q0 62 -43 99t-109 37h-38q-5 0 -5 -5v-104q0 -93 11 -117q13 -28 77 -28z
" />
    <glyph glyph-name="uni0432" unicode="&#x432;" horiz-adv-x="527" 
d="M238 561q168 0 175 -128q0 -45 -25 -81t-66 -55v-1q67 -8 114.5 -46t47.5 -96q0 -71 -53 -114.5t-141 -44.5q-18 -1 -74 2.5t-76 3.5q-19 0 -52 -1l-34 -2q-9 0 -9 6t10 7q43 8 51 44t8 220v140q0 90 -8 108.5t-52 22.5q-9 2 -9 8t9 6q2 0 14 -0.5t31.5 -1t40.5 -0.5
q11 0 47.5 1.5t50.5 1.5zM233 531q-17 0 -29 -2q-5 -26 -5 -116v-94q0 -7 4.5 -9t16.5 -4q22 -2 60 -2q22 0 39 24t17 74q0 40 -12 68t-30 40t-33 16.5t-28 4.5zM241 273h-37q-5 0 -5 -5v-99q0 -103 10 -124q12 -27 77 -27q109 0 109 121q0 61 -43.5 97.5t-110.5 36.5z" />
    <glyph glyph-name="uni0433" unicode="&#x433;" horiz-adv-x="498" 
d="M293 -2q-3 0 -42.5 1t-77.5 1q-21 0 -43 -0.5t-35.5 -1t-15.5 -0.5q-11 0 -11 7q0 5 9 7q35 5 44.5 28.5t9.5 104.5v260q0 70 -5 96.5t-16 35t-43 12.5q-10 1 -10 8q0 6 10 6q3 0 61 -2t78 -2q36 0 122.5 2t100.5 2l22 1q7 0 8 -5l6 -39q6 -50 8 -56q3 -12 3 -18
q0 -7 -7 -7q-6 0 -9 11q-11 44 -41.5 60.5t-103.5 16.5q-56 0 -77 -4t-21 -17v-330q0 -106 11.5 -130.5t66.5 -32.5q10 -2 10 -8q0 -7 -12 -7z" />
    <glyph glyph-name="uni0434" unicode="&#x434;" horiz-adv-x="640" 
d="M499 -157q-8 0 -8 8q0 1 9.5 56t9.5 79q0 13 -28 13h-378q-31 0 -31 -14q0 -24 8.5 -78.5t8.5 -55.5q0 -8 -7 -8t-14 19q-17 46 -33.5 85t-23.5 54.5t-7 19.5q0 6 30 17q46 21 68 98l91 280q19 55 19 89q0 25 -15.5 33.5t-55.5 10.5q-13 1 -13 7q0 7 14 7q17 0 72.5 -1.5
t78.5 -1.5l99 -2q44 -1 80 0.5t57.5 3t25.5 1.5q11 0 11 -6t-10 -7q-40 -8 -51 -28t-11 -90v-309q0 -54 6 -66.5t31 -18.5q43 -10 43 -19q0 -4 -7.5 -18.5t-23 -52t-31.5 -86.5q-6 -19 -14 -19zM265 43q74 0 143 4v470q-37 5 -72 5q-31 0 -67 -5l-115 -365q-30 -92 -46 -107
q80 -2 157 -2z" />
    <glyph glyph-name="uni0435" unicode="&#x435;" horiz-adv-x="460" 
d="M390 567q4 0 4 -4l-1 -13q-1 -14 -1 -20l-1 -39q0 -8 -4 -8q-6 0 -7 7q-4 18 -22 27.5t-34 11t-45 2.5q-40 1 -75 -3q-2 -26 -2 -116v-108h84q46 0 62 5.5t21 22.5l3 12q3 7 6 7q5 0 5 -6q0 -1 -1.5 -12t-2.5 -26t-1 -27q0 -11 0.5 -33t0.5 -25q0 -5 -5 -5t-5 5
q-3 35 -17 43t-61 8l-89 1l1 -104q0 -77 8 -109q6 -28 84 -28q47 0 68.5 8t33.5 27q5 8 8 8q6 0 6 -5q0 -4 -3 -10t-10 -27l-10 -31q-2 -6 -6 -6l-8 1h-17q-108 3 -183 3q-20 0 -69.5 -1.5t-50.5 -1.5q-8 0 -8 6t10 7q36 6 44 17q14 18 15 115v69v203q0 40 -1 60t-3 36.5
t-8.5 22t-14.5 8.5t-24 5q-9 1 -9 7t10 6h22.5t48 -0.5t44.5 -0.5q82 0 192 5q5 1 9.5 1.5t6 1t2.5 0.5z" />
    <glyph glyph-name="uni0436" unicode="&#x436;" horiz-adv-x="896" 
d="M26 -4q-14 0 -20 2q-5 0 -5 5t7 5q13 1 16 2q27 7 47.5 21t55.5 51l208 226l-169 159q-51 48 -73 62.5t-56 20.5q-10 2 -10 6q0 6 11 6q5 0 31.5 -2t38.5 -2q10 0 46 1.5t42 1.5q9 0 9 -6q0 -5 -12 -6q-24 -2 -24 -14q0 -19 45 -63l191 -184v127q0 64 -5.5 91t-15 34.5
t-36.5 10.5q-9 1 -9 7q0 5 11 5l33 -2q33 -2 64 -2q24 0 46.5 1t35.5 2t15 1q10 0 10 -6t-8 -6q-26 -3 -36 -11t-15.5 -36t-4.5 -92v-124l191 184q45 43 45 63q0 11 -25 14q-10 1 -10 6q0 6 8 6q6 0 42.5 -1.5t46.5 -1.5q12 0 38.5 2t31.5 2q11 0 11 -6q0 -4 -11 -6
q-33 -3 -53.5 -17.5t-74.5 -65.5l-170 -161l208 -224q37 -40 57 -54t47 -18l16 -2q7 0 7 -5t-4 -5q-8 -2 -21 -2q-7 0 -42 1t-43 1q-5 0 -22.5 -1t-21.5 -1q-3 0 -8 6l-243 272l1 -107q2 -111 10 -130q8 -21 40 -26q2 -1 5 -1q14 -1 14 -8q0 -5 -8 -5q-10 0 -44 1.5t-72 1.5
q-6 0 -49.5 -1.5t-48.5 -1.5q-7 0 -7 5q0 6 9 7q47 5 56 32.5t9 170.5v63l-242 -273q-5 -6 -8 -6q-4 0 -21.5 1t-23.5 1q-7 0 -42 -1t-42 -1z" />
    <glyph glyph-name="uni0437" unicode="&#x437;" horiz-adv-x="447" 
d="M210 567q65 0 109 -32.5t44 -83.5q0 -32 -16.5 -60t-34.5 -43t-47 -35q66 -16 102.5 -55.5t36.5 -93.5q0 -81 -67 -125t-161 -44q-92 0 -132 21q-4 1 -4 6q0 2 0.5 9t0.5 11q0 7 -1.5 27t-1.5 33q0 18 3 24q1 4 5 4q6 0 6 -4q0 -1 -0.5 -7.5t-0.5 -9.5q0 -25 38 -55.5
t97 -31.5q60 -1 94 33.5t34 91.5q0 66 -32.5 102t-79.5 36q-13 0 -35 -7.5t-25 -7.5q-8 0 -8 11q0 7 12 10q48 11 84 35q21 14 34.5 41.5t13.5 59.5q0 53 -29.5 84t-74.5 31q-40 0 -71.5 -16.5t-38.5 -53.5q-3 -14 -7 -14q-6 0 -6 5q0 3 2.5 30.5t2.5 38.5v27q0 4 5 4
q1 0 5 -5t9 -5q11 0 64 9q33 5 71 5z" />
    <glyph glyph-name="uni0438" unicode="&#x438;" horiz-adv-x="732" 
d="M622 566q8 0 8 -9v-119l3 -290q3 -88 12.5 -110t48.5 -30q9 -3 9 -6q0 -6 -9 -6q-4 0 -34.5 1.5t-47.5 1.5q-33 0 -76.5 -1t-44.5 -1q-9 0 -9 6q0 5 11 7q38 5 46 25.5t9 95.5v18l3 284q-19 -20 -123 -124t-178.5 -179.5t-102.5 -106.5q-33 -32 -40 -32q-5 0 -5 9v118
l1 294q-3 90 -11 110t-49 27q-9 1 -9 7t9 6q1 0 27 -2t54 -2q27 0 57.5 1t51.5 1.5t25 0.5q9 0 9 -5t-11 -8q-39 -7 -52 -27t-14 -78l-1 -313q61 56 228 228.5t197 202.5q5 5 8 5z" />
    <glyph glyph-name="uni0439" unicode="&#x439;" horiz-adv-x="732" 
d="M384 610q-104 0 -149 80q-8 13 -8 20q0 6 22 14t32 8q6 0 11 -9q17 -34 41.5 -51t72.5 -17q76 0 120 68q5 8 9 8q11 0 11 -8q0 -5 -6 -19q-47 -94 -156 -94zM613 566q8 0 8 -9v-119l3 -290q3 -88 12.5 -110t48.5 -30q9 -3 9 -6q0 -6 -9 -6q-4 0 -34.5 1.5t-47.5 1.5
q-33 0 -76.5 -1t-44.5 -1q-9 0 -9 6q0 5 11 7q38 5 46 25.5t9 95.5v18l3 284q-19 -20 -123 -124t-178.5 -179.5t-102.5 -106.5q-33 -32 -40 -32q-5 0 -5 9v118l1 294q-3 90 -11 110t-49 27q-9 1 -9 7t9 6q2 0 27 -2t54 -2q27 0 57.5 1t51.5 1.5t25 0.5q9 0 9 -5t-11 -8
q-39 -7 -52 -27t-14 -78l-1 -313q61 56 228 228.5t197 202.5q5 5 8 5z" />
    <glyph glyph-name="uni043A" unicode="&#x43a;" horiz-adv-x="630" 
d="M255 563q10 0 10 -7q0 -6 -7 -7q-26 -5 -36 -12t-15.5 -34.5t-5.5 -89.5v-125l201 186q44 43 44 60q0 12 -24 14q-11 1 -11 7t8 6q6 0 41 -1.5t45 -1.5q15 0 51 2t40 2q10 0 10 -6q0 -8 -10 -8q-43 -4 -66 -17t-77 -63l-175 -159l223 -227q38 -39 57.5 -51t51.5 -20
l16 -2q6 0 6 -5t-4 -6q-8 -2 -22 -2q-7 0 -47.5 1t-49.5 1q-5 0 -20 -1t-18 -1q-5 0 -10 6l-260 272v-107q0 -103 10.5 -127t60.5 -30q14 -1 14 -8q0 -5 -8 -5q-14 0 -54 1.5t-71 1.5q-12 0 -51 -1.5t-49 -1.5q-7 0 -7 5q0 7 9 8q43 5 51 32t8 170v204q0 62 -6 88.5
t-15.5 33t-38.5 11.5q-9 1 -9 7q0 7 11 7q1 0 34.5 -2t60.5 -2q26 0 50.5 1t38.5 2t15 1z" />
    <glyph glyph-name="uni043B" unicode="&#x43b;" horiz-adv-x="627" 
d="M66 -7q-30 0 -53 10q-10 4 -10 11t6 37q6 28 8 52q1 8 8 8t7 -6q0 -1 -0.5 -10t-0.5 -13q0 -17 11 -25q13 -9 30 -9q52 0 74 106l56 245q17 79 17 116q0 19 -12.5 25t-49.5 10q-10 0 -10 6q0 7 11 7l148 -3l96 -2q43 -1 79 0.5t57.5 3t26.5 1.5q11 0 11 -6q0 -5 -11 -7
q-39 -7 -48 -29t-9 -109v-200q0 -61 1.5 -91.5t3.5 -55t10 -33t16.5 -13t28.5 -8.5q10 -3 10 -9q0 -5 -10 -5q-6 0 -38 1.5t-40 1.5q-42 0 -82.5 -1.5t-53.5 -1.5q-9 0 -9 6q0 5 13 7q44 9 54 37t10 123v352q-53 3 -77 3q-48 0 -78 -3l-83 -392q-15 -72 -42 -104.5
t-76 -32.5z" />
    <glyph glyph-name="uni043C" unicode="&#x43c;" horiz-adv-x="796" 
d="M157 569q8 0 12 -8q88 -179 237 -436l213 435q3 7 8 7q8 0 9 -5q0 -15 15 -110l48 -307q12 -82 26 -105.5t47 -29.5q14 -3 14 -9q0 -5 -11 -5t-43.5 1.5t-52.5 1.5q-17 0 -56.5 -1.5t-53.5 -1.5q-9 0 -9 6t10 7q52 8 52 37t-6 71l-38 268l-189 -388q-6 -9 -9 -9t-8 11
q-73 148 -200 376l-24 -218q-6 -47 -6 -81q0 -60 63 -67q10 -1 10 -6q0 -6 -8 -6q-5 0 -45.5 2t-53.5 2q-15 0 -47 -2t-36 -2q-9 0 -9 6q0 5 9 7q42 4 53 23.5t22 110.5l36 291q11 80 14 127q0 7 7 7z" />
    <glyph glyph-name="uni043D" unicode="&#x43d;" horiz-adv-x="730" 
d="M670 563q11 0 11 -6q0 -5 -10 -7q-40 -7 -49 -29t-9 -108v-201q0 -99 4 -135t14.5 -49t41.5 -18q9 -1 9 -8q0 -5 -10 -5q-6 0 -37.5 1.5t-38.5 1.5q-40 0 -83.5 -1.5t-57.5 -1.5q-11 0 -11 6q0 5 11 6q49 8 60.5 37.5t10.5 123.5v95q-61 5 -174 5q-105 0 -149 -6l1 -97
q1 -98 10 -123.5t54 -33.5q14 -1 14 -8q0 -5 -8 -5q-25 0 -65 1.5t-70 1.5q-6 0 -42 -1.5t-40 -1.5q-9 0 -9 5t10 8q42 10 50 37.5t8 168.5v199q0 90 -8 109t-47 24q-11 2 -11 7q0 8 12 8l36 -2q35 -2 51 -2q18 0 44.5 1t47 2t22.5 1q11 0 11 -6q0 -7 -9 -8q-40 -4 -51 -27
t-11 -110v-101q73 -7 148 -7q117 0 175 6l1 102q0 83 -10.5 107t-47.5 29q-9 2 -9 7q0 7 11 7q7 0 45 -1.5t62 -1.5q23 0 55.5 2t36.5 2z" />
    <glyph glyph-name="uni043E" unicode="&#x43e;" horiz-adv-x="711" 
d="M350 569q139 0 223.5 -77t84.5 -207q0 -133 -77 -212.5t-221 -79.5q-60 0 -113 16t-97.5 49t-70.5 91.5t-26 135.5q0 132 78.5 208t218.5 76zM345 540q-94 0 -144.5 -63t-50.5 -170q0 -141 62 -213.5t165 -72.5q78 0 130 65.5t52 173.5q0 132 -57 206t-157 74z" />
    <glyph glyph-name="uni043F" unicode="&#x43f;" horiz-adv-x="707" 
d="M61 -3q-9 0 -9 5q0 4 11 7q19 4 27.5 8.5t16.5 14t10.5 35t3.5 57t1 95.5v196q0 40 -1 60t-3.5 36t-10 22t-16 9.5t-26.5 6.5q-10 2 -10 7q0 7 11 7l28 -1q28 0 75 -1t93 -1l226 -2q41 0 76.5 1t55.5 2.5t25 1.5q11 0 11 -6q0 -5 -12 -8q-38 -8 -46.5 -30t-8.5 -107v-200
q0 -99 4 -135t15 -49t42 -18q9 -2 9 -8q0 -5 -10 -5q-6 0 -38 1.5t-40 1.5q-45 0 -85.5 -1.5t-54.5 -1.5q-10 0 -10 5q0 7 13 8q48 6 58.5 35.5t10.5 124.5v346q-71 4 -135 4q-107 0 -161 -6l1 -347q0 -98 9 -124t53 -32q14 -3 14 -8q0 -6 -8 -6q-27 0 -64.5 1.5t-66.5 1.5
q-6 0 -43 -1.5t-41 -1.5z" />
    <glyph glyph-name="uni0440" unicode="&#x440;" horiz-adv-x="506" 
d="M292 566q83 0 131 -35t48 -106q0 -82 -51.5 -131.5t-127.5 -49.5q-24 0 -38 4q-8 4 -8 9t5 5l11 -1q10 -1 21 -1q49 0 75.5 38t26.5 101q0 68 -38 102.5t-101 34.5q-9 0 -42 -3q-2 -15 -2 -121l1 -242q1 -106 10.5 -130.5t58.5 -30.5q13 -1 13 -7t-12 -6q-17 0 -56.5 2
t-72.5 2q-6 0 -46 -2t-44 -2q-10 0 -10 6q0 5 9 6q46 8 54.5 35.5t8.5 168.5v203q0 84 -10 107t-46 28q-9 2 -9 7q0 7 13 7q2 0 32.5 -1.5t51.5 -1.5q12 0 69 2.5t75 2.5z" />
    <glyph glyph-name="uni0441" unicode="&#x441;" horiz-adv-x="619" 
d="M366 567q36 0 100 -11q15 -3 35 -6.5t30 -5.5t14 -2q7 0 13 4.5t7 4.5q7 0 7 -5q0 -1 -1.5 -13.5t-1.5 -17.5q-2 -19 -2 -75q0 -8 -6 -8q-4 0 -7 10q-12 42 -76 69.5t-120 27.5q-106 0 -158 -61t-52 -169q0 -130 73 -209t173 -79q72 0 113.5 25.5t53.5 66.5q3 8 7 8
q5 0 5 -4q0 -30 -12 -73q-5 -18 -7.5 -22.5t-9.5 -7.5q-22 -7 -55 -13q-50 -10 -116 -10q-64 0 -119 15.5t-101.5 48t-73 91.5t-26.5 139q0 130 84 206t229 76z" />
    <glyph glyph-name="uni0442" unicode="&#x442;" horiz-adv-x="556" 
d="M41 572q1 0 11 -2q68 -11 261 -11q101 0 203 6q3 0 6 0.5t4.5 1t2.5 0.5q4 0 4 -4l-1 -13q-1 -13 -1 -23l-1 -59q0 -8 -6 -8q-5 0 -6 8q-5 33 -28 43t-75 12q-64 0 -92 -1q-2 -8 -2 -34l1 -343q0 -42 2 -62.5t4 -36.5t11.5 -21.5t18 -8t30.5 -5.5q11 -2 11 -8t-7 -6
t-55 1.5t-84 1.5q-5 0 -41 -1.5t-43 -1.5q-9 0 -9 6t8 7q32 5 43.5 13t17.5 34.5t6 89.5v339q0 28 -2 36q-25 1 -81 1q-53 -2 -80 -13t-36 -41q-2 -8 -7 -8q-4 0 -4 6q0 11 7 56q6 36 6 44q0 5 3 5z" />
    <glyph glyph-name="uni0443" unicode="&#x443;" horiz-adv-x="596" 
d="M175 -9q-44 0 -76 16q-1 0 -3.5 2t-2.5 5q0 4 1 10.5t3 17.5t3 18q2 18 7 78q2 8 8 8q7 0 7 -6l-1 -26q0 -25 14 -42q20 -23 54 -23q22 0 49.5 18.5t51.5 55.5l-187 326q-35 62 -49.5 78.5t-39.5 21.5q-14 3 -14 8q0 7 10 7t37.5 -2t39.5 -2q28 0 61.5 1t41.5 1
q15 0 15 -6q0 -5 -9 -7q-37 -4 -37 -23q0 -14 28 -64l145 -259l127 247q27 51 27 70q0 24 -38 29q-10 1 -10 7t9 6q5 0 40.5 -2t44.5 -2q8 0 27 2t28 2t10 -6q-1 -6 -10 -7q-22 -4 -37.5 -24.5t-47.5 -81.5l-124 -235q-46 -88 -69.5 -127.5t-43.5 -57.5q-38 -32 -90 -32z
" />
    <glyph glyph-name="uni0444" unicode="&#x444;" horiz-adv-x="674" 
d="M626 290q0 -84 -64.5 -137.5t-185.5 -60.5q3 -51 16 -69t49 -23q13 -3 13 -8q0 -6 -9 -6q-29 0 -66 1t-60 1q-8 0 -46 -1.5t-44 -1.5q-9 0 -9 6q0 4 9 7q23 5 33 10.5t18 25t10 59.5q-107 9 -174.5 57t-67.5 140q0 82 64 132.5t180 58.5q-3 49 -14.5 63.5t-45.5 20.5
q-9 1 -9 6q0 6 11 6q4 0 40 -2t53 -2q19 0 60.5 1.5t44.5 1.5q11 0 11 -5q0 -6 -9 -7q-36 -6 -46.5 -19t-12.5 -65q115 -8 183 -59t68 -131zM136 308q0 -79 41.5 -126t114.5 -60q1 21 1 78v219v37q-78 -7 -117.5 -46.5t-39.5 -101.5zM375 117q71 5 115.5 46t44.5 107
q0 77 -42.5 125.5t-118.5 59.5v-30l1 -264v-44z" />
    <glyph glyph-name="uni0445" unicode="&#x445;" horiz-adv-x="559" 
d="M509 564q10 0 10 -6t-10 -8q-33 -4 -49.5 -20t-58.5 -83l-90 -145l96 -157q56 -89 77.5 -111t55.5 -27q9 -2 9 -7q0 -6 -9 -6q-14 0 -49 2.5t-53 2.5q-14 0 -54 -1.5t-53 -1.5q-12 0 -12 5t8 7q23 3 32 7t9 14q0 19 -42 89l-67 115l-57 -91q-58 -92 -58 -111
q0 -20 38 -23q11 -2 11 -8q0 -4 -10 -4q-5 0 -36.5 2t-43.5 2q-15 0 -46.5 -2.5t-33.5 -2.5q-10 0 -10 6q0 5 10 7q31 3 52 24t66 91l94 149l-106 174q-36 58 -53.5 75.5t-47.5 24.5q-11 2 -11 9q0 6 10 6q12 0 43 -0.5t48 -0.5l100 1q7 0 7 -6q0 -5 -8 -7q-21 -4 -27.5 -8
t-6.5 -14q0 -18 40 -81l66 -107l61 100q36 57 36 85q0 21 -33 25q-10 1 -10 8q0 6 9 6q5 0 38 -1.5t42 -1.5q14 0 43.5 2.5t33.5 2.5z" />
    <glyph glyph-name="uni0446" unicode="&#x446;" horiz-adv-x="730" 
d="M615 -157q-6 0 -6 8q0 1 3.5 55.5t3.5 78.5q0 14 -25 14q-49 0 -159 0.5t-167 0.5q-31 0 -63 -0.5t-55 -1t-41.5 -0.5t-29 -0.5t-11.5 -0.5q-11 0 -11 7q0 5 10 7q30 4 40 13t14 32.5t4 88.5v196q0 143 -8 172.5t-51 36.5q-11 1 -11 7t9 6q1 0 43 -1.5t58 -1.5
q18 0 51.5 1.5t61.5 1.5q8 0 8 -6q0 -7 -14 -8q-44 -9 -52.5 -34t-8.5 -122l-1 -351q45 -6 161 -6q18 0 150 5v348q0 95 -11 124t-59 36q-13 1 -13 9q0 5 9 5q14 0 56.5 -1.5t85.5 -1.5q8 0 40 1.5t38 1.5q10 0 10 -7q0 -6 -10 -7q-16 -3 -24 -5t-16.5 -11t-11 -18.5
t-5 -35.5t-3 -52.5t-0.5 -78.5v-206q0 -45 4.5 -66.5t12.5 -28.5t27 -11q39 -9 39 -18q0 -7 -5.5 -20.5t-21 -51.5t-31.5 -84q-7 -19 -14 -19z" />
    </font>
</defs>
</svg>
